<?xml version="1.0" standalone="no"?>
<!DOCTYPE svg PUBLIC "-//W3C//DTD SVG 1.1//EN" "http://www.w3.org/Graphics/SVG/1.1/DTD/svg11.dtd" >
<svg xmlns="http://www.w3.org/2000/svg" xmlns:xlink="http://www.w3.org/1999/xlink" version="1.1">
<metadata>
Created by FontForge 20170731 at Tue Jun 21 04:01:03 2022
 By Aleksey,,,
Copyright (c) 2013 by Letterhead Studio. All rights reserved.
</metadata>
<defs>
<font id="20Kopeek" horiz-adv-x="503" >
  <font-face 
    font-family="20 Kopeek"
    font-weight="400"
    font-stretch="normal"
    units-per-em="2048"
    panose-1="2 0 5 3 8 0 0 2 0 3"
    ascent="1608"
    descent="-440"
    x-height="938"
    cap-height="1479"
    bbox="-254 -616 2312 2006"
    underline-thickness="102"
    underline-position="-307"
    unicode-range="U+0020-FB02"
  />
<missing-glyph horiz-adv-x="305" 
 />
    <glyph glyph-name="fi" unicode="fi" horiz-adv-x="1042" 
d="M920 1147h-199v92q0 58 -32 91.5t-97 33.5q-101 0 -151 -47.5t-50 -169.5v-209h529v-938h-199v774h-330v-774h-198v774h-162v164h162v207q0 174 103.5 268t307.5 94q149 0 232.5 -69.5t83.5 -182.5v-108z" />
    <glyph glyph-name="fl" unicode="fl" horiz-adv-x="1042" 
d="M793 1466l127 70v-1536h-199v1239q0 58 -32 91.5t-97 33.5q-101 0 -151 -47.5t-50 -169.5v-209h207v-164h-207v-774h-198v774h-162v164h162v207q0 174 103.5 268t307.5 94q112 0 189 -41z" />
    <glyph glyph-name=".notdef" horiz-adv-x="305" 
 />
    <glyph glyph-name=".null" horiz-adv-x="0" 
 />
    <glyph glyph-name="nonmarkingreturn" horiz-adv-x="682" 
 />
    <glyph glyph-name="space" unicode=" " horiz-adv-x="563" 
 />
    <glyph glyph-name="exclam" unicode="!" horiz-adv-x="481" 
d="M358 1167l-69 -698h-96l-70 698v312h235v-312zM123 238h235v-238h-235v238z" />
    <glyph glyph-name="quotedbl" unicode="&#x22;" horiz-adv-x="743" 
d="M641 1479l-182 -351l-84 25l82 326h184zM389 1479l-182 -351l-84 25l82 326h184z" />
    <glyph glyph-name="numbersign" unicode="#" horiz-adv-x="1507" 
d="M971 455l-140 -455h-161l141 455h-285l-139 -455h-160l142 455h-246v163h297l82 269h-346v164h399l143 458h160l-145 -458h284l146 458h157l-143 -458h227v-164h-280l-82 -269h330v-163h-381zM944 887h-285l-81 -269h284z" />
    <glyph glyph-name="dollar" unicode="$" horiz-adv-x="1247" 
d="M700 -25v-163h-155v163q-473 27 -494 517l217 20q12 -173 79.5 -252.5t197.5 -93.5v491q-98 26 -164 53.5t-133 73.5q-144 103 -144 301q0 188 125 295q128 110 316 125v185h155v-187q230 -21 326 -149q100 -127 115 -326l-217 -20q-12 144 -67.5 214.5t-156.5 84.5v-461
q72 -16 103 -23.5t74.5 -22.5t87.5 -38q102 -45 153 -126.5t58 -223.5q0 -206 -138 -314t-338 -123zM958 412q0 84 -60 128t-198 78v-452q258 24 258 246zM322 1085q0 -138 223 -202v428q-223 -21 -223 -226z" />
    <glyph glyph-name="percent" unicode="%" horiz-adv-x="1677" 
d="M1491 74q-83 -105 -234 -105q-153 0 -235 105q-82 104 -82 266t82 266q82 105 235 105q151 0 234 -105q84 -107 84 -266t-84 -266zM1141 141q40 -55 116 -55q78 0 115 55q39 53 39 199t-39 199q-37 55 -115 55q-76 0 -116 -55q-37 -55 -37 -199t37 -199zM653 778
q-82 -104 -233 -104q-154 0 -236 104t-82 266q0 163 82 267t236 104q151 0 233 -104q84 -107 84 -267q0 -159 -84 -266zM303 846q40 -55 117 -55q78 0 115 55q38 52 38 198q0 147 -38 199q-37 55 -115 55q-77 0 -117 -55q-37 -55 -37 -199q0 -143 37 -198zM1436 1386
l-1020 -1386h-172l1022 1386h170z" />
    <glyph glyph-name="ampersand" unicode="&#x26;" horiz-adv-x="1533" 
d="M1430 223l63 -88q-72 -92 -135 -128t-154 -36q-124 0 -237 125q-180 -125 -394 -125q-218 0 -344.5 111t-126.5 305q0 136 82 229t244 170q-137 192 -137 336q0 182 115 283.5t315 101.5q182 0 291 -106q112 -103 112 -256q0 -161 -120 -258q-100 -83 -261 -154l263 -342
q90 128 139 322l190 -21q-55 -270 -209 -452q48 -51 102.5 -68.5t105.5 -3.5t96 55zM573 162q150 0 277 80l-311 401q-112 -57 -166 -116t-54 -140q0 -225 254 -225zM508 1124q0 -73 127 -247q145 67 208.5 124.5t63.5 143.5q0 83 -51 127.5t-135 44.5q-213 0 -213 -193z
" />
    <glyph glyph-name="quotesingle" unicode="'" horiz-adv-x="491" 
d="M389 1479l-182 -351l-84 25l82 326h184z" />
    <glyph glyph-name="parenleft" unicode="(" horiz-adv-x="780" 
d="M719 -150l-82 -112q-545 339 -545 973q0 633 545 972l82 -112q-244 -174 -338 -377q-92 -207 -92 -483q0 -277 92 -484q94 -203 338 -377z" />
    <glyph glyph-name="parenright" unicode=")" horiz-adv-x="780" 
d="M61 1571l82 112q545 -339 545 -972q0 -634 -545 -973l-82 112q246 175 336 377q95 207 95 484q0 276 -95 483q-90 202 -336 377z" />
    <glyph glyph-name="asterisk" unicode="*" horiz-adv-x="966" 
d="M639 971l-127 139l55 -180l-20 -152h-127l-21 148l58 184l-129 -139l-142 -58l-63 109l119 92l188 41l-186 43l-121 94l63 109l140 -55l129 -146l-56 186l21 150h127l20 -147l-59 -189l133 146l139 55l64 -109l-121 -94l-188 -43l190 -41l119 -92l-64 -109z" />
    <glyph glyph-name="plus" unicode="+" horiz-adv-x="1183" 
d="M674 598v-371h-160v371h-367v156h367v370h160v-370h366v-156h-366z" />
    <glyph glyph-name="comma" unicode="," horiz-adv-x="481" 
d="M123 238h235q19 -111 19 -238q0 -174 -225 -291l-52 92q146 68 146 199h-123v238z" />
    <glyph glyph-name="hyphen" unicode="-" horiz-adv-x="897" 
d="M764 635v-184h-631v184h631z" />
    <glyph glyph-name="period" unicode="." horiz-adv-x="481" 
d="M123 238h235v-238h-235v238z" />
    <glyph glyph-name="slash" unicode="/" horiz-adv-x="751" 
d="M752 1479l-580 -1479h-172l575 1479h177z" />
    <glyph glyph-name="zero" unicode="0" horiz-adv-x="1259" 
d="M940 739q0 276 -76.5 427t-232.5 151q-309 0 -309 -578q0 -577 309 -577t309 577zM1024 1292q131 -210 131 -553q0 -342 -131 -555q-130 -213 -393 -213q-262 0 -395 213q-132 214 -132 555t132 553q132 215 395 215q264 0 393 -215z" />
    <glyph glyph-name="one" unicode="1" horiz-adv-x="1259" 
d="M616 1507h134v-1317h307v-190h-854v190h329v998h-309v141q144 0 234 23q83 24 108 55q28 36 51 100z" />
    <glyph glyph-name="two" unicode="2" horiz-adv-x="1259" 
d="M451 190h679v-190h-987v139l465 439q131 125 191 231q65 115 65 270q0 107 -63.5 170.5t-182.5 63.5q-131 0 -191.5 -72t-80.5 -223l-215 35q17 213 144.5 333.5t342.5 120.5q218 0 340.5 -117t122.5 -311q0 -215 -131 -395q-133 -183 -499 -494z" />
    <glyph glyph-name="three" unicode="3" horiz-adv-x="1261" 
d="M467 717l-115 125l430 446h-647v191h950v-140l-395 -395h23q198 0 321 -141t123 -334q0 -206 -143 -352q-146 -146 -377 -146q-74 0 -147 14t-143.5 45.5t-123.5 78t-86 118t-33 158.5l218 27q10 -118 94 -184t221 -66q144 0 223.5 84.5t79.5 222.5q0 136 -82.5 213.5
t-214.5 77.5q-91 0 -176 -43z" />
    <glyph glyph-name="four" unicode="4" horiz-adv-x="1259" 
d="M567 1479h217q-53 -304 -166 -533q-112 -226 -348 -440h457v391l217 61v-452h238v-191h-238v-315h-217v315h-661v191q235 250 354 473q123 228 147 500z" />
    <glyph glyph-name="five" unicode="5" horiz-adv-x="1259" 
d="M1063 1288h-621l-51 -354q106 47 232 47q251 0 391.5 -134t140.5 -370q0 -205 -145 -356q-144 -150 -377 -150q-74 0 -146.5 14t-142.5 45.5t-122.5 78t-85 118t-32.5 158.5l218 27q10 -115 97 -182.5t214 -67.5q154 0 229.5 84.5t75.5 230.5q0 144 -84 230t-240 86
q-179 0 -305 -129l-125 108l105 707h774v-191z" />
    <glyph glyph-name="six" unicode="6" horiz-adv-x="1259" 
d="M1155 483q0 -216 -145 -364t-359 -148q-314 0 -438 189q-59 95 -84 218t-25 300q0 358 115 582q128 247 430 247q437 0 477 -407l-217 -21q-27 238 -260 238q-118 0 -196 -72q-131 -126 -131 -379q154 92 387 92q93 0 168.5 -27.5t126.5 -73t85.5 -107.5t50 -129
t15.5 -138zM651 164q138 0 212.5 84.5t74.5 234.5q0 289 -285 289q-215 0 -331 -104q-5 -62 -5 -99q0 -405 334 -405z" />
    <glyph glyph-name="seven" unicode="7" horiz-adv-x="1259" 
d="M1149 1479v-140q-235 -379 -346 -692q-106 -308 -127 -647h-242q15 318 131 600q116 283 361 688h-785v191h1008z" />
    <glyph glyph-name="eight" unicode="8" horiz-adv-x="1259" 
d="M823 922q68 65 68 165q0 99 -68 164q-69 66 -192 66q-124 0 -193 -66q-65 -65 -65 -164q0 -100 65 -165q67 -64 193 -64q125 0 192 64zM864 233q74 71 74 183q0 111 -74 182q-72 72 -235 72q-164 0 -236 -72q-71 -71 -71 -182q0 -112 71 -183t236 -71q164 0 235 71z
M104 397q0 130 75 230t204 141q-227 99 -227 350q0 174 137 281q138 108 336 108t336 -108q139 -109 139 -281q0 -251 -227 -350q129 -41 203.5 -140.5t74.5 -230.5q0 -175 -129 -301q-125 -125 -397 -125q-273 0 -398 125q-127 127 -127 301z" />
    <glyph glyph-name="nine" unicode="9" horiz-adv-x="1259" 
d="M104 995q0 218 144 365t360 147q318 0 436 -190q60 -91 85.5 -214.5t25.5 -301.5q0 -359 -117 -584q-61 -119 -169.5 -182.5t-258.5 -63.5q-436 0 -477 408l217 20q27 -237 260 -237q118 0 195 71q74 68 103.5 161t29.5 218q-154 -92 -387 -92q-93 0 -169 27.5t-126.5 73
t-85.5 107.5t-50.5 129t-15.5 138zM608 1315q-138 0 -212 -85t-74 -235q0 -288 284 -288q216 0 332 104q4 50 4 98q0 406 -334 406z" />
    <glyph glyph-name="colon" unicode=":" horiz-adv-x="481" 
d="M123 238h235v-238h-235v238zM123 938h235v-238h-235v238z" />
    <glyph glyph-name="semicolon" unicode=";" horiz-adv-x="481" 
d="M123 238h235q19 -111 19 -238q0 -174 -225 -291l-52 92q146 68 146 199h-123v238zM123 938h235v-238h-235v238z" />
    <glyph glyph-name="less" unicode="&#x3c;" horiz-adv-x="1202" 
d="M147 643v64l930 473v-183l-647 -323l647 -330v-174z" />
    <glyph glyph-name="equal" unicode="=" horiz-adv-x="1183" 
d="M1040 958v-155h-893v155h893zM1040 545v-156h-893v156h893z" />
    <glyph glyph-name="greater" unicode="&#x3e;" horiz-adv-x="1220" 
d="M147 999v177l930 -474v-59l-930 -473v174l648 330z" />
    <glyph glyph-name="question" unicode="?" horiz-adv-x="1021" 
d="M920 1139q0 -87 -29 -156q-9 -20 -22 -39t-22 -30t-30 -28.5t-27.5 -22.5t-35 -25t-33.5 -23q-72 -51 -100 -74q-48 -38 -81.5 -109t-39.5 -163h-97q-10 65 -10 125q0 88 30.5 158.5t78.5 115.5q17 15 53.5 45t56.5 49t44 47.5t35 60.5t11 69q0 79 -51 128.5t-151 49.5
q-201 0 -201 -221h-217q0 188 105 299.5t313 111.5q214 0 315 -110q105 -108 105 -258zM334 238h235v-238h-235v238z" />
    <glyph glyph-name="at" unicode="@" horiz-adv-x="1783" 
d="M1260 -164l40 -104q-178 -99 -389 -99q-402 0 -615.5 212.5t-213.5 615.5q0 388 221 606q226 221 608 221q378 0 584 -203q207 -204 207 -538q0 -244 -109 -412q-108 -164 -286 -164q-76 0 -121 44t-51 132q-114 -176 -371 -176q-136 0 -213.5 70.5t-77.5 189.5
q0 149 143 240q143 94 480 94q4 102 4 103q-1 89 -48.5 122t-160.5 33q-198 0 -213 -174l-166 29q0 66 26 118t66.5 83t94.5 51.5t105.5 28.5t104.5 8q391 0 391 -301q0 -58 -6 -234q-4 -234 -4 -250q0 -71 49 -71q87 0 154 116q70 116 70 320q0 299 -169.5 457.5
t-478.5 158.5q-314 0 -503 -180q-191 -182 -191 -522q0 -352 189 -529q186 -174 505 -174q186 0 345 78zM1055 248q22 36 29 70t12 122q-426 0 -426 -192q0 -62 38 -100.5t105 -38.5q70 0 135.5 36t106.5 103z" />
    <glyph glyph-name="A" unicode="A" horiz-adv-x="1374" 
d="M1343 0h-231l-129 356h-618l-129 -356h-205l549 1479h215zM913 547l-241 659l-240 -659h481z" />
    <glyph glyph-name="B" unicode="B" horiz-adv-x="1304" 
d="M696 664h-336v-474h336q134 0 210.5 62t76.5 174t-76.5 175t-210.5 63zM143 0v1479h469q248 0 380 -94t132 -277q0 -129 -65.5 -221.5t-175.5 -118.5q319 -55 319 -369q0 -184 -139 -293q-135 -106 -352 -106h-568zM643 1288h-283v-434h283q123 0 192.5 59t69.5 158
t-69.5 158t-192.5 59z" />
    <glyph glyph-name="C" unicode="C" horiz-adv-x="1370" 
d="M717 1317q-212 0 -312 -140t-100 -446q0 -307 109 -440q108 -129 303 -129q159 0 253 98t101 293l223 -29q-7 -146 -60 -258t-140 -174q-167 -121 -377 -121q-299 0 -467 195t-168 565q0 367 164.5 571.5t470.5 204.5q211 0 377 -110q87 -58 140 -167t60 -255l-223 -29
q-15 371 -354 371z" />
    <glyph glyph-name="D" unicode="D" horiz-adv-x="1402" 
d="M143 0v1479h535q309 0 477 -213q166 -211 166 -527q0 -206 -70 -368q-71 -169 -223.5 -270t-357.5 -101h-527zM360 1288v-1098h275q230 0 346 152q117 150 117 397q0 249 -113 398q-112 151 -342 151h-283z" />
    <glyph glyph-name="E" unicode="E" horiz-adv-x="1161" 
d="M1018 664h-658v-474h719v-190h-936v1479h934v-191h-717v-434h658v-190z" />
    <glyph glyph-name="F" unicode="F" horiz-adv-x="1069" 
d="M997 664h-637v-664h-217v1479h895v-191h-678v-434h637v-190z" />
    <glyph glyph-name="G" unicode="G" horiz-adv-x="1427" 
d="M717 1317q-212 0 -312 -140t-100 -446q0 -307 109 -440q108 -129 303 -129q100 0 201 48.5t163 129.5v149h-284v191h508v-680h-119l-60 141q-188 -170 -409 -170q-299 0 -467 195t-168 565q0 367 164.5 571.5t470.5 204.5q209 0 373 -110q85 -57 136 -166t58 -256
l-223 -29q-15 371 -344 371z" />
    <glyph glyph-name="H" unicode="H" horiz-adv-x="1417" 
d="M1057 664h-697v-664h-217v1479h217v-625h697v625h217v-1479h-217v664z" />
    <glyph glyph-name="I" unicode="I" 
d="M143 1479h217v-1479h-217v1479z" />
    <glyph glyph-name="J" unicode="J" horiz-adv-x="927" 
d="M20 393h218q0 -231 180 -231q86 0 133 63t47 170v1084h217v-1084q0 -424 -397 -424q-211 0 -305 119q-93 122 -93 303z" />
    <glyph glyph-name="K" unicode="K" horiz-adv-x="1335" 
d="M360 776l654 703h260l-551 -592l541 -887h-254l-441 721l-209 -225v-496h-217v1479h217v-703z" />
    <glyph glyph-name="L" unicode="L" horiz-adv-x="1069" 
d="M143 1479h217v-1289h678v-190h-895v1479z" />
    <glyph glyph-name="M" unicode="M" horiz-adv-x="1722" 
d="M143 0v1479h344l373 -1088l375 1088h344v-1479h-215v1227h-12l-422 -1227h-137l-422 1227h-13v-1227h-215z" />
    <glyph glyph-name="N" unicode="N" horiz-adv-x="1439" 
d="M1296 0h-262l-692 1159h-8v-1159h-191v1479h263l692 -1160h8v1160h190v-1479z" />
    <glyph glyph-name="O" unicode="O" horiz-adv-x="1548" 
d="M1466 739q0 -347 -186 -557q-184 -211 -506 -211q-321 0 -508 211q-184 211 -184 557t184 557q187 211 508 211q320 0 506 -213q186 -210 186 -555zM1120 319q123 159 123 420q0 262 -123 418q-121 160 -346 160q-224 0 -348 -160q-121 -157 -121 -418q0 -260 121 -420
q124 -157 348 -157q225 0 346 157z" />
    <glyph glyph-name="P" unicode="P" horiz-adv-x="1275" 
d="M633 512h-273v-512h-217v1479h488q275 0 424 -126t149 -354q0 -229 -150.5 -358t-420.5 -129zM360 1288v-586h283q165 0 249.5 85t84.5 223q0 278 -334 278h-283z" />
    <glyph glyph-name="Q" unicode="Q" horiz-adv-x="1548" 
d="M1466 739q0 -284 -126 -480t-351 -259q18 -93 54 -137.5t106 -44.5q37 0 86 12l20 -176q-74 -14 -161 -14q-182 0 -248 104q-58 89 -72 227q-321 0 -508 211q-184 211 -184 557t184 557q187 211 508 211q320 0 506 -213q186 -210 186 -555zM1243 739q0 262 -123 418
q-121 160 -346 160q-224 0 -348 -160q-121 -157 -121 -418q0 -257 117 -413q122 -158 336 -164q-11 103 -45.5 153t-106.5 50q-36 0 -94 -15l-20 178q88 21 186 21q124 0 192 -72q79 -95 95 -278q134 60 206 201t72 339z" />
    <glyph glyph-name="R" unicode="R" horiz-adv-x="1343" 
d="M674 1288h-314v-538h314q162 0 237.5 73t75.5 197q0 123 -75.5 195.5t-237.5 72.5zM1204 1047q0 -154 -83 -256t-232 -127q122 -21 178 -80q52 -52 88 -195l55 -231q21 -97 72 -158h-262l-88 369q-25 106 -82 148t-150 42h-340v-559h-217v1479h488q275 0 424 -113.5
t149 -318.5z" />
    <glyph glyph-name="S" unicode="S" horiz-adv-x="1247" 
d="M1151 1028l-217 -20q-15 179 -94 243q-76 64 -224 64q-284 0 -284 -230q0 -93 83 -143t265 -90l104 -25q57 -14 99 -28q63 -17 98 -39q41 -22 83.5 -56t63.5 -69q58 -90 58 -223q0 -152 -86 -258q-154 -183 -467 -183q-551 0 -572 521l218 20q13 -195 99 -272.5
t255 -77.5q336 0 336 250q0 77 -62 131q-18 18 -78 41q-43 16 -88 28l-110 27l-146 37q-53 14 -135 53q-79 39 -123 80q-49 47 -80.5 119t-31.5 157q0 203 145 312q146 110 356 110q300 0 416 -147q56 -68 83.5 -147t35.5 -185z" />
    <glyph glyph-name="T" unicode="T" horiz-adv-x="1232" 
d="M31 1288v191h1171v-191h-477v-1288h-217v1288h-477z" />
    <glyph glyph-name="U" unicode="U" horiz-adv-x="1353" 
d="M1051 504v975h190v-975q0 -244 -151 -389q-150 -144 -412 -144q-264 0 -414 144q-151 145 -151 389v975h217v-975q0 -162 97 -252t263 -90t263.5 91t97.5 251z" />
    <glyph glyph-name="V" unicode="V" horiz-adv-x="1374" 
d="M31 1479h231l438 -1209l439 1209h204l-548 -1479h-215z" />
    <glyph glyph-name="W" unicode="W" horiz-adv-x="1949" 
d="M31 1479h231l293 -1164l317 1164h232l293 -1164l317 1164h205l-426 -1479h-215l-305 1114l-322 -1114h-215z" />
    <glyph glyph-name="X" unicode="X" horiz-adv-x="1351" 
d="M797 774l503 -774h-260l-374 578l-387 -578h-228l502 750l-471 729h260l344 -533l356 533h228z" />
    <glyph glyph-name="Y" unicode="Y" horiz-adv-x="1236" 
d="M991 1479h215l-479 -895v-584h-217v584l-479 895h248l356 -668z" />
    <glyph glyph-name="Z" unicode="Z" horiz-adv-x="1234" 
d="M362 190h812v-190h-1113v139l791 1149h-770v191h1071v-140z" />
    <glyph glyph-name="bracketleft" unicode="[" horiz-adv-x="704" 
d="M643 -106v-158h-500v1939h500v-157h-303v-1624h303z" />
    <glyph glyph-name="backslash" unicode="\" horiz-adv-x="751" 
d="M174 1479l578 -1479h-174l-578 1479h174z" />
    <glyph glyph-name="bracketright" unicode="]" horiz-adv-x="704" 
d="M561 1675v-1939h-500v158h304v1624h-304v157h500z" />
    <glyph glyph-name="asciicircum" unicode="^" horiz-adv-x="1126" 
d="M498 1309h131l467 -686h-217l-316 475l-313 -475h-219z" />
    <glyph glyph-name="underscore" unicode="_" horiz-adv-x="1081" 
d="M1081 -106v-144h-1081v144h1081z" />
    <glyph glyph-name="grave" unicode="`" horiz-adv-x="772" 
d="M446 1456l158 -326h-115l-286 326h243z" />
    <glyph glyph-name="a" unicode="a" horiz-adv-x="1093" 
d="M653 248q22 36 29 70t12 122q-426 0 -426 -192q0 -62 38.5 -100.5t105.5 -38.5q70 0 134.5 36t106.5 103zM1008 170l69 -90q-50 -63 -84.5 -86t-87.5 -23q-76 0 -121 44t-51 132q-114 -176 -371 -176q-135 0 -212.5 70.5t-77.5 189.5q0 149 143 240q143 94 479 94
q4 102 4 103q-1 89 -48.5 122t-160.5 33q-198 0 -213 -174l-165 29q0 66 26 118t66.5 83t94.5 51.5t105.5 28.5t104.5 8q391 0 391 -301q0 -58 -6 -234q-4 -234 -4 -250q0 -57 49 -57q31 0 70 45z" />
    <glyph glyph-name="b" unicode="b" horiz-adv-x="1130" 
d="M123 0v1479h199v-684q79 172 317 172q193 0 301 -144q109 -145 109 -354q0 -213 -113 -356q-112 -142 -318 -142q-217 0 -317 133l-68 -104h-110zM322 461q0 -153 71.5 -239.5t190.5 -86.5q262 0 262 326q0 171 -72 256.5t-196 85.5q-117 0 -186.5 -91t-69.5 -251z" />
    <glyph glyph-name="c" unicode="c" horiz-adv-x="999" 
d="M524 125q84 0 139.5 48t67.5 138l197 -20q-13 -147 -124 -233.5t-280 -86.5q-218 0 -330 130t-112 368t112 368t330 130q169 0 280 -86.5t124 -233.5l-197 -20q-12 90 -67.5 138t-139.5 48q-243 0 -243 -344t243 -344z" />
    <glyph glyph-name="d" unicode="d" horiz-adv-x="1130" 
d="M809 795v684h199v-1479h-199v123q-109 -152 -297 -152q-204 0 -319 142q-111 144 -111 356q0 210 108 354t302 144q238 0 317 -172zM809 461q0 160 -69.5 251t-186.5 91q-124 0 -196 -85.5t-72 -256.5q0 -326 262 -326q119 0 190.5 86.5t71.5 239.5z" />
    <glyph glyph-name="e" unicode="e" horiz-adv-x="1021" 
d="M944 418h-659q0 -283 254 -283q106 0 152.5 39t60.5 137l176 -20q-17 -149 -120.5 -234.5t-268.5 -85.5q-220 0 -338.5 131.5t-118.5 366.5q0 233 113 365.5t329 132.5q207 0 313.5 -140t106.5 -409zM522 823q-114 0 -172.5 -60t-64.5 -192h452q-9 252 -215 252z" />
    <glyph glyph-name="f" unicode="f" horiz-adv-x="598" 
d="M391 774v-774h-198v774h-162v164h162v207q0 174 83 268t246 94q119 0 185.5 -57.5t66.5 -153.5q0 -50 -18 -106l-168 20q16 37 16 70q0 84 -84 84q-66 0 -97.5 -47t-31.5 -170v-209h207v-164h-207z" />
    <glyph glyph-name="g" unicode="g" horiz-adv-x="1124" 
d="M600 283q-207 0 -307 118q-70 -15 -70 -94q0 -66 46.5 -91.5t164.5 -25.5h162q195 0 310.5 -69.5t115.5 -202.5q0 -326 -487 -326q-472 0 -472 283q0 58 43 116.5t117 86.5q-68 24 -108.5 87.5t-40.5 139.5q0 204 149 256q-4 28 -4 64q0 159 101 250.5t280 91.5
q178 0 283 -97q35 30 35 93v65h172v-67q0 -57 -40 -113t-100 -74q31 -67 31 -149q0 -159 -101 -250.5t-280 -91.5zM406 625q0 -199 194 -199q195 0 195 199q0 198 -195 198q-194 0 -194 -198zM297 -217q73 -29 238 -29t237 29q68 27 68 94q0 69 -68 96t-237 27
q-171 0 -238 -27q-68 -27 -68 -96q0 -67 68 -94z" />
    <glyph glyph-name="h" unicode="h" horiz-adv-x="1099" 
d="M123 1479h192v-738q50 107 147 166.5t210 59.5q130 0 223 -84q92 -83 92 -236v-647h-199v582q0 105 -47 161t-125 56q-105 0 -200 -92q-94 -91 -94 -224v-483h-199v1479z" />
    <glyph glyph-name="i" unicode="i" horiz-adv-x="444" 
d="M123 938h199v-938h-199v938zM123 1393h199v-246h-199v246z" />
    <glyph glyph-name="j" unicode="j" horiz-adv-x="444" 
d="M123 -147v1085h199v-1085q0 -267 -287 -267q-52 0 -90.5 9.5t-76.5 35.5t-60.5 79.5t-28.5 133.5l182 21q0 -78 18.5 -112t61.5 -34q44 0 63 31t19 103zM123 1393h199v-246h-199v246z" />
    <glyph glyph-name="k" unicode="k" horiz-adv-x="1024" 
d="M322 506l405 432h246l-371 -373l381 -565h-244l-280 420l-137 -137v-283h-199v1479h199v-973z" />
    <glyph glyph-name="l" unicode="l" horiz-adv-x="444" 
d="M123 1479h199v-1479h-199v1479z" />
    <glyph glyph-name="m" unicode="m" horiz-adv-x="1734" 
d="M123 0v938h199v-219q48 114 143.5 181t218.5 67q254 0 281 -248q44 120 140.5 184t227.5 64q155 0 222 -89t67 -272v-606h-199v520q0 156 -37.5 219.5t-134.5 63.5q-98 0 -190 -109q-90 -110 -90 -250v-444h-199v520q0 157 -37.5 220t-134.5 63q-100 0 -188 -111
q-90 -113 -90 -256v-436h-199z" />
    <glyph glyph-name="n" unicode="n" horiz-adv-x="1099" 
d="M123 938h192v-197q50 107 147 166.5t210 59.5q130 0 223 -84q92 -83 92 -236v-647h-199v582q0 105 -47 161t-125 56q-105 0 -200 -92q-94 -91 -94 -224v-483h-199v938z" />
    <glyph glyph-name="o" unicode="o" horiz-adv-x="1101" 
d="M897 115q-123 -144 -346 -144t-346 144t-123 354t123 354t346 144t346 -144t123 -354t-123 -354zM354 217q70 -82 197 -82t197 82q69 81 69 252q0 169 -69 250q-72 84 -197 84t-197 -84q-69 -81 -69 -250q0 -171 69 -252z" />
    <glyph glyph-name="p" unicode="p" horiz-adv-x="1130" 
d="M322 143v-528h-199v1323h199v-123q122 152 296 152q207 0 318 -144q113 -140 113 -354q0 -209 -109 -354q-108 -144 -301 -144q-238 0 -317 172zM322 477q0 -160 69.5 -251t186.5 -91q124 0 196 85.5t72 256.5q0 326 -262 326q-119 0 -190.5 -86.5t-71.5 -239.5z" />
    <glyph glyph-name="q" unicode="q" horiz-adv-x="1130" 
d="M1008 958v-1343h-199v528q-79 -172 -317 -172q-194 0 -302 144t-108 354q0 213 111 354q114 144 319 144q204 0 319 -158l101 149h76zM809 477q0 153 -71.5 239.5t-190.5 86.5q-262 0 -262 -326q0 -171 72 -256.5t196 -85.5q117 0 186.5 91t69.5 251z" />
    <glyph glyph-name="r" unicode="r" horiz-adv-x="827" 
d="M322 354v-354h-199v938h199v-236q48 133 115 196t165 63q101 0 153 -54.5t52 -150.5q0 -66 -29 -142l-170 21q25 55 25 92q0 32 -19.5 53t-46.5 21q-71 0 -129 -82q-57 -77 -86.5 -177.5t-29.5 -187.5z" />
    <glyph glyph-name="s" unicode="s" horiz-adv-x="937" 
d="M846 662l-191 -21q-12 182 -190 182q-79 0 -123.5 -36.5t-44.5 -98.5q0 -46 52 -72.5t149 -46.5q56 -8 101.5 -19t98 -34t87.5 -54.5t58.5 -83t22.5 -116.5q0 -138 -100 -214.5t-285 -76.5q-166 0 -278 64q-122 72 -131 280l188 21q6 -115 60 -168t163 -53q92 0 142.5 39
t50.5 108q0 95 -201 123q-48 7 -84.5 14.5t-83 22t-80 36.5t-63 52.5t-44.5 76t-14 101.5q0 134 95 206.5t268 72.5q353 0 377 -305z" />
    <glyph glyph-name="t" unicode="t" horiz-adv-x="770" 
d="M569 223l140 -30q-27 -222 -240 -222q-147 0 -205.5 64t-58.5 196v543h-174v164h174v252l198 98v-350h261v-164h-261v-543q0 -64 18 -86t62 -22q68 0 86 100z" />
    <glyph glyph-name="u" unicode="u" horiz-adv-x="1099" 
d="M977 938v-938h-193v195q-50 -106 -147 -165t-209 -59q-132 0 -223 82q-92 83 -92 238v647h198v-582q0 -105 47 -161t125 -56q106 0 201 92q94 91 94 224v483h199z" />
    <glyph glyph-name="v" unicode="v" horiz-adv-x="985" 
d="M772 938h182l-370 -938h-183l-370 938h198l273 -723z" />
    <glyph glyph-name="w" unicode="w" horiz-adv-x="1480" 
d="M649 938h199l209 -690l211 690h182l-309 -938h-183l-219 682l-217 -682h-182l-309 938h198l209 -690z" />
    <glyph glyph-name="x" unicode="x" horiz-adv-x="997" 
d="M487 328l-245 -328h-201l348 465l-338 473h234l225 -315l235 315h201l-340 -451l350 -487h-233z" />
    <glyph glyph-name="y" unicode="y" horiz-adv-x="1007" 
d="M795 938h182l-328 -999q-67 -205 -133 -277t-186 -72q-107 0 -170.5 51.5t-63.5 147.5q0 43 19 98l180 -20q-14 -49 -14 -82q0 -61 63 -61q75 0 115 202l-418 1012h211l305 -764z" />
    <glyph glyph-name="z" unicode="z" horiz-adv-x="931" 
d="M340 164h530v-164h-802v119l505 655h-512v164h787v-119z" />
    <glyph glyph-name="braceleft" unicode="{" horiz-adv-x="755" 
d="M82 668v118q99 38 144.5 91t45.5 139v188q0 152 39 256q78 217 363 217v-141q-131 0 -168 -57q-37 -58 -37 -183v-139q0 -66 -2 -86q0 -106 -31 -164q-24 -58 -74.5 -107t-132.5 -73q86 -30 133 -74.5t74 -107.5q18 -35 23 -82q10 -66 10 -166v-139q0 -65 5.5 -100
t23.5 -70q39 -70 176 -70v-141q-98 0 -175 28.5t-122 75.5q-44 50 -66 113q-39 104 -39 256v188q0 86 -45.5 139t-144.5 91z" />
    <glyph glyph-name="bar" unicode="|" horiz-adv-x="421" 
d="M299 1507v-1956h-176v1956h176z" />
    <glyph glyph-name="braceright" unicode="}" horiz-adv-x="755" 
d="M674 786v-118q-99 -38 -145 -91t-46 -139v-188q0 -152 -39 -256q-78 -217 -362 -217v141q131 0 168 57q37 58 37 183v139v86q5 105 30 162q57 137 209 182q-149 44 -209 180q-12 28 -22 82q-8 68 -8 168v139q0 65 -6 100t-25 70q-36 70 -174 70v141q98 0 174.5 -28.5
t120.5 -75.5q43 -46 67 -113q39 -104 39 -256v-188q0 -86 46 -139t145 -91z" />
    <glyph glyph-name="asciitilde" unicode="~" horiz-adv-x="1193" 
d="M848 489q-92 0 -266 74q-171 76 -232 76q-69 0 -101 -43t-46 -137h-107q6 157 68 266t186 109q99 0 273 -76q177 -74 225 -74q69 0 101 43t46 137h107q-6 -157 -68 -266t-186 -109z" />
    <glyph glyph-name="uni00A0" unicode="&#xa0;" horiz-adv-x="563" 
 />
    <glyph glyph-name="exclamdown" unicode="&#xa1;" horiz-adv-x="481" 
d="M123 -229l70 698h96l69 -698v-312h-235v312zM358 700h-235v238h235v-238z" />
    <glyph glyph-name="cent" unicode="&#xa2;" horiz-adv-x="999" 
d="M578 260v-448h-156v454q-168 30 -254 156.5t-86 333.5q0 209 85.5 333.5t254.5 153.5v447h156v-441q147 -14 242 -98t108 -217l-197 -21q-21 154 -153 181v-678q132 30 153 182l197 -20q-13 -133 -108 -218.5t-242 -99.5zM281 756q0 -262 141 -324v647
q-141 -65 -141 -323z" />
    <glyph glyph-name="sterling" unicode="&#xa3;" horiz-adv-x="1259" 
d="M322 672h-232v155h186q-51 176 -51 281q0 195 105.5 303.5t310.5 108.5q90 0 161.5 -24.5t115.5 -62.5t73 -89t40 -100t11 -99l-194 -15q0 98 -60 148.5t-149 50.5q-112 0 -155.5 -49.5t-43.5 -157.5q0 -112 49 -295h357v-155h-320q21 -108 21 -193q0 -127 -78 -262
q55 14 113 14q72 0 170 -36q101 -37 149 -37q82 0 109 30q33 38 53 148l111 -29q-11 -155 -85.5 -245.5t-199.5 -90.5q-74 0 -189 41t-200 41q-110 0 -256 -51q-79 -31 -154 -31v160q122 4 194 92.5t72 231.5q0 96 -34 217z" />
    <glyph glyph-name="yen" unicode="&#xa5;" horiz-adv-x="1236" 
d="M143 211v168h367v133h-367v170h314l-426 797h248l356 -668l356 668h215l-428 -797h316v-170h-367v-133h367v-168h-367v-211h-217v211h-367z" />
    <glyph glyph-name="brokenbar" unicode="&#xa6;" horiz-adv-x="421" 
d="M299 238v-687h-176v687h176zM299 1507v-686h-176v686h176z" />
    <glyph glyph-name="section" unicode="&#xa7;" horiz-adv-x="1247" 
d="M125 633q0 109 106 215q-65 92 -65 237q0 184 123 304q124 118 317 118q268 0 383 -139q33 -33 51 -92q28 -85 39 -207l-217 -20q-13 146 -76.5 206t-179.5 60q-223 0 -223 -209q0 -99 66 -149.5t221 -84.5q76 -16 141 -34q65 -19 123 -47q73 -36 108 -76
q40 -45 66.5 -118.5t26.5 -164.5q0 -144 -99 -229q58 -79 58 -203q0 -198 -144 -309t-327 -111q-82 0 -138.5 8t-122.5 35q-224 85 -249 436l217 21q0 -309 293 -309q112 0 183 56.5t71 152.5q0 88 -62 129q-56 39 -215 77q-96 23 -149 40t-117 50q-100 48 -151.5 133.5
t-57.5 223.5zM649 399q163 -38 228 -69q41 38 41 102q0 102 -68 146q-57 38 -229 81q-151 34 -234 70q-45 -39 -45 -96q0 -96 72.5 -148t234.5 -86z" />
    <glyph glyph-name="dieresis" unicode="&#xa8;" horiz-adv-x="1013" 
d="M602 1372h199v-225h-199v225zM213 1372h199v-225h-199v225z" />
    <glyph glyph-name="copyright" unicode="&#xa9;" horiz-adv-x="1738" 
d="M1636 735q0 -316 -227 -540q-224 -224 -543 -224q-316 0 -540 224t-224 540q0 318 224 545t540 227q319 0 543 -227q227 -227 227 -545zM1495 735q0 263 -184 447q-181 184 -445 184q-261 0 -442 -184q-182 -185 -182 -447q0 -260 182 -442q180 -180 442 -180
q265 0 445 180q184 181 184 442zM868 442q70 0 117 41.5t57 118.5l168 -18q-13 -123 -107 -197t-235 -74q-186 0 -281 110t-95 312t95 312t281 110q141 0 235 -73.5t107 -196.5l-168 -19q-10 77 -57 118.5t-117 41.5q-206 0 -206 -293t206 -293z" />
    <glyph glyph-name="ordfeminine" unicode="&#xaa;" horiz-adv-x="917" 
d="M336 791q106 0 164 94q24 37 30 127q-112 0 -186 -23q-62 -19 -80 -42t-18 -66q0 -90 90 -90zM774 838l62 -80q-38 -49 -66.5 -67.5t-69.5 -18.5q-117 0 -129 119q-94 -119 -268 -119q-102 0 -161.5 54.5t-59.5 143.5q0 247 448 250q2 18 2 68q-1 61 -31 82.5t-106 21.5
q-131 0 -143 -123l-141 21q0 84 51 135q83 90 246 90q294 0 294 -227q0 -2 -4 -166t-4 -184q0 -35 29 -35q21 0 51 35z" />
    <glyph glyph-name="guillemotleft" unicode="&#xab;" horiz-adv-x="1081" 
d="M1040 969l-290 -457l290 -457h-211l-307 457l307 457h211zM610 969l-291 -457l291 -457h-211l-307 457l307 457h211z" />
    <glyph glyph-name="logicalnot" unicode="&#xac;" horiz-adv-x="1017" 
d="M752 315v320h-629v174h772v-494h-143z" />
    <glyph glyph-name="uni00AD" unicode="&#xad;" horiz-adv-x="897" 
d="M764 594v-102h-631v102h631z" />
    <glyph glyph-name="registered" unicode="&#xae;" horiz-adv-x="1738" 
d="M1636 735q0 -316 -227 -540q-224 -224 -543 -224q-316 0 -540 224t-224 540q0 318 224 545t540 227q319 0 543 -227q227 -227 227 -545zM1495 735q0 263 -184 447q-181 184 -445 184q-261 0 -442 -184q-182 -185 -182 -447q0 -260 182 -442q180 -180 442 -180
q265 0 445 180q184 181 184 442zM702 1022v-234h201q141 0 141 115q0 119 -141 119h-201zM1143 578q25 -87 38 -108t44 -21q21 0 45 12l22 -99q-56 -30 -123 -30q-75 0 -112 45t-58 147q-21 88 -53 116t-117 28h-127v-312h-167v795h391q291 0 291 -229q0 -87 -55.5 -141.5
t-143.5 -73.5q95 -18 125 -129z" />
    <glyph glyph-name="overscore" unicode="&#xaf;" horiz-adv-x="987" 
d="M788 1362v-172h-589v172h589z" />
    <glyph glyph-name="degree" unicode="&#xb0;" horiz-adv-x="731" 
d="M219 1243q0 -61 45 -107t101 -46q60 0 103.5 45.5t43.5 107.5q0 57 -43.5 99t-103.5 42q-56 0 -101 -43t-45 -98zM102 1245q0 112 75 187t188 75t188.5 -75t75.5 -187q0 -117 -75.5 -193.5t-188.5 -76.5t-188 76.5t-75 193.5z" />
    <glyph glyph-name="plusminus" unicode="&#xb1;" horiz-adv-x="1183" 
d="M674 336h-160v326h-367v155h367v326h160v-326h366v-155h-366v-326zM1040 188v-155h-893v155h893z" />
    <glyph glyph-name="twosuperior" unicode="&#xb2;" horiz-adv-x="733" 
d="M324 815h286v-119h-483v90l201 197l26 25q24 22 52 53q22 26 36 61q15 38 15 80q0 92 -103 92q-55 -6 -74.5 -37t-27.5 -102l-129 23q4 112 65.5 174.5t165.5 62.5q110 0 182 -59.5t72 -147.5q0 -97 -61 -176q-56 -76 -223 -217z" />
    <glyph glyph-name="threesuperior" unicode="&#xb3;" horiz-adv-x="768" 
d="M293 1016l-76 69l186 187h-270v117h467v-84l-180 -166q100 0 162.5 -64t62.5 -157q0 -96 -80 -173q-79 -73 -192 -73q-100 0 -174 51q-76 52 -76 156l151 22q9 -110 99 -110q59 0 90 33t31 94q0 124 -117 124q-36 0 -84 -26z" />
    <glyph glyph-name="acute" unicode="&#xb4;" horiz-adv-x="772" 
d="M645 1456l-287 -326h-114l157 326h244z" />
    <glyph glyph-name="mu" unicode="&#xb5;" horiz-adv-x="1351" 
d="M0 211v168h143v133h-143v168h143v799h488q275 0 424 -126t149 -354q0 -229 -150.5 -358t-420.5 -129h-273v-133h482v-168h-482v-211h-217v211h-143zM360 1288v-608h283q172 0 252 92q82 94 82 227q0 135 -81 212t-253 77h-283z" />
    <glyph glyph-name="paragraph" unicode="&#xb6;" horiz-adv-x="1165" 
d="M1012 1479v-1479h-164v1288h-176v-1288h-164v696q-171 6 -289 101q-117 95 -117 288q0 87 27 157t70.5 113t102 72t117 40.5t120.5 11.5h473z" />
    <glyph glyph-name="middot" unicode="&#xb7;" horiz-adv-x="481" 
d="M123 680h235v-238h-235v238z" />
    <glyph glyph-name="cedilla" unicode="&#xb8;" horiz-adv-x="774" 
d="M231 -336l25 78q47 -35 104 -35q84 0 84 60q0 67 -159 67l47 166h129l-33 -102q63 -2 103 -38t40 -98t-49 -103.5t-133 -41.5q-81 0 -158 47z" />
    <glyph glyph-name="onesuperior" unicode="&#xb9;" horiz-adv-x="696" 
d="M317 1411h111v-598h145v-119h-450v119h153v420h-145v94q75 3 111.5 12.5t49 23.5t25.5 48z" />
    <glyph glyph-name="ordmasculine" unicode="&#xba;" horiz-adv-x="868" 
d="M694 778q-90 -106 -260 -106t-260 106q-92 109 -92 264q0 156 92 265q92 108 260 108t260 -108q92 -109 92 -265q0 -155 -92 -264zM614 1042q0 234 -180 234t-180 -234q0 -231 180 -231t180 231z" />
    <glyph glyph-name="guillemotright" unicode="&#xbb;" horiz-adv-x="1081" 
d="M682 55h-211l291 457l-291 457h211l307 -457zM252 55h-211l291 457l-291 457h211l307 -457z" />
    <glyph glyph-name="onequarter" unicode="&#xbc;" horiz-adv-x="1492" 
d="M1341 1386l-1019 -1386h-172l1021 1386h170zM317 1411h111v-598h145v-119h-450v119h153v420h-145v94q75 3 111.5 12.5t49 23.5t25.5 48zM1032 702h152q-27 -152 -76 -251.5t-150 -194.5h170v131l152 51v-182h111v-119h-111v-137h-152v137h-311v115q104 110 152.5 212.5
t62.5 237.5z" />
    <glyph glyph-name="onehalf" unicode="&#xbd;" horiz-adv-x="1490" 
d="M1341 1386l-1019 -1386h-172l1021 1386h170zM1081 119h287v-119h-483v90l200 197l27 24q10 9 51 54q24 28 37 61q14 35 14 80q0 92 -102 92q-55 -6 -74.5 -37t-27.5 -102l-129 22q4 112 65.5 175t165.5 63q110 0 182 -59.5t72 -147.5q0 -97 -61 -176q-54 -74 -224 -217z
M317 1411h111v-598h145v-119h-450v119h153v420h-145v94q75 3 111.5 12.5t49 23.5t25.5 48z" />
    <glyph glyph-name="threequarters" unicode="&#xbe;" horiz-adv-x="1597" 
d="M1434 1386l-1020 -1386h-172l1022 1386h170zM293 1016l-76 69l186 187h-270v117h467v-84l-180 -166q100 0 162.5 -64t62.5 -157q0 -96 -80 -173q-79 -73 -192 -73q-100 0 -174 51q-76 52 -76 156l151 22q9 -110 99 -110q59 0 90 33t31 94q0 124 -117 124q-36 0 -84 -26z
M1137 702h151q-27 -152 -75.5 -251.5t-149.5 -194.5h170v131l151 51v-182h111v-119h-111v-137h-151v137h-311v115q104 110 152.5 212.5t62.5 237.5z" />
    <glyph glyph-name="questiondown" unicode="&#xbf;" horiz-adv-x="1021" 
d="M82 -201q0 56 12 102t27.5 75t46.5 59t52 45t61 41l98 74q50 39 83.5 110t39.5 164h96q10 -65 10 -125q0 -89 -30 -159t-78 -115q-17 -16 -53.5 -45.5t-56.5 -48.5t-44.5 -47.5t-35.5 -60.5t-11 -69q0 -79 51.5 -128.5t151.5 -49.5q200 0 200 221h218q0 -188 -105 -299.5
t-313 -111.5q-214 0 -318 110q-102 108 -102 258zM668 700h-236v238h236v-238z" />
    <glyph glyph-name="Agrave" unicode="&#xc0;" horiz-adv-x="1374" 
d="M1343 0h-231l-129 356h-618l-129 -356h-205l549 1479h215zM913 547l-241 659l-240 -659h481zM729 1997l158 -326h-115l-287 326h244z" />
    <glyph glyph-name="Aacute" unicode="&#xc1;" horiz-adv-x="1374" 
d="M1343 0h-231l-129 356h-618l-129 -356h-205l549 1479h215zM913 547l-241 659l-240 -659h481zM948 1997l-286 -326h-115l158 326h243z" />
    <glyph glyph-name="Acircumflex" unicode="&#xc2;" horiz-adv-x="1374" 
d="M1343 0h-231l-129 356h-618l-129 -356h-205l549 1479h215zM913 547l-241 659l-240 -659h481zM686 1858l-184 -187h-115l199 326h202l199 -326h-115z" />
    <glyph glyph-name="Atilde" unicode="&#xc3;" horiz-adv-x="1374" 
d="M1343 0h-231l-129 356h-618l-129 -356h-205l549 1479h215zM913 547l-241 659l-240 -659h481zM582 1937q66 0 123 -45t88 -45q66 0 125 90l83 -55q-49 -107 -92.5 -148.5t-115.5 -41.5q-69 0 -129 45q-59 47 -82 47q-68 0 -127 -92l-84 57q48 106 92.5 147t118.5 41z" />
    <glyph glyph-name="Adieresis" unicode="&#xc4;" horiz-adv-x="1374" 
d="M1343 0h-231l-129 356h-618l-129 -356h-205l549 1479h215zM913 547l-241 659l-240 -659h481zM782 1913h199v-225h-199v225zM393 1913h199v-225h-199v225z" />
    <glyph glyph-name="Aring" unicode="&#xc5;" horiz-adv-x="1374" 
d="M1343 0h-231l-129 356h-618l-129 -356h-205l549 1479h215zM913 547l-241 659l-240 -659h481zM686 1919q-33 0 -57.5 -23.5t-24.5 -58.5t24.5 -60.5t57.5 -25.5t57.5 25.5t24.5 60.5t-23.5 58.5t-58.5 23.5zM567 1716q-47 50 -47 121.5t47 118.5q47 50 119 50t119 -50
q48 -47 47.5 -119t-49.5 -121q-47 -50 -117 -50t-119 50z" />
    <glyph glyph-name="AE" unicode="&#xc6;" horiz-adv-x="2109" 
d="M1987 664h-678v-474h719v-190h-936v356h-603l-253 -356h-226l1082 1479h895v-191h-678v-434h678v-190zM1090 547v639l-463 -639h463z" />
    <glyph glyph-name="Ccedilla" unicode="&#xc7;" horiz-adv-x="1370" 
d="M514 -336l25 78q47 -35 104 -35q84 0 84 60q0 67 -160 67l41 146q-251 33 -388.5 225t-137.5 526q0 367 164.5 571.5t470.5 204.5q211 0 377 -110q87 -58 140 -167t60 -255l-223 -29q-15 371 -354 371q-212 0 -312 -140t-100 -446q0 -307 109 -440q108 -129 303 -129
q159 0 253 98t101 293l223 -29q-7 -117 -42.5 -211.5t-89.5 -156t-126 -103.5t-147 -61t-156 -21l-22 -73q63 -2 103 -38t40 -98t-49 -103.5t-133 -41.5q-81 0 -158 47z" />
    <glyph glyph-name="Egrave" unicode="&#xc8;" horiz-adv-x="1161" 
d="M1018 664h-658v-474h719v-190h-936v1479h934v-191h-717v-434h658v-190zM623 1997l157 -326h-114l-287 326h244z" />
    <glyph glyph-name="Eacute" unicode="&#xc9;" horiz-adv-x="1161" 
d="M1018 664h-658v-474h719v-190h-936v1479h934v-191h-717v-434h658v-190zM821 1997l-286 -326h-115l158 326h243z" />
    <glyph glyph-name="Ecircumflex" unicode="&#xca;" horiz-adv-x="1161" 
d="M1018 664h-658v-474h719v-190h-936v1479h934v-191h-717v-434h658v-190zM580 1858l-185 -187h-114l198 326h203l199 -326h-115z" />
    <glyph glyph-name="Edieresis" unicode="&#xcb;" horiz-adv-x="1161" 
d="M1018 664h-658v-474h719v-190h-936v1479h934v-191h-717v-434h658v-190zM676 1913h198v-225h-198v225zM287 1913h198v-225h-198v225z" />
    <glyph glyph-name="Igrave" unicode="&#xcc;" 
d="M143 1479h217v-1479h-217v1479zM295 1997l158 -326h-115l-287 326h244z" />
    <glyph glyph-name="Iacute" unicode="&#xcd;" 
d="M143 1479h217v-1479h-217v1479zM494 1997l-287 -326h-115l158 326h244z" />
    <glyph glyph-name="Icircumflex" unicode="&#xce;" 
d="M252 1858l-143 -187h-115l158 326h202l158 -326h-115zM143 1479h217v-1479h-217v1479z" />
    <glyph glyph-name="Idieresis" unicode="&#xcf;" 
d="M143 1479h217v-1479h-217v1479zM348 1913h199v-225h-199v225zM-41 1913h199v-225h-199v225z" />
    <glyph glyph-name="Eth" unicode="&#xd0;" horiz-adv-x="1402" 
d="M143 854v625h535q309 0 477 -213q166 -211 166 -527q0 -206 -70 -368q-71 -169 -223.5 -270t-357.5 -101h-527v664h-143v190h143zM360 664v-474h275q230 0 346 152q117 150 117 397q0 249 -113 398q-112 151 -342 151h-283v-434h332v-190h-332z" />
    <glyph glyph-name="Ntilde" unicode="&#xd1;" horiz-adv-x="1439" 
d="M1296 0h-262l-692 1159h-8v-1159h-191v1479h263l692 -1160h8v1160h190v-1479zM614 1937q66 0 123 -45t88 -45q66 0 125 90l84 -55q-48 -107 -92.5 -148.5t-116.5 -41.5q-69 0 -129 45q-59 47 -82 47q-68 0 -127 -92l-84 57q48 106 92.5 147t118.5 41z" />
    <glyph glyph-name="Ograve" unicode="&#xd2;" horiz-adv-x="1548" 
d="M1466 739q0 -347 -186 -557q-184 -211 -506 -211q-321 0 -508 211q-184 211 -184 557t184 557q187 211 508 211q320 0 506 -213q186 -210 186 -555zM1120 319q123 159 123 420q0 262 -123 418q-121 160 -346 160q-224 0 -348 -160q-121 -157 -121 -418q0 -260 121 -420
q124 -157 348 -157q225 0 346 157zM817 1997l158 -326h-115l-287 326h244z" />
    <glyph glyph-name="Oacute" unicode="&#xd3;" horiz-adv-x="1548" 
d="M1466 739q0 -347 -186 -557q-184 -211 -506 -211q-321 0 -508 211q-184 211 -184 557t184 557q187 211 508 211q320 0 506 -213q186 -210 186 -555zM1120 319q123 159 123 420q0 262 -123 418q-121 160 -346 160q-224 0 -348 -160q-121 -157 -121 -418q0 -260 121 -420
q124 -157 348 -157q225 0 346 157zM1016 1997l-287 -326h-115l158 326h244z" />
    <glyph glyph-name="Ocircumflex" unicode="&#xd4;" horiz-adv-x="1548" 
d="M1466 739q0 -347 -186 -557q-184 -211 -506 -211q-321 0 -508 211q-184 211 -184 557t184 557q187 211 508 211q320 0 506 -213q186 -210 186 -555zM1120 319q123 159 123 420q0 262 -123 418q-121 160 -346 160q-224 0 -348 -160q-121 -157 -121 -418q0 -260 121 -420
q124 -157 348 -157q225 0 346 157zM772 1858l-184 -187h-115l199 326h202l199 -326h-115z" />
    <glyph glyph-name="Otilde" unicode="&#xd5;" horiz-adv-x="1548" 
d="M1466 739q0 -347 -186 -557q-184 -211 -506 -211q-321 0 -508 211q-184 211 -184 557t184 557q187 211 508 211q320 0 506 -213q186 -210 186 -555zM1120 319q123 159 123 420q0 262 -123 418q-121 160 -346 160q-224 0 -348 -160q-121 -157 -121 -418q0 -260 121 -420
q124 -157 348 -157q225 0 346 157zM670 1937q66 0 123 -45t88 -45q66 0 125 90l84 -55q-48 -107 -92.5 -148.5t-116.5 -41.5q-69 0 -129 45q-59 47 -82 47q-68 0 -127 -92l-84 57q48 106 92.5 147t118.5 41z" />
    <glyph glyph-name="Odieresis" unicode="&#xd6;" horiz-adv-x="1548" 
d="M1466 739q0 -347 -186 -557q-184 -211 -506 -211q-321 0 -508 211q-184 211 -184 557t184 557q187 211 508 211q320 0 506 -213q186 -210 186 -555zM1120 319q123 159 123 420q0 262 -123 418q-121 160 -346 160q-224 0 -348 -160q-121 -157 -121 -418q0 -260 121 -420
q124 -157 348 -157q225 0 346 157zM868 1913h199v-225h-199v225zM479 1913h199v-225h-199v225z" />
    <glyph glyph-name="multiply" unicode="&#xd7;" horiz-adv-x="1183" 
d="M903 254l-311 313l-311 -313l-107 106l309 316l-309 311l107 107l311 -310l311 310l107 -107l-310 -311l310 -316z" />
    <glyph glyph-name="Oslash" unicode="&#xd8;" horiz-adv-x="1548" 
d="M379 84l-64 -84h-192l139 186q-180 207 -180 553t184 557q187 211 508 211q224 0 391 -112l64 84h196l-141 -189q182 -206 182 -551q0 -347 -186 -557q-184 -211 -506 -211q-233 0 -395 113zM1243 739q0 225 -92 373l-649 -866q116 -84 272 -84q225 0 346 157
q123 159 123 420zM305 739q0 -221 90 -374l649 868q-116 84 -270 84q-224 0 -348 -160q-121 -157 -121 -418z" />
    <glyph glyph-name="Ugrave" unicode="&#xd9;" horiz-adv-x="1353" 
d="M1051 504v975h190v-975q0 -244 -151 -389q-150 -144 -412 -144q-264 0 -414 144q-151 145 -151 389v975h217v-975q0 -162 97 -252t263 -90t263.5 91t97.5 251zM719 1997l158 -326h-115l-287 326h244z" />
    <glyph glyph-name="Uacute" unicode="&#xda;" horiz-adv-x="1353" 
d="M1051 504v975h190v-975q0 -244 -151 -389q-150 -144 -412 -144q-264 0 -414 144q-151 145 -151 389v975h217v-975q0 -162 97 -252t263 -90t263.5 91t97.5 251zM918 1997l-287 -326h-115l158 326h244z" />
    <glyph glyph-name="Ucircumflex" unicode="&#xdb;" horiz-adv-x="1353" 
d="M1051 504v975h190v-975q0 -244 -151 -389q-150 -144 -412 -144q-264 0 -414 144q-151 145 -151 389v975h217v-975q0 -162 97 -252t263 -90t263.5 91t97.5 251zM676 1858l-184 -187h-115l198 326h203l199 -326h-115z" />
    <glyph glyph-name="Udieresis" unicode="&#xdc;" horiz-adv-x="1353" 
d="M1051 504v975h190v-975q0 -244 -151 -389q-150 -144 -412 -144q-264 0 -414 144q-151 145 -151 389v975h217v-975q0 -162 97 -252t263 -90t263.5 91t97.5 251zM772 1913h199v-225h-199v225zM383 1913h199v-225h-199v225z" />
    <glyph glyph-name="Yacute" unicode="&#xdd;" horiz-adv-x="1236" 
d="M991 1479h215l-479 -895v-584h-217v584l-479 895h248l356 -668zM860 1997l-287 -326h-114l157 326h244z" />
    <glyph glyph-name="Thorn" unicode="&#xde;" horiz-adv-x="1275" 
d="M633 307h-273v-307h-217v1479h217v-205h271q276 0 424.5 -125.5t148.5 -353.5q0 -229 -151 -358.5t-420 -129.5zM360 1083v-585h283q165 0 249.5 85t84.5 222q0 278 -334 278h-283z" />
    <glyph glyph-name="germandbls" unicode="&#xdf;" horiz-adv-x="1294" 
d="M420 979v-979h-199v981q0 268 105.5 397t322.5 129q213 0 327 -100.5t114 -265.5q0 -265 -246 -330q167 -9 274 -125q105 -114 105 -283q0 -206 -102.5 -319t-305.5 -113q-140 0 -213.5 69t-73.5 177q0 38 11 80l180 -21q-10 -33 -10 -51q0 -43 28 -66.5t78 -23.5
q205 0 205 268q0 297 -404 297v164q271 15 271 250q0 95 -59 149t-179 54q-105 0 -167 -88t-62 -250z" />
    <glyph glyph-name="agrave" unicode="&#xe0;" horiz-adv-x="1093" 
d="M653 248q22 36 29 70t12 122q-426 0 -426 -192q0 -62 38.5 -100.5t105.5 -38.5q70 0 134.5 36t106.5 103zM1008 170l69 -90q-50 -63 -84.5 -86t-87.5 -23q-76 0 -121 44t-51 132q-114 -176 -371 -176q-135 0 -212.5 70.5t-77.5 189.5q0 149 143 240q143 94 479 94
q4 102 4 103q-1 89 -48.5 122t-160.5 33q-198 0 -213 -174l-165 29q0 66 26 118t66.5 83t94.5 51.5t105.5 28.5t104.5 8q391 0 391 -301q0 -58 -6 -234q-4 -234 -4 -250q0 -57 49 -57q31 0 70 45zM543 1456l157 -326h-114l-287 326h244z" />
    <glyph glyph-name="aacute" unicode="&#xe1;" horiz-adv-x="1093" 
d="M653 248q22 36 29 70t12 122q-426 0 -426 -192q0 -62 38.5 -100.5t105.5 -38.5q70 0 134.5 36t106.5 103zM1008 170l69 -90q-50 -63 -84.5 -86t-87.5 -23q-76 0 -121 44t-51 132q-114 -176 -371 -176q-135 0 -212.5 70.5t-77.5 189.5q0 149 143 240q143 94 479 94
q4 102 4 103q-1 89 -48.5 122t-160.5 33q-198 0 -213 -174l-165 29q0 66 26 118t66.5 83t94.5 51.5t105.5 28.5t104.5 8q391 0 391 -301q0 -58 -6 -234q-4 -234 -4 -250q0 -57 49 -57q31 0 70 45zM782 1456l-286 -326h-115l158 326h243z" />
    <glyph glyph-name="acircumflex" unicode="&#xe2;" horiz-adv-x="1093" 
d="M653 248q22 36 29 70t12 122q-426 0 -426 -192q0 -62 38.5 -100.5t105.5 -38.5q70 0 134.5 36t106.5 103zM1008 170l69 -90q-50 -63 -84.5 -86t-87.5 -23q-76 0 -121 44t-51 132q-114 -176 -371 -176q-135 0 -212.5 70.5t-77.5 189.5q0 149 143 240q143 94 479 94
q4 102 4 103q-1 89 -48.5 122t-160.5 33q-198 0 -213 -174l-165 29q0 66 26 118t66.5 83t94.5 51.5t105.5 28.5t104.5 8q391 0 391 -301q0 -58 -6 -234q-4 -234 -4 -250q0 -57 49 -57q31 0 70 45zM539 1317l-185 -187h-114l198 326h203l199 -326h-115z" />
    <glyph glyph-name="atilde" unicode="&#xe3;" horiz-adv-x="1093" 
d="M653 248q22 36 29 70t12 122q-426 0 -426 -192q0 -62 38.5 -100.5t105.5 -38.5q70 0 134.5 36t106.5 103zM1008 170l69 -90q-50 -63 -84.5 -86t-87.5 -23q-76 0 -121 44t-51 132q-114 -176 -371 -176q-135 0 -212.5 70.5t-77.5 189.5q0 149 143 240q143 94 479 94
q4 102 4 103q-1 89 -48.5 122t-160.5 33q-198 0 -213 -174l-165 29q0 66 26 118t66.5 83t94.5 51.5t105.5 28.5t104.5 8q391 0 391 -301q0 -58 -6 -234q-4 -234 -4 -250q0 -57 49 -57q31 0 70 45zM418 1397q66 0 123 -45t88 -45q66 0 125 90l84 -56q-48 -107 -92.5 -148.5
t-116.5 -41.5q-69 0 -129 45q-59 47 -82 47q-68 0 -127 -92l-84 57q48 107 93 148t118 41z" />
    <glyph glyph-name="adieresis" unicode="&#xe4;" horiz-adv-x="1093" 
d="M653 248q22 36 29 70t12 122q-426 0 -426 -192q0 -62 38.5 -100.5t105.5 -38.5q70 0 134.5 36t106.5 103zM1008 170l69 -90q-50 -63 -84.5 -86t-87.5 -23q-76 0 -121 44t-51 132q-114 -176 -371 -176q-135 0 -212.5 70.5t-77.5 189.5q0 149 143 240q143 94 479 94
q4 102 4 103q-1 89 -48.5 122t-160.5 33q-198 0 -213 -174l-165 29q0 66 26 118t66.5 83t94.5 51.5t105.5 28.5t104.5 8q391 0 391 -301q0 -58 -6 -234q-4 -234 -4 -250q0 -57 49 -57q31 0 70 45zM635 1372h199v-225h-199v225zM246 1372h198v-225h-198v225z" />
    <glyph glyph-name="aring" unicode="&#xe5;" horiz-adv-x="1093" 
d="M653 248q22 36 29 70t12 122q-426 0 -426 -192q0 -62 38.5 -100.5t105.5 -38.5q70 0 134.5 36t106.5 103zM1008 170l69 -90q-50 -63 -84.5 -86t-87.5 -23q-76 0 -121 44t-51 132q-114 -176 -371 -176q-135 0 -212.5 70.5t-77.5 189.5q0 149 143 240q143 94 479 94
q4 102 4 103q-1 89 -48.5 122t-160.5 33q-198 0 -213 -174l-165 29q0 66 26 118t66.5 83t94.5 51.5t105.5 28.5t104.5 8q391 0 391 -301q0 -58 -6 -234q-4 -234 -4 -250q0 -57 49 -57q31 0 70 45zM541 1378q-33 0 -57.5 -23.5t-24.5 -58.5t24.5 -60.5t57.5 -25.5t57.5 25.5
t24.5 60.5t-23.5 58.5t-58.5 23.5zM422 1176q-47 50 -47 121t47 118q47 49 118.5 49t118.5 -49q48 -47 47.5 -118.5t-49.5 -120.5q-47 -50 -116 -50t-119 50z" />
    <glyph glyph-name="ae" unicode="&#xe6;" horiz-adv-x="1634" 
d="M1556 418h-659q0 -283 254 -283q106 0 152.5 39t60.5 137l176 -20q-17 -149 -120.5 -234.5t-268.5 -85.5q-255 0 -369 209q-138 -209 -420 -209q-135 0 -212.5 70.5t-77.5 189.5q0 149 143 240q143 94 479 94q4 102 4 103q-1 89 -48.5 122t-160.5 33q-198 0 -213 -174
l-165 29q0 66 26 118t66.5 83t94.5 51.5t105.5 28.5t104.5 8q234 0 323 -127q103 127 306 127q206 0 312.5 -140t106.5 -409zM653 248q22 36 29 70t12 122q-426 0 -426 -192q0 -62 38.5 -100.5t105.5 -38.5q70 0 134.5 36t106.5 103zM1135 823q-111 0 -169.5 -55.5
t-68.5 -177.5v-19h453q-9 252 -215 252z" />
    <glyph glyph-name="ccedilla" unicode="&#xe7;" horiz-adv-x="999" 
d="M313 -336l25 78q47 -35 104 -35q84 0 84 60q0 67 -159 67l41 150q-326 65 -326 485q0 238 112 368t330 130q169 0 280 -86.5t124 -233.5l-197 -20q-12 90 -67.5 138t-139.5 48q-243 0 -243 -344t243 -344q84 0 139.5 48t67.5 138l197 -20q-13 -144 -121.5 -229.5
t-274.5 -90.5l-22 -73q63 -2 103 -38t40 -98t-49 -103.5t-133 -41.5q-81 0 -158 47z" />
    <glyph glyph-name="egrave" unicode="&#xe8;" horiz-adv-x="1021" 
d="M944 418h-659q0 -283 254 -283q106 0 152.5 39t60.5 137l176 -20q-17 -149 -120.5 -234.5t-268.5 -85.5q-220 0 -338.5 131.5t-118.5 366.5q0 233 113 365.5t329 132.5q207 0 313.5 -140t106.5 -409zM522 823q-114 0 -172.5 -60t-64.5 -192h452q-9 252 -215 252z
M553 1456l158 -326h-115l-287 326h244z" />
    <glyph glyph-name="eacute" unicode="&#xe9;" horiz-adv-x="1021" 
d="M944 418h-659q0 -283 254 -283q106 0 152.5 39t60.5 137l176 -20q-17 -149 -120.5 -234.5t-268.5 -85.5q-220 0 -338.5 131.5t-118.5 366.5q0 233 113 365.5t329 132.5q207 0 313.5 -140t106.5 -409zM522 823q-114 0 -172.5 -60t-64.5 -192h452q-9 252 -215 252z
M752 1456l-287 -326h-115l158 326h244z" />
    <glyph glyph-name="ecircumflex" unicode="&#xea;" horiz-adv-x="1021" 
d="M944 418h-659q0 -283 254 -283q106 0 152.5 39t60.5 137l176 -20q-17 -149 -120.5 -234.5t-268.5 -85.5q-220 0 -338.5 131.5t-118.5 366.5q0 233 113 365.5t329 132.5q207 0 313.5 -140t106.5 -409zM522 823q-114 0 -172.5 -60t-64.5 -192h452q-9 252 -215 252z
M510 1317l-184 -187h-115l199 326h202l199 -326h-115z" />
    <glyph glyph-name="edieresis" unicode="&#xeb;" horiz-adv-x="1021" 
d="M944 418h-659q0 -283 254 -283q106 0 152.5 39t60.5 137l176 -20q-17 -149 -120.5 -234.5t-268.5 -85.5q-220 0 -338.5 131.5t-118.5 366.5q0 233 113 365.5t329 132.5q207 0 313.5 -140t106.5 -409zM522 823q-114 0 -172.5 -60t-64.5 -192h452q-9 252 -215 252z
M606 1372h199v-225h-199v225zM217 1372h199v-225h-199v225z" />
    <glyph glyph-name="igrave" unicode="&#xec;" horiz-adv-x="444" 
d="M123 938h199v-938h-199v938zM266 1456l158 -326h-115l-286 326h243z" />
    <glyph glyph-name="iacute" unicode="&#xed;" horiz-adv-x="444" 
d="M123 938h199v-938h-199v938zM465 1456l-287 -326h-115l158 326h244z" />
    <glyph glyph-name="icircumflex" unicode="&#xee;" horiz-adv-x="444" 
d="M221 1317l-125 -187h-102l137 326h182l138 -326h-103zM123 938h199v-938h-199v938z" />
    <glyph glyph-name="idieresis" unicode="&#xef;" horiz-adv-x="444" 
d="M268 1372h178v-225h-178v225zM0 1372h178v-225h-178v225zM123 938h199v-938h-199v938z" />
    <glyph glyph-name="eth" unicode="&#xf0;" horiz-adv-x="1259" 
d="M424 1604h123v-127q97 0 180 -25t143 -68t107.5 -104t78 -128.5t50 -145t27.5 -150.5t8 -147q0 -216 -49 -373q-49 -166 -169.5 -265.5t-297.5 -99.5q-224 0 -367 140q-139 139 -139 374q0 187 125 324t338 137q233 0 336 -121q-10 92 -35.5 175t-68 157.5t-111.5 119
t-156 44.5v-160h-123v139q-68 -23 -125 -71l-76 121q77 71 201 108v146zM625 135q132 0 209 101.5t77 263.5q0 125 -84 209q-83 86 -217 86q-122 0 -198 -86t-76 -222q0 -173 79.5 -262.5t209.5 -89.5z" />
    <glyph glyph-name="ntilde" unicode="&#xf1;" horiz-adv-x="1099" 
d="M123 938h192v-197q50 107 147 166.5t210 59.5q130 0 223 -84q92 -83 92 -236v-647h-199v582q0 105 -47 161t-125 56q-105 0 -200 -92q-94 -91 -94 -224v-483h-199v938zM444 1397q66 0 123 -45t88 -45q66 0 125 90l84 -56q-48 -107 -92.5 -148.5t-116.5 -41.5
q-69 0 -129 45q-59 47 -82 47q-68 0 -127 -92l-84 57q48 107 93 148t118 41z" />
    <glyph glyph-name="ograve" unicode="&#xf2;" horiz-adv-x="1101" 
d="M897 115q-123 -144 -346 -144t-346 144t-123 354t123 354t346 144t346 -144t123 -354t-123 -354zM354 217q70 -82 197 -82t197 82q69 81 69 252q0 169 -69 250q-72 84 -197 84t-197 -84q-69 -81 -69 -250q0 -171 69 -252zM594 1456l158 -326h-115l-287 326h244z" />
    <glyph glyph-name="oacute" unicode="&#xf3;" horiz-adv-x="1101" 
d="M897 115q-123 -144 -346 -144t-346 144t-123 354t123 354t346 144t346 -144t123 -354t-123 -354zM354 217q70 -82 197 -82t197 82q69 81 69 252q0 169 -69 250q-72 84 -197 84t-197 -84q-69 -81 -69 -250q0 -171 69 -252zM793 1456l-287 -326h-115l158 326h244z" />
    <glyph glyph-name="ocircumflex" unicode="&#xf4;" horiz-adv-x="1101" 
d="M897 115q-123 -144 -346 -144t-346 144t-123 354t123 354t346 144t346 -144t123 -354t-123 -354zM354 217q70 -82 197 -82t197 82q69 81 69 252q0 169 -69 250q-72 84 -197 84t-197 -84q-69 -81 -69 -250q0 -171 69 -252zM549 1317l-184 -187h-115l199 326h202l199 -326
h-115z" />
    <glyph glyph-name="otilde" unicode="&#xf5;" horiz-adv-x="1101" 
d="M897 115q-123 -144 -346 -144t-346 144t-123 354t123 354t346 144t346 -144t123 -354t-123 -354zM354 217q70 -82 197 -82t197 82q69 81 69 252q0 169 -69 250q-72 84 -197 84t-197 -84q-69 -81 -69 -250q0 -171 69 -252zM446 1397q66 0 123 -45t88 -45q66 0 125 90
l84 -56q-48 -107 -92.5 -148.5t-116.5 -41.5q-69 0 -129 45q-59 47 -82 47q-68 0 -127 -92l-83 57q48 107 92.5 148t117.5 41z" />
    <glyph glyph-name="odieresis" unicode="&#xf6;" horiz-adv-x="1101" 
d="M897 115q-123 -144 -346 -144t-346 144t-123 354t123 354t346 144t346 -144t123 -354t-123 -354zM354 217q70 -82 197 -82t197 82q69 81 69 252q0 169 -69 250q-72 84 -197 84t-197 -84q-69 -81 -69 -250q0 -171 69 -252zM645 1372h199v-225h-199v225zM256 1372h199v-225
h-199v225z" />
    <glyph glyph-name="divide" unicode="&#xf7;" horiz-adv-x="1183" 
d="M1040 754v-156h-893v156h893zM479 465h232v-234h-232v234zM479 1126h232v-233h-232v233z" />
    <glyph glyph-name="oslash" unicode="&#xf8;" horiz-adv-x="1101" 
d="M276 51l-43 -51h-151l108 131q-108 132 -108 338q0 210 123 354t346 144q156 0 272 -78l41 49h156l-111 -131q111 -135 111 -338q0 -210 -123 -354t-346 -144q-160 0 -275 80zM551 135q129 0 197.5 84.5t68.5 249.5q0 115 -33 188l-397 -473q64 -49 164 -49zM285 469
q0 -113 30 -186l396 471q-64 49 -160 49q-129 0 -197.5 -84.5t-68.5 -249.5z" />
    <glyph glyph-name="ugrave" unicode="&#xf9;" horiz-adv-x="1099" 
d="M977 938v-938h-193v195q-50 -106 -147 -165t-209 -59q-132 0 -223 82q-92 83 -92 238v647h198v-582q0 -105 47 -161t125 -56q106 0 201 92q94 91 94 224v483h199zM592 1456l158 -326h-115l-287 326h244z" />
    <glyph glyph-name="uacute" unicode="&#xfa;" horiz-adv-x="1099" 
d="M977 938v-938h-193v195q-50 -106 -147 -165t-209 -59q-132 0 -223 82q-92 83 -92 238v647h198v-582q0 -105 47 -161t125 -56q106 0 201 92q94 91 94 224v483h199zM791 1456l-287 -326h-115l158 326h244z" />
    <glyph glyph-name="ucircumflex" unicode="&#xfb;" horiz-adv-x="1099" 
d="M977 938v-938h-193v195q-50 -106 -147 -165t-209 -59q-132 0 -223 82q-92 83 -92 238v647h198v-582q0 -105 47 -161t125 -56q106 0 201 92q94 91 94 224v483h199zM549 1317l-184 -187h-115l199 326h202l199 -326h-115z" />
    <glyph glyph-name="udieresis" unicode="&#xfc;" horiz-adv-x="1099" 
d="M977 938v-938h-193v195q-50 -106 -147 -165t-209 -59q-132 0 -223 82q-92 83 -92 238v647h198v-582q0 -105 47 -161t125 -56q106 0 201 92q94 91 94 224v483h199zM645 1372h199v-225h-199v225zM256 1372h199v-225h-199v225z" />
    <glyph glyph-name="yacute" unicode="&#xfd;" horiz-adv-x="1007" 
d="M795 938h182l-328 -999q-67 -205 -133 -277t-186 -72q-107 0 -170.5 51.5t-63.5 147.5q0 43 19 98l180 -20q-14 -49 -14 -82q0 -61 63 -61q75 0 115 202l-418 1012h211l305 -764zM745 1456l-286 -326h-115l158 326h243z" />
    <glyph glyph-name="thorn" unicode="&#xfe;" horiz-adv-x="1130" 
d="M322 143v-528h-199v1864h199v-664q122 152 296 152q207 0 318 -144q113 -140 113 -354q0 -209 -109 -354q-108 -144 -301 -144q-238 0 -317 172zM322 477q0 -160 69.5 -251t186.5 -91q124 0 196 85.5t72 256.5q0 326 -262 326q-119 0 -190.5 -86.5t-71.5 -239.5z" />
    <glyph glyph-name="ydieresis" unicode="&#xff;" horiz-adv-x="1007" 
d="M795 938h182l-328 -999q-67 -205 -133 -277t-186 -72q-107 0 -170.5 51.5t-63.5 147.5q0 43 19 98l180 -20q-14 -49 -14 -82q0 -61 63 -61q75 0 115 202l-418 1012h211l305 -764zM600 1372h199v-225h-199v225zM211 1372h199v-225h-199v225z" />
    <glyph glyph-name="Amacron" unicode="&#x100;" horiz-adv-x="1374" 
d="M1343 0h-231l-129 356h-618l-129 -356h-205l549 1479h215zM913 547l-241 659l-240 -659h481zM981 1903v-172h-590v172h590z" />
    <glyph glyph-name="amacron" unicode="&#x101;" horiz-adv-x="1093" 
d="M653 248q22 36 29 70t12 122q-426 0 -426 -192q0 -62 38.5 -100.5t105.5 -38.5q70 0 134.5 36t106.5 103zM1008 170l69 -90q-50 -63 -84.5 -86t-87.5 -23q-76 0 -121 44t-51 132q-114 -176 -371 -176q-135 0 -212.5 70.5t-77.5 189.5q0 149 143 240q143 94 479 94
q4 102 4 103q-1 89 -48.5 122t-160.5 33q-198 0 -213 -174l-165 29q0 66 26 118t66.5 83t94.5 51.5t105.5 28.5t104.5 8q391 0 391 -301q0 -58 -6 -234q-4 -234 -4 -250q0 -57 49 -57q31 0 70 45zM842 1362v-172h-590v172h590z" />
    <glyph glyph-name="Aogonek" unicode="&#x104;" horiz-adv-x="1374" 
d="M1112 0l-129 356h-618l-129 -356h-205l549 1479h215l548 -1479q-88 -35 -148 -89.5t-60 -98.5q0 -60 75 -60q50 0 103 27l30 -68q-84 -69 -208 -69q-76 0 -117 42t-41 113q0 121 135 203zM913 547l-241 659l-240 -659h481z" />
    <glyph glyph-name="aogonek" unicode="&#x105;" horiz-adv-x="1093" 
d="M1008 170l69 -90q-23 -29 -98 -78q-89 -57 -137.5 -102t-48.5 -88q0 -60 75 -60q50 0 103 27l30 -68q-84 -69 -208 -69q-76 0 -117 42t-41 113q0 130 170 201q-66 45 -72 149q-114 -176 -371 -176q-135 0 -212.5 70.5t-77.5 189.5q0 149 143 240q143 94 479 94
q4 102 4 103q-1 89 -48.5 122t-160.5 33q-198 0 -213 -174l-165 29q0 66 26 118t66.5 83t94.5 51.5t105.5 28.5t104.5 8q391 0 391 -301q0 -58 -6 -234q-4 -234 -4 -250q0 -57 49 -57q31 0 70 45zM653 248q22 36 29 70t12 122q-426 0 -426 -192q0 -62 38.5 -100.5
t105.5 -38.5q70 0 134.5 36t106.5 103z" />
    <glyph glyph-name="Cacute" unicode="&#x106;" horiz-adv-x="1370" 
d="M717 1317q-212 0 -312 -140t-100 -446q0 -307 109 -440q108 -129 303 -129q159 0 253 98t101 293l223 -29q-7 -146 -60 -258t-140 -174q-167 -121 -377 -121q-299 0 -467 195t-168 565q0 367 164.5 571.5t470.5 204.5q211 0 377 -110q87 -58 140 -167t60 -255l-223 -29
q-15 371 -354 371zM1008 1997l-287 -326h-115l158 326h244z" />
    <glyph glyph-name="cacute" unicode="&#x107;" horiz-adv-x="999" 
d="M524 125q84 0 139.5 48t67.5 138l197 -20q-13 -147 -124 -233.5t-280 -86.5q-218 0 -330 130t-112 368t112 368t330 130q169 0 280 -86.5t124 -233.5l-197 -20q-12 90 -67.5 138t-139.5 48q-243 0 -243 -344t243 -344zM803 1456l-287 -326h-115l158 326h244z" />
    <glyph glyph-name="Ccaron" unicode="&#x10c;" horiz-adv-x="1370" 
d="M717 1317q-212 0 -312 -140t-100 -446q0 -307 109 -440q108 -129 303 -129q159 0 253 98t101 293l223 -29q-7 -146 -60 -258t-140 -174q-167 -121 -377 -121q-299 0 -467 195t-168 565q0 367 164.5 571.5t470.5 204.5q211 0 377 -110q87 -58 140 -167t60 -255l-223 -29
q-15 371 -354 371zM625 1671l-199 326h115l184 -187l186 187h115l-199 -326h-202z" />
    <glyph glyph-name="ccaron" unicode="&#x10d;" horiz-adv-x="999" 
d="M524 125q84 0 139.5 48t67.5 138l197 -20q-13 -147 -124 -233.5t-280 -86.5q-218 0 -330 130t-112 368t112 368t330 130q169 0 280 -86.5t124 -233.5l-197 -20q-12 90 -67.5 138t-139.5 48q-243 0 -243 -344t243 -344zM438 1130l-198 326h114l185 -186l186 186h115
l-199 -326h-203z" />
    <glyph glyph-name="Dcaron" unicode="&#x10e;" horiz-adv-x="1402" 
d="M143 0v1479h535q309 0 477 -213q166 -211 166 -527q0 -206 -70 -368q-71 -169 -223.5 -270t-357.5 -101h-527zM360 1288v-1098h275q230 0 346 152q117 150 117 397q0 249 -113 398q-112 151 -342 151h-283zM539 1671l-199 326h115l184 -187l186 187h115l-199 -326h-202z
" />
    <glyph glyph-name="dcaron" unicode="&#x10f;" horiz-adv-x="1527" 
d="M809 795v684h199v-1479h-199v123q-109 -152 -297 -152q-204 0 -319 142q-111 144 -111 356q0 210 108 354t302 144q238 0 317 -172zM809 461q0 160 -69.5 251t-186.5 91q-124 0 -196 -85.5t-72 -256.5q0 -326 262 -326q119 0 190.5 86.5t71.5 239.5zM1212 1479h236
q18 -105 18 -238q0 -174 -225 -291l-51 92q145 68 145 199h-123v238z" />
    <glyph glyph-name="Dcroat" unicode="&#x110;" horiz-adv-x="1402" 
d="M143 854v625h535q309 0 477 -213q166 -211 166 -527q0 -206 -70 -368q-71 -169 -223.5 -270t-357.5 -101h-527v664h-143v190h143zM360 664v-474h275q230 0 346 152q117 150 117 397q0 249 -113 398q-112 151 -342 151h-283v-434h332v-190h-332z" />
    <glyph glyph-name="dslash" unicode="&#x111;" horiz-adv-x="1130" 
d="M809 1362v174h199v-174h122v-152h-122v-1210h-199v123q-109 -152 -297 -152q-204 0 -319 142q-111 144 -111 356q0 210 108 354t302 144q238 0 317 -172v415h-350v152h350zM809 461q0 160 -69.5 251t-186.5 91q-124 0 -196 -85.5t-72 -256.5q0 -326 262 -326
q119 0 190.5 86.5t71.5 239.5z" />
    <glyph glyph-name="Emacron" unicode="&#x112;" horiz-adv-x="1161" 
d="M1018 664h-658v-474h719v-190h-936v1479h934v-191h-717v-434h658v-190zM874 1903v-172h-589v172h589z" />
    <glyph glyph-name="emacron" unicode="&#x113;" horiz-adv-x="1021" 
d="M944 418h-659q0 -283 254 -283q106 0 152.5 39t60.5 137l176 -20q-17 -149 -120.5 -234.5t-268.5 -85.5q-220 0 -338.5 131.5t-118.5 366.5q0 233 113 365.5t329 132.5q207 0 313.5 -140t106.5 -409zM522 823q-114 0 -172.5 -60t-64.5 -192h452q-9 252 -215 252z
M805 1362v-172h-590v172h590z" />
    <glyph glyph-name="Edotaccent" unicode="&#x116;" horiz-adv-x="1161" 
d="M1018 664h-658v-474h719v-190h-936v1479h934v-191h-717v-434h658v-190zM481 1933h199v-245h-199v245z" />
    <glyph glyph-name="edotaccent" unicode="&#x117;" horiz-adv-x="1021" 
d="M944 418h-659q0 -283 254 -283q106 0 152.5 39t60.5 137l176 -20q-17 -149 -120.5 -234.5t-268.5 -85.5q-220 0 -338.5 131.5t-118.5 366.5q0 233 113 365.5t329 132.5q207 0 313.5 -140t106.5 -409zM522 823q-114 0 -172.5 -60t-64.5 -192h452q-9 252 -215 252z
M412 1393h198v-246h-198v246z" />
    <glyph glyph-name="Eogonek" unicode="&#x118;" horiz-adv-x="1161" 
d="M887 0h-744v1479h895v-191h-678v-434h678v-190h-678v-474h719v-190q-88 -35 -148.5 -89.5t-60.5 -98.5q0 -60 76 -60q51 0 103 27l30 -68q-84 -69 -209 -69q-76 0 -116.5 42t-40.5 113q0 58 44.5 113t129.5 90z" />
    <glyph glyph-name="eogonek" unicode="&#x119;" horiz-adv-x="1021" 
d="M944 418h-659q0 -283 254 -283q106 0 152.5 39t60.5 137l176 -20q-24 -224 -232 -295q-85 -35 -140.5 -87.5t-55.5 -96.5q0 -60 75 -60q51 0 103 27l31 -68q-84 -69 -209 -69q-76 0 -117 42t-41 113q0 107 123 178q-187 20 -285 149t-98 345q0 233 113 365.5t329 132.5
q207 0 313.5 -140t106.5 -409zM522 823q-114 0 -172.5 -60t-64.5 -192h452q-9 252 -215 252z" />
    <glyph glyph-name="Ecaron" unicode="&#x11a;" horiz-adv-x="1161" 
d="M1018 664h-658v-474h719v-190h-936v1479h934v-191h-717v-434h658v-190zM479 1671l-198 326h114l185 -187l186 187h115l-199 -326h-203z" />
    <glyph glyph-name="ecaron" unicode="&#x11b;" horiz-adv-x="1021" 
d="M944 418h-659q0 -283 254 -283q106 0 152.5 39t60.5 137l176 -20q-17 -149 -120.5 -234.5t-268.5 -85.5q-220 0 -338.5 131.5t-118.5 366.5q0 233 113 365.5t329 132.5q207 0 313.5 -140t106.5 -409zM522 823q-114 0 -172.5 -60t-64.5 -192h452q-9 252 -215 252z
M410 1130l-199 326h115l184 -186l186 186h115l-199 -326h-202z" />
    <glyph glyph-name="Gcommaaccent" unicode="&#x122;" horiz-adv-x="1427" 
d="M717 1317q-212 0 -312 -140t-100 -446q0 -307 109 -440q108 -129 303 -129q100 0 201 48.5t163 129.5v149h-284v191h508v-680h-119l-60 141q-188 -170 -409 -170q-299 0 -467 195t-168 565q0 367 164.5 571.5t470.5 204.5q209 0 373 -110q85 -57 136 -166t58 -256
l-223 -29q-15 371 -344 371zM614 -109h236q18 -105 18 -237q0 -74 -61.5 -146t-163.5 -124l-51 92q145 68 145 178h-123v237z" />
    <glyph glyph-name="gcommaaccent" unicode="&#x123;" horiz-adv-x="1124" 
d="M600 283q-207 0 -307 118q-70 -15 -70 -94q0 -66 46.5 -91.5t164.5 -25.5h162q195 0 310.5 -69.5t115.5 -202.5q0 -326 -487 -326q-472 0 -472 283q0 58 43 116.5t117 86.5q-68 24 -108.5 87.5t-40.5 139.5q0 204 149 256q-4 28 -4 64q0 159 101 250.5t280 91.5
q178 0 283 -97q35 30 35 93v65h172v-67q0 -57 -40 -113t-100 -74q31 -67 31 -149q0 -159 -101 -250.5t-280 -91.5zM406 625q0 -199 194 -199q195 0 195 199q0 198 -195 198q-194 0 -194 -198zM297 -217q73 -29 238 -29t237 29q68 27 68 94q0 69 -68 96t-237 27
q-171 0 -238 -27q-68 -27 -68 -96q0 -67 68 -94zM723 1049h-236q-18 105 -18 237q0 74 61.5 146t163.5 124l51 -92q-145 -68 -145 -178h123v-237z" />
    <glyph glyph-name="Imacron" unicode="&#x12a;" 
d="M143 1479h217v-1479h-217v1479zM504 1903v-172h-504v172h504z" />
    <glyph glyph-name="imacron" unicode="&#x12b;" horiz-adv-x="444" 
d="M123 938h199v-938h-199v938zM444 1362v-172h-444v172h444z" />
    <glyph glyph-name="Iogonek" unicode="&#x12e;" 
d="M143 0v1479h217v-1479q-88 -35 -148 -89.5t-60 -98.5q0 -60 75 -60q51 0 103 27l30 -68q-84 -69 -208 -69q-76 0 -117 42t-41 113q0 57 39 112t110 91z" />
    <glyph glyph-name="iogonek" unicode="&#x12f;" horiz-adv-x="444" 
d="M123 0v938h199v-938q-88 -35 -148.5 -89.5t-60.5 -98.5q0 -60 75 -60q50 0 103 27l31 -68q-84 -69 -209 -69q-76 0 -117 42t-41 113q0 133 168 203zM123 1393h199v-246h-199v246z" />
    <glyph glyph-name="dotlessi" unicode="&#x131;" horiz-adv-x="444" 
d="M123 938h199v-938h-199v938z" />
    <glyph glyph-name="Kcommaaccent" unicode="&#x136;" horiz-adv-x="1335" 
d="M360 776l654 703h260l-551 -592l541 -887h-254l-441 721l-209 -225v-496h-217v1479h217v-703zM492 -109h235q18 -105 18 -237q0 -74 -61.5 -146t-163.5 -124l-51 92q145 68 145 178h-122v237z" />
    <glyph glyph-name="kcommaaccent" unicode="&#x137;" horiz-adv-x="1024" 
d="M322 506l405 432h246l-371 -373l381 -565h-244l-280 420l-137 -137v-283h-199v1479h199v-973zM369 -109h235q19 -111 19 -237q0 -73 -62 -145.5t-164 -124.5l-51 92q146 68 146 178h-123v237z" />
    <glyph glyph-name="Lacute" unicode="&#x139;" horiz-adv-x="1069" 
d="M143 1479h217v-1289h678v-190h-895v1479zM735 1997l-286 -326h-115l158 326h243z" />
    <glyph glyph-name="lacute" unicode="&#x13a;" horiz-adv-x="444" 
d="M123 1479h199v-1479h-199v1479zM526 1997l-286 -326h-115l158 326h243z" />
    <glyph glyph-name="Lcommaaccent" unicode="&#x13b;" horiz-adv-x="1069" 
d="M143 1479h217v-1289h678v-190h-895v1479zM430 -109h236q18 -105 18 -237q0 -74 -61.5 -146t-163.5 -124l-51 92q145 68 145 178h-123v237z" />
    <glyph glyph-name="lcommaaccent" unicode="&#x13c;" horiz-adv-x="444" 
d="M123 1479h199v-1479h-199v1479zM104 -109h236q18 -105 18 -237q0 -74 -61.5 -146t-163.5 -124l-51 92q145 68 145 178h-123v237z" />
    <glyph glyph-name="Lcaron" unicode="&#x13d;" horiz-adv-x="1069" 
d="M143 1479h217v-1289h678v-190h-895v1479zM664 1479h235q19 -111 19 -238q0 -173 -226 -291l-51 92q145 68 145 199h-122v238z" />
    <glyph glyph-name="lcaron" unicode="&#x13e;" horiz-adv-x="841" 
d="M123 1479h199v-1479h-199v1479zM526 1479h236q18 -105 18 -238q0 -174 -225 -291l-51 92q145 68 145 199h-123v238z" />
    <glyph glyph-name="Lslash" unicode="&#x141;" horiz-adv-x="1069" 
d="M680 946l51 -133l-371 -143v-480h678v-190h-895v588l-143 -56l-51 136l194 73v738h217v-656z" />
    <glyph glyph-name="lslash" unicode="&#x142;" horiz-adv-x="444" 
d="M444 854l52 -133l-174 -66v-655h-199v580l-123 -48l-51 136l174 65v746h199v-672z" />
    <glyph glyph-name="Nacute" unicode="&#x143;" horiz-adv-x="1439" 
d="M1296 0h-262l-692 1159h-8v-1159h-191v1479h263l692 -1160h8v1160h190v-1479zM1001 1997l-286 -326h-115l158 326h243z" />
    <glyph glyph-name="nacute" unicode="&#x144;" horiz-adv-x="1099" 
d="M123 938h192v-197q50 107 147 166.5t210 59.5q130 0 223 -84q92 -83 92 -236v-647h-199v582q0 105 -47 161t-125 56q-105 0 -200 -92q-94 -91 -94 -224v-483h-199v938zM831 1456l-286 -326h-115l158 326h243z" />
    <glyph glyph-name="Ncommaaccent" unicode="&#x145;" horiz-adv-x="1439" 
d="M1296 0h-262l-692 1159h-8v-1159h-191v1479h263l692 -1160h8v1160h190v-1479zM553 -109h235q19 -111 19 -237q0 -74 -61.5 -146t-163.5 -124l-52 92q146 68 146 178h-123v237z" />
    <glyph glyph-name="ncommaaccent" unicode="&#x146;" horiz-adv-x="1099" 
d="M123 938h192v-197q50 107 147 166.5t210 59.5q130 0 223 -84q92 -83 92 -236v-647h-199v582q0 105 -47 161t-125 56q-105 0 -200 -92q-94 -91 -94 -224v-483h-199v938zM430 -109h236q18 -105 18 -237q0 -74 -61.5 -146t-163.5 -124l-51 92q145 68 145 178h-123v237z" />
    <glyph glyph-name="Ncaron" unicode="&#x147;" horiz-adv-x="1439" 
d="M1296 0h-262l-692 1159h-8v-1159h-191v1479h263l692 -1160h8v1160h190v-1479zM618 1671l-198 326h115l184 -187l186 187h115l-199 -326h-203z" />
    <glyph glyph-name="ncaron" unicode="&#x148;" horiz-adv-x="1099" 
d="M123 938h192v-197q50 107 147 166.5t210 59.5q130 0 223 -84q92 -83 92 -236v-647h-199v582q0 105 -47 161t-125 56q-105 0 -200 -92q-94 -91 -94 -224v-483h-199v938zM449 1130l-199 326h115l184 -186l186 186h115l-199 -326h-202z" />
    <glyph glyph-name="Omacron" unicode="&#x14c;" horiz-adv-x="1548" 
d="M1466 739q0 -347 -186 -557q-184 -211 -506 -211q-321 0 -508 211q-184 211 -184 557t184 557q187 211 508 211q320 0 506 -213q186 -210 186 -555zM1120 319q123 159 123 420q0 262 -123 418q-121 160 -346 160q-224 0 -348 -160q-121 -157 -121 -418q0 -260 121 -420
q124 -157 348 -157q225 0 346 157zM1069 1903v-172h-590v172h590z" />
    <glyph glyph-name="omacron" unicode="&#x14d;" horiz-adv-x="1101" 
d="M897 115q-123 -144 -346 -144t-346 144t-123 354t123 354t346 144t346 -144t123 -354t-123 -354zM354 217q70 -82 197 -82t197 82q69 81 69 252q0 169 -69 250q-72 84 -197 84t-197 -84q-69 -81 -69 -250q0 -171 69 -252zM846 1362v-172h-590v172h590z" />
    <glyph glyph-name="Ohungarumlaut" unicode="&#x150;" horiz-adv-x="1548" 
d="M1466 739q0 -347 -186 -557q-184 -211 -506 -211q-321 0 -508 211q-184 211 -184 557t184 557q187 211 508 211q320 0 506 -213q186 -210 186 -555zM1120 319q123 159 123 420q0 262 -123 418q-121 160 -346 160q-224 0 -348 -160q-121 -157 -121 -418q0 -260 121 -420
q124 -157 348 -157q225 0 346 157zM915 1997l-286 -326h-115l158 326h243zM1278 1997l-287 -326h-114l157 326h244z" />
    <glyph glyph-name="ohungarumlaut" unicode="&#x151;" horiz-adv-x="1101" 
d="M897 115q-123 -144 -346 -144t-346 144t-123 354t123 354t346 144t346 -144t123 -354t-123 -354zM354 217q70 -82 197 -82t197 82q69 81 69 252q0 169 -69 250q-72 84 -197 84t-197 -84q-69 -81 -69 -250q0 -171 69 -252zM692 1456l-286 -326h-115l158 326h243z
M1055 1456l-287 -326h-115l158 326h244z" />
    <glyph glyph-name="OE" unicode="&#x152;" horiz-adv-x="2260" 
d="M2118 664h-658v-474h719v-190h-936v143q-181 -172 -469 -172q-321 0 -508 211q-184 211 -184 557t184 557q187 211 508 211q286 0 469 -174v146h936v-191h-719v-434h658v-190zM426 319q124 -157 348 -157q225 0 346 157q123 159 123 420q0 262 -123 418
q-121 160 -346 160q-224 0 -348 -160q-121 -157 -121 -418q0 -260 121 -420z" />
    <glyph glyph-name="oe" unicode="&#x153;" horiz-adv-x="1755" 
d="M1677 418h-659q0 -283 254 -283q106 0 152.5 39t60.5 137l176 -20q-17 -149 -120.5 -234.5t-268.5 -85.5q-241 0 -363 158q-128 -158 -358 -158q-223 0 -346 144t-123 354t123 354t346 144q228 0 356 -158q119 158 350 158q207 0 313.5 -140t106.5 -409zM354 217
q70 -82 197 -82t197 82q69 81 69 252q0 169 -69 250q-72 84 -197 84t-197 -84q-69 -81 -69 -250q0 -171 69 -252zM1255 823q-114 0 -172.5 -60t-64.5 -192h452q-9 252 -215 252z" />
    <glyph glyph-name="Racute" unicode="&#x154;" horiz-adv-x="1343" 
d="M674 1288h-314v-538h314q162 0 237.5 73t75.5 197q0 123 -75.5 195.5t-237.5 72.5zM1204 1047q0 -154 -83 -256t-232 -127q122 -21 178 -80q52 -52 88 -195l55 -231q21 -97 72 -158h-262l-88 369q-25 106 -82 148t-150 42h-340v-559h-217v1479h488q275 0 424 -113.5
t149 -318.5zM913 1997l-286 -326h-115l158 326h243z" />
    <glyph glyph-name="racute" unicode="&#x155;" horiz-adv-x="827" 
d="M322 354v-354h-199v938h199v-236q48 133 115 196t165 63q101 0 153 -54.5t52 -150.5q0 -66 -29 -142l-170 21q25 55 25 92q0 32 -19.5 53t-46.5 21q-71 0 -129 -82q-57 -77 -86.5 -177.5t-29.5 -187.5zM655 1456l-286 -326h-115l158 326h243z" />
    <glyph glyph-name="Rcommaaccent" unicode="&#x156;" horiz-adv-x="1343" 
d="M674 1288h-314v-538h314q162 0 237.5 73t75.5 197q0 123 -75.5 195.5t-237.5 72.5zM1204 1047q0 -154 -83 -256t-232 -127q122 -21 178 -80q52 -52 88 -195l55 -231q21 -97 72 -158h-262l-88 369q-25 106 -82 148t-150 42h-340v-559h-217v1479h488q275 0 424 -113.5
t149 -318.5zM512 -109h236q18 -105 18 -237q0 -74 -61.5 -146t-163.5 -124l-52 92q146 68 146 178h-123v237z" />
    <glyph glyph-name="rcommaaccent" unicode="&#x157;" horiz-adv-x="827" 
d="M322 354v-354h-199v938h199v-236q48 133 115 196t165 63q101 0 153 -54.5t52 -150.5q0 -66 -29 -142l-170 21q25 55 25 92q0 32 -19.5 53t-46.5 21q-71 0 -129 -82q-57 -77 -86.5 -177.5t-29.5 -187.5zM102 -109h236q18 -105 18 -237q0 -74 -61.5 -146t-163.5 -124
l-51 92q145 68 145 178h-123v237z" />
    <glyph glyph-name="Rcaron" unicode="&#x158;" horiz-adv-x="1343" 
d="M674 1288h-314v-538h314q162 0 237.5 73t75.5 197q0 123 -75.5 195.5t-237.5 72.5zM1204 1047q0 -154 -83 -256t-232 -127q122 -21 178 -80q52 -52 88 -195l55 -231q21 -97 72 -158h-262l-88 369q-25 106 -82 148t-150 42h-340v-559h-217v1479h488q275 0 424 -113.5
t149 -318.5zM569 1671l-198 326h114l185 -187l186 187h115l-199 -326h-203z" />
    <glyph glyph-name="rcaron" unicode="&#x159;" horiz-adv-x="827" 
d="M322 354v-354h-199v938h199v-236q48 133 115 196t165 63q101 0 153 -54.5t52 -150.5q0 -66 -29 -142l-170 21q25 55 25 92q0 32 -19.5 53t-46.5 21q-71 0 -129 -82q-57 -77 -86.5 -177.5t-29.5 -187.5zM311 1130l-198 326h114l185 -186l186 186h115l-199 -326h-203z" />
    <glyph glyph-name="Sacute" unicode="&#x15a;" horiz-adv-x="1247" 
d="M1151 1028l-217 -20q-15 179 -94 243q-76 64 -224 64q-284 0 -284 -230q0 -93 83 -143t265 -90l104 -25q57 -14 99 -28q63 -17 98 -39q41 -22 83.5 -56t63.5 -69q58 -90 58 -223q0 -152 -86 -258q-154 -183 -467 -183q-551 0 -572 521l218 20q13 -195 99 -272.5
t255 -77.5q336 0 336 250q0 77 -62 131q-18 18 -78 41q-43 16 -88 28l-110 27l-146 37q-53 14 -135 53q-79 39 -123 80q-49 47 -80.5 119t-31.5 157q0 203 145 312q146 110 356 110q300 0 416 -147q56 -68 83.5 -147t35.5 -185zM874 1997l-286 -326h-115l158 326h243z" />
    <glyph glyph-name="sacute" unicode="&#x15b;" horiz-adv-x="937" 
d="M846 662l-191 -21q-12 182 -190 182q-79 0 -123.5 -36.5t-44.5 -98.5q0 -46 52 -72.5t149 -46.5q56 -8 101.5 -19t98 -34t87.5 -54.5t58.5 -83t22.5 -116.5q0 -138 -100 -214.5t-285 -76.5q-166 0 -278 64q-122 72 -131 280l188 21q6 -115 60 -168t163 -53q92 0 142.5 39
t50.5 108q0 95 -201 123q-48 7 -84.5 14.5t-83 22t-80 36.5t-63 52.5t-44.5 76t-14 101.5q0 134 95 206.5t268 72.5q353 0 377 -305zM711 1456l-287 -326h-115l158 326h244z" />
    <glyph glyph-name="Scaron" unicode="&#x160;" horiz-adv-x="1247" 
d="M1151 1028l-217 -20q-15 179 -94 243q-76 64 -224 64q-284 0 -284 -230q0 -93 83 -143t265 -90l104 -25q57 -14 99 -28q63 -17 98 -39q41 -22 83.5 -56t63.5 -69q58 -90 58 -223q0 -152 -86 -258q-154 -183 -467 -183q-551 0 -572 521l218 20q13 -195 99 -272.5
t255 -77.5q336 0 336 250q0 77 -62 131q-18 18 -78 41q-43 16 -88 28l-110 27l-146 37q-53 14 -135 53q-79 39 -123 80q-49 47 -80.5 119t-31.5 157q0 203 145 312q146 110 356 110q300 0 416 -147q56 -68 83.5 -147t35.5 -185zM532 1671l-198 326h115l184 -187l186 187h115
l-199 -326h-203z" />
    <glyph glyph-name="scaron" unicode="&#x161;" horiz-adv-x="937" 
d="M846 662l-191 -21q-12 182 -190 182q-79 0 -123.5 -36.5t-44.5 -98.5q0 -46 52 -72.5t149 -46.5q56 -8 101.5 -19t98 -34t87.5 -54.5t58.5 -83t22.5 -116.5q0 -138 -100 -214.5t-285 -76.5q-166 0 -278 64q-122 72 -131 280l188 21q6 -115 60 -168t163 -53q92 0 142.5 39
t50.5 108q0 95 -201 123q-48 7 -84.5 14.5t-83 22t-80 36.5t-63 52.5t-44.5 76t-14 101.5q0 134 95 206.5t268 72.5q353 0 377 -305zM367 1130l-199 326h115l184 -186l186 186h115l-199 -326h-202z" />
    <glyph glyph-name="Tcaron" unicode="&#x164;" horiz-adv-x="1232" 
d="M31 1288v191h1171v-191h-477v-1288h-217v1288h-477zM514 1671l-199 326h115l184 -187l187 187h114l-198 -326h-203z" />
    <glyph glyph-name="tcaron" unicode="&#x165;" horiz-adv-x="1064" 
d="M569 223l140 -30q-27 -222 -240 -222q-147 0 -205.5 64t-58.5 196v543h-174v164h174v252l198 98v-350h261v-164h-261v-543q0 -64 18 -86t62 -22q68 0 86 100zM750 1479h235q19 -111 19 -238q0 -173 -226 -291l-51 92q145 68 145 199h-122v238z" />
    <glyph glyph-name="Umacron" unicode="&#x16a;" horiz-adv-x="1353" 
d="M1051 504v975h190v-975q0 -244 -151 -389q-150 -144 -412 -144q-264 0 -414 144q-151 145 -151 389v975h217v-975q0 -162 97 -252t263 -90t263.5 91t97.5 251zM971 1903v-172h-590v172h590z" />
    <glyph glyph-name="umacron" unicode="&#x16b;" horiz-adv-x="1099" 
d="M977 938v-938h-193v195q-50 -106 -147 -165t-209 -59q-132 0 -223 82q-92 83 -92 238v647h198v-582q0 -105 47 -161t125 -56q106 0 201 92q94 91 94 224v483h199zM844 1362v-172h-590v172h590z" />
    <glyph glyph-name="Uring" unicode="&#x16e;" horiz-adv-x="1353" 
d="M1051 504v975h190v-975q0 -244 -151 -389q-150 -144 -412 -144q-264 0 -414 144q-151 145 -151 389v975h217v-975q0 -162 97 -252t263 -90t263.5 91t97.5 251zM676 1919q-33 0 -57.5 -23.5t-24.5 -58.5t24.5 -60.5t57.5 -25.5t57.5 25.5t24.5 60.5t-23.5 58.5t-58.5 23.5
zM557 1716q-47 50 -47 121.5t47 118.5q47 50 119 50t119 -50q48 -47 47.5 -119t-49.5 -121q-47 -50 -117 -50t-119 50z" />
    <glyph glyph-name="uring" unicode="&#x16f;" horiz-adv-x="1099" 
d="M977 938v-938h-193v195q-50 -106 -147 -165t-209 -59q-132 0 -223 82q-92 83 -92 238v647h198v-582q0 -105 47 -161t125 -56q106 0 201 92q94 91 94 224v483h199zM549 1378q-33 0 -57.5 -23.5t-24.5 -58.5t24.5 -60.5t57.5 -25.5t57.5 25.5t24.5 60.5t-23.5 58.5
t-58.5 23.5zM430 1176q-47 50 -47 121t47 118q47 49 119 49t119 -49q48 -47 47.5 -118.5t-49.5 -120.5q-47 -50 -116.5 -50t-119.5 50z" />
    <glyph glyph-name="Uhungarumlaut" unicode="&#x170;" horiz-adv-x="1353" 
d="M1051 504v975h190v-975q0 -244 -151 -389q-150 -144 -412 -144q-264 0 -414 144q-151 145 -151 389v975h217v-975q0 -162 97 -252t263 -90t263.5 91t97.5 251zM819 1997l-287 -326h-114l157 326h244zM1182 1997l-287 -326h-115l158 326h244z" />
    <glyph glyph-name="uhungarumlaut" unicode="&#x171;" horiz-adv-x="1099" 
d="M977 938v-938h-193v195q-50 -106 -147 -165t-209 -59q-132 0 -223 82q-92 83 -92 238v647h198v-582q0 -105 47 -161t125 -56q106 0 201 92q94 91 94 224v483h199zM672 1456l-287 -326h-115l158 326h244zM1034 1456l-286 -326h-115l158 326h243z" />
    <glyph glyph-name="Uogonek" unicode="&#x172;" horiz-adv-x="1353" 
d="M1051 504v975h190v-975q0 -190 -94 -322t-262 -182q-88 -35 -148.5 -89.5t-60.5 -98.5q0 -60 76 -60q50 0 102 27l31 -68q-84 -69 -209 -69q-76 0 -117 42t-41 113q0 105 117 176q-244 12 -383 154t-139 377v975h217v-975q0 -162 97 -252t263 -90t263.5 91t97.5 251z" />
    <glyph glyph-name="uogonek" unicode="&#x173;" horiz-adv-x="1099" 
d="M784 0v195q-50 -106 -147 -165t-209 -59q-132 0 -223 82q-92 83 -92 238v647h198v-582q0 -105 47 -161t125 -56q106 0 201 92q94 91 94 224v483h199v-938q-88 -35 -148.5 -89.5t-60.5 -98.5q0 -60 76 -60q50 0 102 27l31 -68q-84 -69 -209 -69q-76 0 -117 42t-41 113
q0 58 44.5 113t129.5 90z" />
    <glyph glyph-name="Ydieresis" unicode="&#x178;" horiz-adv-x="1236" 
d="M991 1479h215l-479 -895v-584h-217v584l-479 895h248l356 -668zM713 1913h198v-225h-198v225zM324 1913h198v-225h-198v225z" />
    <glyph glyph-name="Zacute" unicode="&#x179;" horiz-adv-x="1234" 
d="M362 190h812v-190h-1113v139l791 1149h-770v191h1071v-140zM920 1997l-287 -326h-115l158 326h244z" />
    <glyph glyph-name="zacute" unicode="&#x17a;" horiz-adv-x="931" 
d="M340 164h530v-164h-802v119l505 655h-512v164h787v-119zM727 1456l-287 -326h-114l157 326h244z" />
    <glyph glyph-name="Zdotaccent" unicode="&#x17b;" horiz-adv-x="1234" 
d="M362 190h812v-190h-1113v139l791 1149h-770v191h1071v-140zM518 1933h199v-245h-199v245z" />
    <glyph glyph-name="zdotaccent" unicode="&#x17c;" horiz-adv-x="931" 
d="M340 164h530v-164h-802v119l505 655h-512v164h787v-119zM367 1393h198v-246h-198v246z" />
    <glyph glyph-name="Zcaron" unicode="&#x17d;" horiz-adv-x="1234" 
d="M362 190h812v-190h-1113v139l791 1149h-770v191h1071v-140zM516 1671l-199 326h115l184 -187l187 187h115l-199 -326h-203z" />
    <glyph glyph-name="zcaron" unicode="&#x17e;" horiz-adv-x="931" 
d="M340 164h530v-164h-802v119l505 655h-512v164h787v-119zM365 1130l-199 326h115l184 -186l186 186h115l-199 -326h-202z" />
    <glyph glyph-name="florin" unicode="&#x192;" horiz-adv-x="827" 
d="M831 1194q-42 0 -68 30t-26 74q0 22 21 46.5t55 35.5q-20 23 -92 23q-120 0 -158 -195l-49 -270h260l-31 -117h-245l-99 -626q-89 -578 -430 -578q-94 0 -158.5 51.5t-64.5 136.5q0 43 28.5 73t69.5 30q43 0 72 -28t29 -70q0 -36 -22 -64.5t-52 -28.5q27 -43 78 -43
q75 0 121 76q48 75 86 307l123 764h-193l25 117h118q71 0 80 76q35 231 121 342q88 114 291 114q211 0 211 -172q0 -42 -30 -73t-71 -31z" />
    <glyph glyph-name="circumflex" unicode="&#x2c6;" horiz-adv-x="823" 
d="M406 1317l-185 -187h-115l199 326h203l199 -326h-115z" />
    <glyph glyph-name="caron" unicode="&#x2c7;" horiz-adv-x="823" 
d="M305 1130l-199 326h115l185 -186l186 186h115l-199 -326h-203z" />
    <glyph glyph-name="breve" unicode="&#x2d8;" horiz-adv-x="821" 
d="M72 1432h137q21 -77 60.5 -105.5t140.5 -28.5q100 0 139.5 28.5t60.5 105.5h138q-9 -122 -86 -205q-76 -82 -252 -82t-252 82q-77 83 -86 205z" />
    <glyph glyph-name="dotaccent" unicode="&#x2d9;" horiz-adv-x="483" 
d="M123 1393h199v-246h-199v246z" />
    <glyph glyph-name="ring" unicode="&#x2da;" horiz-adv-x="483" 
d="M233 1378q-33 0 -57 -23.5t-24 -58.5t24.5 -60.5t56.5 -25.5q33 0 57.5 25.5t24.5 60.5t-23.5 58.5t-58.5 23.5zM115 1176q-47 50 -47 121t47 118q47 49 118.5 49t118.5 -49q48 -47 47.5 -118.5t-49.5 -120.5q-47 -50 -116.5 -50t-118.5 50z" />
    <glyph glyph-name="ogonek" unicode="&#x2db;" horiz-adv-x="763" 
d="M410 0h192q-88 -35 -148.5 -89.5t-60.5 -98.5q0 -60 76 -60q49 0 102 27l31 -68q-84 -69 -209 -69q-76 0 -116.5 42t-40.5 113q0 58 44.5 113t129.5 90z" />
    <glyph glyph-name="tilde" unicode="&#x2dc;" horiz-adv-x="860" 
d="M424 1397q66 0 123 -45t88 -45q66 0 125 90l84 -56q-48 -107 -92.5 -148.5t-116.5 -41.5q-69 0 -129 45q-59 47 -82 47q-68 0 -127 -92l-84 57q48 107 93 148t118 41z" />
    <glyph glyph-name="hungarumlaut" unicode="&#x2dd;" horiz-adv-x="1032" 
d="M543 1456l-287 -326h-115l158 326h244zM905 1456l-287 -326h-114l158 326h243z" />
    <glyph glyph-name="pi" unicode="&#x3c0;" horiz-adv-x="1327" 
d="M123 774l43 164h1253l-45 -164h-207l-139 -487q-16 -62 -16 -78q0 -45 47 -45q34 0 61 37.5t64 128.5l100 -56q-119 -303 -326 -303q-157 0 -157 142q0 84 26 172l138 489h-428l-215 -774h-205l217 774h-211z" />
    <glyph glyph-name="afii10023" unicode="&#x401;" horiz-adv-x="1161" 
d="M1018 664h-658v-474h719v-190h-936v1479h934v-191h-717v-434h658v-190zM705 1835h198v-225h-198v225zM315 1835h199v-225h-199v225z" />
    <glyph glyph-name="afii10051" unicode="&#x402;" horiz-adv-x="1536" 
d="M1475 489v-92q0 -181 -82 -303q-79 -123 -260 -123q-148 0 -233 77t-85 218q0 34 6 74l203 29q-4 -62 -4 -64q0 -75 26.5 -109t86.5 -34q66 0 95 57t29 178v92q0 160 -61 209q-58 52 -184 52q-114 0 -287 -66v-684h-217v1288h-477v191h1171v-191h-477v-422q176 78 391 78
q163 0 261 -121t98 -334z" />
    <glyph glyph-name="afii10052" unicode="&#x403;" horiz-adv-x="1069" 
d="M1038 1288h-678v-1288h-217v1479h895v-191zM858 1997l-287 -326h-114l157 326h244z" />
    <glyph glyph-name="afii10053" unicode="&#x404;" horiz-adv-x="1370" 
d="M696 1317q-186 0 -279 -110.5t-110 -352.5h565v-190h-567q12 -262 117 -382t295 -120q339 0 354 370l223 -28q-7 -146 -60 -255t-140 -167q-168 -111 -377 -111q-299 0 -467 195t-168 565q0 374 155 575t459 201q222 0 377 -100q88 -55 141 -161t60 -251l-223 -28
q-6 188 -96 269t-259 81z" />
    <glyph glyph-name="afii10054" unicode="&#x405;" horiz-adv-x="1247" 
d="M1151 1028l-217 -20q-15 179 -94 243q-76 64 -224 64q-284 0 -284 -230q0 -93 83 -143t265 -90l104 -25q57 -14 99 -28q63 -17 98 -39q41 -22 83.5 -56t63.5 -69q58 -90 58 -223q0 -152 -86 -258q-154 -183 -467 -183q-551 0 -572 521l218 20q13 -195 99 -272.5
t255 -77.5q336 0 336 250q0 77 -62 131q-18 18 -78 41q-43 16 -88 28l-110 27l-146 37q-53 14 -135 53q-79 39 -123 80q-49 47 -80.5 119t-31.5 157q0 203 145 312q146 110 356 110q300 0 416 -147q56 -68 83.5 -147t35.5 -185z" />
    <glyph glyph-name="afii10055" unicode="&#x406;" 
d="M143 1479h217v-1479h-217v1479z" />
    <glyph glyph-name="afii10056" unicode="&#x407;" 
d="M328 1913h198v-225h-198v225zM-20 1913h198v-225h-198v225zM143 1479h217v-1479h-217v1479z" />
    <glyph glyph-name="afii10057" unicode="&#x408;" horiz-adv-x="927" 
d="M20 393h218q0 -231 180 -231q86 0 133 63t47 170v1084h217v-1084q0 -424 -397 -424q-211 0 -305 119q-93 122 -93 303z" />
    <glyph glyph-name="afii10058" unicode="&#x409;" horiz-adv-x="2158" 
d="M1292 1479v-584h334q228 0 359 -125q133 -124 133 -326q0 -198 -138 -321q-135 -123 -354 -123h-551v1288h-483q0 -279 -8 -440q-13 -402 -72 -586q-62 -205 -184 -262q-60 -31 -151.5 -29.5t-166.5 41.5l41 174q49 -22 115 -22q79 0 119 67q37 62 59 312q23 266 23 745
v191h925zM1292 705v-515h322q124 0 205 78q79 76 79 178q0 111 -74.5 185t-209.5 74h-322z" />
    <glyph glyph-name="afii10059" unicode="&#x40a;" horiz-adv-x="2140" 
d="M1057 705h-697v-705h-217v1479h217v-584h697v584h217v-584h334q227 0 358 -125q133 -124 133 -326q0 -199 -137 -321q-135 -123 -354 -123h-551v705zM1274 705v-515h321q124 0 205 78q80 77 80 178q0 111 -75 185t-210 74h-321z" />
    <glyph glyph-name="afii10060" unicode="&#x40b;" horiz-adv-x="1536" 
d="M31 1288v191h1171v-191h-477v-422q176 78 391 78q163 0 261 -121t98 -334v-489h-218v489q0 160 -61 209q-58 52 -184 52q-114 0 -287 -66v-684h-217v1288h-477z" />
    <glyph glyph-name="afii10061" unicode="&#x40c;" horiz-adv-x="1343" 
d="M1040 446q38 -185 64 -235q26 -51 80 -51q39 0 78 20l30 -153q-77 -56 -170 -56q-123 0 -190 119q-49 91 -88 256q-28 145 -31 154q-15 78 -41 104q-27 30 -65 45t-103 15h-244v-664h-217v1479h217v-625h224q109 0 149 70q40 69 74 250q31 176 90 254.5t184 78.5
q94 0 170 -55l-30 -154q-41 21 -82 21q-58 0 -84 -39q-27 -41 -54 -184q-27 -139 -67 -217t-117 -117q170 -70 223 -316zM934 1997l-287 -326h-115l158 326h244z" />
    <glyph glyph-name="afii10062" unicode="&#x40e;" horiz-adv-x="1337" 
d="M348 1845l201 17q0 -162 160 -162q159 0 159 162l201 -17q0 -289 -360 -289q-361 0 -361 289zM1100 1479h207l-473 -1209q-62 -159 -143.5 -230t-203.5 -71q-117 0 -186.5 57t-69.5 173q0 58 31 137h178q-18 -58 -18 -117q0 -41 21 -64.5t57 -23.5q73 0 135 160
l-584 1188h242l450 -910z" />
    <glyph glyph-name="afii10145" unicode="&#x40f;" horiz-adv-x="1499" 
d="M143 1479h217v-1289h697v1289h217v-1479h-457v-379h-215v379h-459v1479z" />
    <glyph glyph-name="afii10017" unicode="&#x410;" horiz-adv-x="1374" 
d="M1343 0h-231l-129 356h-618l-129 -356h-205l549 1479h215zM913 547l-241 659l-240 -659h481z" />
    <glyph glyph-name="afii10018" unicode="&#x411;" horiz-adv-x="1247" 
d="M360 705v-515h322q124 0 205 78q80 77 80 178q0 111 -75 185t-210 74h-322zM1051 1479v-191h-691v-393h334q228 0 359 -125q133 -124 133 -326q0 -199 -137 -321q-135 -123 -355 -123h-551v1479h908z" />
    <glyph glyph-name="afii10019" unicode="&#x412;" horiz-adv-x="1304" 
d="M696 664h-336v-474h336q134 0 210.5 62t76.5 174t-76.5 175t-210.5 63zM143 0v1479h469q248 0 380 -94t132 -277q0 -129 -65.5 -221.5t-175.5 -118.5q319 -55 319 -369q0 -184 -139 -293q-135 -106 -352 -106h-568zM643 1288h-283v-434h283q123 0 192.5 59t69.5 158
t-69.5 158t-192.5 59z" />
    <glyph glyph-name="afii10020" unicode="&#x413;" horiz-adv-x="1069" 
d="M1038 1288h-678v-1288h-217v1479h895v-191z" />
    <glyph glyph-name="afii10021" unicode="&#x414;" horiz-adv-x="1492" 
d="M31 -379v569h147q41 62 90 158q32 63 68 191q67 224 67 749v191h834v-1289h174v-569h-215v379h-950v-379h-215zM418 190h602v1098h-399q0 -512 -62 -751q-37 -131 -61 -189q-29 -69 -80 -158z" />
    <glyph glyph-name="afii10022" unicode="&#x415;" horiz-adv-x="1161" 
d="M1018 664h-658v-474h719v-190h-936v1479h934v-191h-717v-434h658v-190z" />
    <glyph glyph-name="afii10024" unicode="&#x416;" horiz-adv-x="2060" 
d="M342 1096q-26 141 -55 184q-26 39 -82 39q-41 0 -82 -21l-31 154q76 55 170 55q125 0 184.5 -78.5t90.5 -254.5q36 -189 71 -250q40 -70 152 -70h162v625h217v-625h161q110 0 150 70q40 69 74 250q31 176 90 254.5t184 78.5q94 0 170 -55l-31 -154q-40 21 -82 21
q-57 0 -83 -39q-27 -41 -54 -184q-27 -139 -67 -217t-117 -117q170 -70 223 -316q38 -185 64 -235q26 -51 80 -51q38 0 77 20l31 -153q-77 -56 -170 -56q-123 0 -190 119q-49 91 -88 256l-17 82q-11 72 -31 127q-10 33 -21.5 46.5t-39.5 33.5q-36 29 -131 29h-182v-664h-217
v664h-183q-66 0 -102.5 -14.5t-67.5 -45.5q-20 -22 -41 -104q-3 -15 -14 -75.5t-14 -78.5q-39 -166 -90 -256q-64 -119 -189 -119q-93 0 -170 56l31 153q39 -20 78 -20q54 0 80 51q24 47 63 235q46 246 221 316q-79 39 -117.5 116.5t-64.5 217.5z" />
    <glyph glyph-name="afii10025" unicode="&#x417;" horiz-adv-x="1325" 
d="M653 -29q-82 0 -156 15.5t-145.5 53.5t-124.5 97t-88.5 153t-42.5 214l223 28q7 -195 91 -282.5t243 -87.5q168 0 259.5 71.5t91.5 192.5q0 112 -76.5 175t-210.5 63h-178v190h178q118 0 184 69.5t66 176.5q0 100 -73 158.5t-210 58.5q-168 0 -248 -74q-77 -74 -86 -276
l-223 28q7 145 59 251t138 161q160 100 360 100q214 0 352 -108q140 -110 140 -291q0 -124 -80 -219q-75 -93 -193 -121q320 -56 320 -369q0 -187 -158 -309q-155 -119 -412 -119z" />
    <glyph glyph-name="afii10026" unicode="&#x418;" horiz-adv-x="1458" 
d="M1098 1145l-717 -1145h-238v1479h217v-1145l719 1145h236v-1479h-217v1145z" />
    <glyph glyph-name="afii10027" unicode="&#x419;" horiz-adv-x="1458" 
d="M369 1845l200 17q0 -162 160 -162t160 162l201 -17q0 -289 -361 -289q-360 0 -360 289zM1098 1145l-717 -1145h-238v1479h217v-1145l719 1145h236v-1479h-217v1145z" />
    <glyph glyph-name="afii10028" unicode="&#x41a;" horiz-adv-x="1343" 
d="M1040 446q38 -185 64 -235q26 -51 80 -51q39 0 78 20l30 -153q-77 -56 -170 -56q-123 0 -190 119q-49 91 -88 256l-17 82q-11 77 -30 127q-10 32 -21.5 46t-40.5 34q-36 29 -131 29h-244v-664h-217v1479h217v-625h224q109 0 149 70q40 69 74 250q31 176 90 254.5
t184 78.5q94 0 170 -55l-30 -154q-41 21 -82 21q-58 0 -84 -39q-27 -41 -54 -184q-27 -139 -67 -217t-117 -117q170 -70 223 -316z" />
    <glyph glyph-name="afii10029" unicode="&#x41b;" horiz-adv-x="1435" 
d="M367 1288v191h925v-1479h-217v1288h-483q0 -279 -8 -440q-13 -402 -72 -586q-62 -205 -184 -262q-60 -31 -151.5 -29.5t-166.5 41.5l41 174q49 -22 115 -22q79 0 119 67q37 62 59 312q23 266 23 745z" />
    <glyph glyph-name="afii10030" unicode="&#x41c;" horiz-adv-x="1722" 
d="M143 0v1479h344l373 -1088l375 1088h344v-1479h-215v1227h-12l-422 -1227h-137l-422 1227h-13v-1227h-215z" />
    <glyph glyph-name="afii10031" unicode="&#x41d;" horiz-adv-x="1417" 
d="M1057 664h-697v-664h-217v1479h217v-625h697v625h217v-1479h-217v664z" />
    <glyph glyph-name="afii10032" unicode="&#x41e;" horiz-adv-x="1548" 
d="M1466 739q0 -347 -186 -557q-184 -211 -506 -211q-321 0 -508 211q-184 211 -184 557t184 557q187 211 508 211q320 0 506 -213q186 -210 186 -555zM1120 319q123 159 123 420q0 262 -123 418q-121 160 -346 160q-224 0 -348 -160q-121 -157 -121 -418q0 -260 121 -420
q124 -157 348 -157q225 0 346 157z" />
    <glyph glyph-name="afii10033" unicode="&#x41f;" horiz-adv-x="1417" 
d="M1057 1288h-697v-1288h-217v1479h1131v-1479h-217v1288z" />
    <glyph glyph-name="afii10034" unicode="&#x420;" horiz-adv-x="1275" 
d="M633 512h-273v-512h-217v1479h488q275 0 424 -126t149 -354q0 -229 -150.5 -358t-420.5 -129zM360 1288v-586h283q165 0 249.5 85t84.5 223q0 278 -334 278h-283z" />
    <glyph glyph-name="afii10035" unicode="&#x421;" horiz-adv-x="1370" 
d="M717 1317q-212 0 -312 -140t-100 -446q0 -307 109 -440q108 -129 303 -129q159 0 253 98t101 293l223 -29q-7 -146 -60 -258t-140 -174q-167 -121 -377 -121q-299 0 -467 195t-168 565q0 367 164.5 571.5t470.5 204.5q211 0 377 -110q87 -58 140 -167t60 -255l-223 -29
q-15 371 -354 371z" />
    <glyph glyph-name="afii10036" unicode="&#x422;" horiz-adv-x="1232" 
d="M31 1288v191h1171v-191h-477v-1288h-217v1288h-477z" />
    <glyph glyph-name="afii10037" unicode="&#x423;" horiz-adv-x="1337" 
d="M1100 1479h207l-473 -1209q-62 -159 -143.5 -230t-203.5 -71q-117 0 -186.5 57t-69.5 173q0 58 31 137h178q-18 -58 -18 -117q0 -41 21 -64.5t57 -23.5q73 0 135 160l-584 1188h242l450 -910z" />
    <glyph glyph-name="afii10038" unicode="&#x424;" horiz-adv-x="1695" 
d="M956 207v-207h-217v207q-331 0 -494 135.5t-163 431.5t163 431.5t494 135.5v195h217v-195q332 0 495 -135.5t163 -431.5t-163 -431.5t-495 -135.5zM956 1151v-754q105 0 174 14t134 50q133 72 133 313t-133 313q-65 36 -134 50t-174 14zM739 397v754q-105 0 -174 -14
t-135 -50q-131 -73 -131 -313t131 -313q66 -36 135 -50t174 -14z" />
    <glyph glyph-name="afii10039" unicode="&#x425;" horiz-adv-x="1351" 
d="M797 774l503 -774h-260l-374 578l-387 -578h-228l502 750l-471 729h260l344 -533l356 533h228z" />
    <glyph glyph-name="afii10040" unicode="&#x426;" horiz-adv-x="1499" 
d="M143 1479h217v-1289h697v1289h217v-1289h174v-569h-215v379h-1090v1479z" />
    <glyph glyph-name="afii10041" unicode="&#x427;" horiz-adv-x="1253" 
d="M1110 1479v-1479h-217v612q-174 -77 -432 -77q-190 0 -295 117t-105 337v490h218v-490q0 -161 65 -211q67 -49 221 -49q155 0 328 66v684h217z" />
    <glyph glyph-name="afii10042" unicode="&#x428;" horiz-adv-x="2105" 
d="M143 1479h217v-1289h584v1289h217v-1289h586v1289h215v-1479h-1819v1479z" />
    <glyph glyph-name="afii10043" unicode="&#x429;" horiz-adv-x="2187" 
d="M143 1479h217v-1289h584v1289h217v-1289h586v1289h215v-1289h174v-569h-215v379h-1778v1479z" />
    <glyph glyph-name="afii10044" unicode="&#x42a;" horiz-adv-x="1515" 
d="M649 1479v-584h334q227 0 358 -125q134 -125 134 -326q0 -198 -138 -321q-135 -123 -354 -123h-551v1288h-391v191h608zM649 705v-515h322q124 0 205 78q79 76 79 178q0 111 -74.5 185t-209.5 74h-322z" />
    <glyph glyph-name="afii10045" unicode="&#x42b;" horiz-adv-x="1720" 
d="M1360 1479h217v-1479h-217v1479zM360 705v-515h322q124 0 205 78q80 77 80 178q0 111 -75 185t-210 74h-322zM360 1479v-584h334q228 0 359 -125q133 -124 133 -326q0 -199 -137 -321q-135 -123 -355 -123h-551v1479h217z" />
    <glyph glyph-name="afii10046" unicode="&#x42c;" horiz-adv-x="1226" 
d="M360 705v-515h322q124 0 205 78q80 77 80 178q0 111 -75 185t-210 74h-322zM360 1479v-584h334q228 0 359 -125q133 -124 133 -326q0 -199 -137 -321q-135 -123 -355 -123h-551v1479h217z" />
    <glyph glyph-name="afii10047" unicode="&#x42d;" horiz-adv-x="1370" 
d="M674 1317q-169 0 -259 -81t-96 -269l-223 28q7 145 60 251t141 161q155 100 377 100q304 0 459 -201t155 -575q0 -370 -168 -565t-467 -195q-209 0 -377 111q-87 58 -140 167t-60 255l223 28q15 -370 354 -370q389 0 410 502h-565v190h563q-17 242 -109 352.5t-278 110.5
z" />
    <glyph glyph-name="afii10048" unicode="&#x42e;" horiz-adv-x="2080" 
d="M616 664h-256v-664h-217v1479h217v-625h258q30 297 211 475t478 178q319 0 505 -213q187 -211 187 -555q0 -346 -187 -557q-184 -211 -505 -211q-305 0 -488 189q-182 188 -203 504zM1653 319q123 159 123 420q0 262 -123 418q-121 160 -346 160t-349 -160
q-120 -156 -120 -418q0 -261 120 -420q124 -157 349 -157t346 157z" />
    <glyph glyph-name="afii10049" unicode="&#x42f;" horiz-adv-x="1384" 
d="M180 1047q0 432 533 432h528v-1479h-217v582h-285q-84 -6 -122 -24.5t-60 -70.5q-19 -52 -22 -63l-17 -86l-18 -94q-33 -149 -94.5 -211t-184.5 -62q-93 0 -170 56l31 153q39 -20 78 -20q59 0 92.5 46t50.5 159q27 202 166 288q-139 36 -214 140.5t-75 253.5zM1024 772
v516h-313q-314 0 -314 -248q0 -123 76 -195.5t238 -72.5h313z" />
    <glyph glyph-name="afii10065" unicode="&#x430;" horiz-adv-x="1093" 
d="M653 248q22 36 29 70t12 122q-426 0 -426 -192q0 -62 38.5 -100.5t105.5 -38.5q70 0 134.5 36t106.5 103zM1008 170l69 -90q-50 -63 -84.5 -86t-87.5 -23q-76 0 -121 44t-51 132q-114 -176 -371 -176q-135 0 -212.5 70.5t-77.5 189.5q0 149 143 240q143 94 479 94
q4 102 4 103q-1 89 -48.5 122t-160.5 33q-198 0 -213 -174l-165 29q0 66 26 118t66.5 83t94.5 51.5t105.5 28.5t104.5 8q391 0 391 -301q0 -58 -6 -234q-4 -234 -4 -250q0 -57 49 -57q31 0 70 45z" />
    <glyph glyph-name="afii10066" unicode="&#x431;" horiz-adv-x="1087" 
d="M82 469v164l6 143q3 84 12 131q12 60 23 109q4 18 8 33.5t11 31t10.5 24t14.5 24.5t13.5 19.5t17.5 23t17 22.5q86 106 313 158q213 48 238 59q51 23 51 68h144q0 -155 -76 -219q-77 -62 -305 -105q-189 -34 -277 -125q-86 -89 -86 -297q105 234 375 234q220 0 323 -142
q105 -138 105 -356q0 -210 -123 -354t-346 -144t-346 144t-123 354zM817 469q0 334 -246 334q-132 0 -209 -86.5t-77 -247.5q0 -165 68.5 -249.5t197.5 -84.5t197.5 84.5t68.5 249.5z" />
    <glyph glyph-name="afii10067" unicode="&#x432;" horiz-adv-x="997" 
d="M545 784h-223v-233h223q63 0 97 35t34 82q0 52 -32.5 84t-98.5 32zM322 408v-254h235q90 0 129 29.5t39 97.5q0 127 -176 127h-227zM123 0v938h434q152 0 233.5 -58.5t81.5 -162.5q0 -188 -155 -240q96 -7 152.5 -63.5t56.5 -143.5q0 -270 -342 -270h-461z" />
    <glyph glyph-name="afii10068" unicode="&#x433;" horiz-adv-x="798" 
d="M768 938v-164h-446v-774h-199v938h645z" />
    <glyph glyph-name="afii10069" unicode="&#x434;" horiz-adv-x="1107" 
d="M934 938v-774h143v-463h-184v299h-678v-299h-184v463h116q73 102 109 242q33 126 33 368v164h645zM733 164v610h-264q0 -236 -27 -368q-28 -136 -88 -242h379z" />
    <glyph glyph-name="afii10070" unicode="&#x435;" horiz-adv-x="1021" 
d="M944 418h-659q0 -283 254 -283q106 0 152.5 39t60.5 137l176 -20q-17 -149 -120.5 -234.5t-268.5 -85.5q-220 0 -338.5 131.5t-118.5 366.5q0 233 113 365.5t329 132.5q207 0 313.5 -140t106.5 -409zM522 823q-114 0 -172.5 -60t-64.5 -192h452q-9 252 -215 252z" />
    <glyph glyph-name="afii10072" unicode="&#x436;" horiz-adv-x="1554" 
d="M256 694q-17 79 -35.5 106t-54.5 27q-24 0 -51 -12l-27 115q64 37 127 37q94 0 140 -54.5t71 -169.5q24 -109 51 -147q27 -35 119 -35h86v377h190v-377h86q90 0 117 35q30 42 53 147q25 115 71 169.5t140 54.5q63 0 127 -37l-26 -115q-27 12 -51 12q-36 0 -55 -27.5
t-36 -105.5q-19 -86 -49.5 -136t-89.5 -75q130 -46 168 -200q27 -117 43 -146q14 -26 53 -26q27 0 54 12l26 -115q-64 -37 -145 -37q-87 0 -130 57t-71 191q-21 109 -55 143q-35 35 -144 35h-86v-397h-190v397h-86q-108 0 -143 -35t-56 -143q-28 -134 -70.5 -191t-129.5 -57
q-82 0 -146 37l27 115q27 -12 53 -12q37 0 51 26q19 35 45 146q38 154 168 200q-109 47 -139 211z" />
    <glyph glyph-name="afii10073" unicode="&#x437;" horiz-adv-x="944" 
d="M489 -29q-181 0 -299 86q-115 87 -124 234l196 20q7 -90 67.5 -138t159.5 -48q87 0 135 38.5t48 106.5q0 60 -43.5 93.5t-112.5 33.5h-141v164h137q67 0 100 39t33 92t-40 87t-120 34q-98 0 -143.5 -36.5t-58.5 -129.5l-197 21q13 144 119.5 221.5t279.5 77.5
q164 0 260 -78q97 -79 97 -182q0 -169 -178 -230q93 -7 150.5 -68.5t57.5 -148.5q0 -137 -110 -213t-273 -76z" />
    <glyph glyph-name="afii10074" unicode="&#x438;" horiz-adv-x="1140" 
d="M1018 938v-938h-199v705l-457 -705h-239v938h199v-705l456 705h240z" />
    <glyph glyph-name="afii10075" unicode="&#x439;" horiz-adv-x="1140" 
d="M1018 938v-938h-199v705l-457 -705h-239v938h199v-705l456 705h240zM569 1057q-319 0 -319 256l178 16q0 -145 141 -145q144 0 144 145l178 -16q0 -256 -322 -256z" />
    <glyph glyph-name="afii10076" unicode="&#x43a;" horiz-adv-x="1036" 
d="M809 283q27 -117 43 -146q14 -26 53 -26q26 0 53 12l27 -115q-64 -37 -145 -37q-87 0 -130 57t-71 191q-15 74 -31 107q-30 71 -188 71h-107v-397h-190v938h190v-377h107q105 0 135 35q32 40 55 147q25 115 71 169.5t140 54.5q63 0 127 -37l-26 -115q-27 12 -52 12
q-36 0 -54.5 -27t-35.5 -106q-19 -86 -49.5 -136t-89.5 -75q130 -46 168 -200z" />
    <glyph glyph-name="afii10077" unicode="&#x43b;" horiz-adv-x="1089" 
d="M254 938h713v-938h-199v774h-330q0 -330 -26 -493q-25 -166 -86.5 -237t-182.5 -71q-72 0 -123 39l35 146q36 -25 76 -25q25 0 40 8t33 43.5t27.5 102t16 188.5t6.5 299v164z" />
    <glyph glyph-name="afii10078" unicode="&#x43c;" horiz-adv-x="1355" 
d="M123 0v938h309l246 -637l246 637h309v-938h-199v737h-8l-278 -737h-140l-278 737h-8v-737h-199z" />
    <glyph glyph-name="afii10079" unicode="&#x43d;" horiz-adv-x="1120" 
d="M799 938h198v-938h-198v397h-477v-397h-199v938h199v-377h477v377z" />
    <glyph glyph-name="afii10080" unicode="&#x43e;" horiz-adv-x="1101" 
d="M897 115q-123 -144 -346 -144t-346 144t-123 354t123 354t346 144t346 -144t123 -354t-123 -354zM354 217q70 -82 197 -82t197 82q69 81 69 252q0 169 -69 250q-72 84 -197 84t-197 -84q-69 -81 -69 -250q0 -171 69 -252z" />
    <glyph glyph-name="afii10081" unicode="&#x43f;" horiz-adv-x="1120" 
d="M123 938h874v-938h-198v774h-477v-774h-199v938z" />
    <glyph glyph-name="afii10082" unicode="&#x440;" horiz-adv-x="1130" 
d="M322 143v-528h-199v1323h199v-123q122 152 296 152q207 0 318 -144q113 -140 113 -354q0 -209 -109 -354q-108 -144 -301 -144q-238 0 -317 172zM322 477q0 -160 69.5 -251t186.5 -91q124 0 196 85.5t72 256.5q0 326 -262 326q-119 0 -190.5 -86.5t-71.5 -239.5z" />
    <glyph glyph-name="afii10083" unicode="&#x441;" horiz-adv-x="999" 
d="M524 125q84 0 139.5 48t67.5 138l197 -20q-13 -147 -124 -233.5t-280 -86.5q-218 0 -330 130t-112 368t112 368t330 130q169 0 280 -86.5t124 -233.5l-197 -20q-12 90 -67.5 138t-139.5 48q-243 0 -243 -344t243 -344z" />
    <glyph glyph-name="afii10084" unicode="&#x442;" horiz-adv-x="890" 
d="M545 774v-774h-199v774h-315v164h829v-164h-315z" />
    <glyph glyph-name="afii10085" unicode="&#x443;" horiz-adv-x="1007" 
d="M795 938h182l-328 -999q-67 -205 -133 -277t-186 -72q-107 0 -170.5 51.5t-63.5 147.5q0 43 19 98l180 -20q-14 -49 -14 -82q0 -61 63 -61q75 0 115 202l-418 1012h211l305 -764z" />
    <glyph glyph-name="afii10086" unicode="&#x444;" horiz-adv-x="1550" 
d="M874 129v-514h-198v514q-77 -160 -252 -160q-168 0 -260 142q-92 145 -92 356q0 212 92 354q92 144 260 144q176 0 252 -166v577h198v-577q70 166 250 166q168 0 260 -144q95 -145 95 -354q0 -210 -93 -356q-92 -142 -262 -142q-179 0 -250 160zM868 463q1 -160 60 -248
t149 -88q215 0 215 336t-215 336q-89 0 -148.5 -89.5t-60.5 -246.5zM680 463q-1 157 -60.5 246.5t-148.5 89.5q-213 0 -213 -336t213 -336q90 0 149 88t60 248z" />
    <glyph glyph-name="afii10087" unicode="&#x445;" horiz-adv-x="997" 
d="M487 328l-245 -328h-201l348 465l-338 473h234l225 -315l235 315h201l-340 -451l350 -487h-233z" />
    <glyph glyph-name="afii10088" unicode="&#x446;" horiz-adv-x="1171" 
d="M799 938h198v-774h144v-463h-185v299h-833v938h199v-774h477v774z" />
    <glyph glyph-name="afii10089" unicode="&#x447;" horiz-adv-x="997" 
d="M854 0h-199v352q-152 -57 -309 -57q-155 0 -230 77t-75 240v326h199v-326q0 -85 42.5 -121t141.5 -36q112 0 231 45v438h199v-938z" />
    <glyph glyph-name="afii10090" unicode="&#x448;" horiz-adv-x="1579" 
d="M1257 938h199v-938h-1333v938h199v-774h368v774h199v-774h368v774z" />
    <glyph glyph-name="afii10091" unicode="&#x449;" horiz-adv-x="1630" 
d="M1257 938h199v-774h143v-463h-184v299h-1292v938h199v-774h368v774h199v-774h368v774z" />
    <glyph glyph-name="afii10092" unicode="&#x44a;" horiz-adv-x="1120" 
d="M702 449h-227v-285h227q87 0 132 37t45 104q0 144 -177 144zM737 0h-461v774h-245v164h444v-326h262q157 0 249.5 -81t92.5 -226q0 -142 -93 -223.5t-249 -81.5z" />
    <glyph glyph-name="afii10093" unicode="&#x44b;" horiz-adv-x="1355" 
d="M1233 0h-199v938h199v-938zM549 449h-227v-285h227q86 0 131 37t45 104q0 144 -176 144zM123 938h199v-326h262q157 0 249.5 -81t92.5 -226q0 -142 -93 -223.5t-249 -81.5h-461v938z" />
    <glyph glyph-name="afii10094" unicode="&#x44c;" horiz-adv-x="966" 
d="M549 449h-227v-285h227q86 0 131 37t45 104q0 144 -176 144zM123 938h199v-326h262q157 0 249.5 -81t92.5 -226q0 -142 -93 -223.5t-249 -81.5h-461v938z" />
    <glyph glyph-name="afii10095" unicode="&#x44d;" horiz-adv-x="999" 
d="M715 397h-355v164h353q-27 252 -238 252q-84 0 -139.5 -48t-67.5 -138l-196 20q13 147 123.5 233.5t279.5 86.5q218 0 330.5 -130t112.5 -368t-112.5 -368t-330.5 -130q-169 0 -279.5 86.5t-123.5 233.5l196 20q12 -90 67.5 -138t139.5 -48q219 0 240 272z" />
    <glyph glyph-name="afii10096" unicode="&#x44e;" horiz-adv-x="1490" 
d="M940 -29q-208 0 -328 123q-119 122 -137 312h-153v-406h-199v938h199v-369h155q30 179 151 288.5t312 109.5q223 0 346 -144t123 -354t-123 -354t-346 -144zM743 217q70 -82 197 -82t197 82q69 81 69 252q0 169 -69 250q-72 84 -197 84t-197 -84q-69 -81 -69 -250
q0 -171 69 -252z" />
    <glyph glyph-name="afii10097" unicode="&#x44f;" horiz-adv-x="1073" 
d="M516 510h236v274h-236q-168 0 -168 -139q0 -135 168 -135zM233 262q34 131 148 152q-104 20 -169 85t-65 169q0 270 342 270h461v-938h-198v367h-150q-99 0 -137 -35q-39 -36 -62 -133q-28 -121 -71 -174.5t-129 -53.5q-82 0 -146 37l27 115q27 -12 53 -12q36 0 51 24
q20 32 45 127z" />
    <glyph glyph-name="afii10071" unicode="&#x451;" horiz-adv-x="1021" 
d="M944 418h-659q0 -283 254 -283q106 0 152.5 39t60.5 137l176 -20q-17 -149 -120.5 -234.5t-268.5 -85.5q-220 0 -338.5 131.5t-118.5 366.5q0 233 113 365.5t329 132.5q207 0 313.5 -140t106.5 -409zM522 823q-114 0 -172.5 -60t-64.5 -192h452q-9 252 -215 252z
M602 1372h199v-225h-199v225zM213 1372h199v-225h-199v225z" />
    <glyph glyph-name="afii10099" unicode="&#x452;" horiz-adv-x="1099" 
d="M987 647v-794q0 -267 -287 -267q-52 0 -90.5 9.5t-76.5 35.5t-60.5 79.5t-28.5 133.5l183 21q0 -78 18.5 -112t61.5 -34q44 0 62.5 31t18.5 103v729q0 105 -47 161t-125 56q-105 0 -200 -92q-94 -91 -94 -224v-483h-199v1169h-123v152h123v158h192v-158h357v-152h-357
v-428q50 107 147 166.5t210 59.5q130 0 223 -84q92 -83 92 -236z" />
    <glyph glyph-name="afii10100" unicode="&#x453;" horiz-adv-x="798" 
d="M768 938v-164h-446v-774h-199v938h645zM764 1456l-287 -326h-115l158 326h244z" />
    <glyph glyph-name="afii10101" unicode="&#x454;" horiz-adv-x="999" 
d="M285 561h354v-164h-356q27 -272 241 -272q84 0 139.5 48t67.5 138l197 -20q-13 -147 -124 -233.5t-280 -86.5q-218 0 -330 130t-112 368t112 368t330 130q169 0 280 -86.5t124 -233.5l-197 -20q-12 90 -67.5 138t-139.5 48q-204 0 -239 -252z" />
    <glyph glyph-name="afii10102" unicode="&#x455;" horiz-adv-x="937" 
d="M846 662l-191 -21q-12 182 -190 182q-79 0 -123.5 -36.5t-44.5 -98.5q0 -46 52 -72.5t149 -46.5q56 -8 101.5 -19t98 -34t87.5 -54.5t58.5 -83t22.5 -116.5q0 -138 -100 -214.5t-285 -76.5q-166 0 -278 64q-122 72 -131 280l188 21q6 -115 60 -168t163 -53q92 0 142.5 39
t50.5 108q0 95 -201 123q-48 7 -84.5 14.5t-83 22t-80 36.5t-63 52.5t-44.5 76t-14 101.5q0 134 95 206.5t268 72.5q353 0 377 -305z" />
    <glyph glyph-name="afii10103" unicode="&#x456;" horiz-adv-x="444" 
d="M123 938h199v-938h-199v938zM123 1393h199v-246h-199v246z" />
    <glyph glyph-name="afii10104" unicode="&#x457;" horiz-adv-x="444" 
d="M297 1372h199v-225h-199v225zM-51 1372h198v-225h-198v225zM123 938h199v-938h-199v938z" />
    <glyph glyph-name="afii10105" unicode="&#x458;" horiz-adv-x="444" 
d="M123 -147v1085h199v-1085q0 -267 -287 -267q-52 0 -90.5 9.5t-76.5 35.5t-60.5 79.5t-28.5 133.5l182 21q0 -78 18.5 -112t61.5 -34q44 0 63 31t19 103zM123 1393h199v-246h-199v246z" />
    <glyph glyph-name="afii10106" unicode="&#x459;" horiz-adv-x="1611" 
d="M254 938h713v-326h262q157 0 249.5 -81t92.5 -226q0 -142 -93 -223.5t-249 -81.5h-461v774h-330q0 -330 -26 -493q-25 -166 -86.5 -237t-182.5 -71q-72 0 -123 39l35 146q36 -25 76 -25q25 0 40 8t33 43.5t27.5 102t16 188.5t6.5 299v164zM1194 449h-227v-285h227
q86 0 131 37t45 104q0 144 -176 144z" />
    <glyph glyph-name="afii10107" unicode="&#x45a;" horiz-adv-x="1642" 
d="M799 938h198v-326h263q157 0 249.5 -81t92.5 -226q0 -142 -93 -223.5t-249 -81.5h-461v449h-477v-449h-199v938h199v-326h477v326zM1225 449h-228v-285h228q86 0 131 37t45 104q0 144 -176 144z" />
    <glyph glyph-name="afii10108" unicode="&#x45b;" horiz-adv-x="1099" 
d="M123 1479h192v-158h357v-152h-357v-428q50 107 147 166.5t210 59.5q130 0 223 -84q92 -83 92 -236v-647h-199v582q0 105 -47 161t-125 56q-105 0 -200 -92q-94 -91 -94 -224v-483h-199v1169h-123v152h123v158z" />
    <glyph glyph-name="afii10109" unicode="&#x45c;" horiz-adv-x="1036" 
d="M809 283q27 -117 43 -146q14 -26 53 -26q26 0 53 12l27 -115q-64 -37 -145 -37q-87 0 -130 57t-71 191q-19 83 -33.5 111.5t-54.5 46.5q-41 20 -131 20h-107v-397h-190v938h190v-377h107q105 0 135 35q32 40 55 147q25 115 71 169.5t140 54.5q63 0 127 -37l-26 -115
q-27 12 -52 12q-36 0 -54.5 -27t-35.5 -106q-19 -86 -49.5 -136t-89.5 -75q130 -46 168 -200zM801 1456l-287 -326h-115l158 326h244z" />
    <glyph glyph-name="afii10110" unicode="&#x45e;" horiz-adv-x="1007" 
d="M537 1057q-320 0 -320 256l178 16q0 -145 142 -145q143 0 143 145l178 -16q0 -256 -321 -256zM795 938h182l-328 -999q-67 -205 -133 -277t-186 -72q-107 0 -170.5 51.5t-63.5 147.5q0 43 19 98l180 -20q-14 -49 -14 -82q0 -61 63 -61q75 0 115 202l-418 1012h211
l305 -764z" />
    <glyph glyph-name="afii10193" unicode="&#x45f;" horiz-adv-x="1171" 
d="M799 938h198v-938h-346v-299h-182v299h-346v938h199v-774h477v774z" />
    <glyph glyph-name="afii10050" unicode="&#x490;" horiz-adv-x="1069" 
d="M143 1479h719v366h176v-557h-678v-1288h-217v1479z" />
    <glyph glyph-name="afii10098" unicode="&#x491;" horiz-adv-x="798" 
d="M768 1221v-447h-446v-774h-199v938h487v283h158z" />
    <glyph glyph-name="endash" unicode="&#x2013;" horiz-adv-x="1327" 
d="M1204 637v-164h-1081v164h1081z" />
    <glyph glyph-name="emdash" unicode="&#x2014;" horiz-adv-x="1783" 
d="M1784 637v-164h-1784v164h1784z" />
    <glyph glyph-name="quoteleft" unicode="&#x2018;" horiz-adv-x="481" 
d="M358 1208v-237h-235q-19 111 -19 237q0 173 226 291l51 -92q-145 -68 -145 -199h122z" />
    <glyph glyph-name="quoteright" unicode="&#x2019;" horiz-adv-x="481" 
d="M123 1479h235q19 -111 19 -238q0 -174 -225 -291l-52 92q146 68 146 199h-123v238z" />
    <glyph glyph-name="quotesinglbase" unicode="&#x201a;" horiz-adv-x="481" 
d="M123 238h235q19 -111 19 -238q0 -174 -225 -291l-52 92q146 68 146 199h-123v238z" />
    <glyph glyph-name="quotedblleft" unicode="&#x201c;" horiz-adv-x="831" 
d="M358 1208v-237h-235q-19 111 -19 237q0 173 226 291l51 -92q-145 -68 -145 -199h122zM709 1208v-237h-236q-18 105 -18 237q0 174 225 291l51 -92q-145 -68 -145 -199h123z" />
    <glyph glyph-name="quotedblright" unicode="&#x201d;" horiz-adv-x="831" 
d="M473 1479h236q18 -105 18 -238q0 -174 -225 -291l-51 92q145 68 145 199h-123v238zM123 1479h235q19 -111 19 -238q0 -174 -225 -291l-52 92q146 68 146 199h-123v238z" />
    <glyph glyph-name="quotedblbase" unicode="&#x201e;" horiz-adv-x="831" 
d="M473 238h236q18 -105 18 -238q0 -174 -225 -291l-51 92q145 68 145 199h-123v238zM123 238h235q19 -111 19 -238q0 -174 -225 -291l-52 92q146 68 146 199h-123v238z" />
    <glyph glyph-name="dagger" unicode="&#x2020;" horiz-adv-x="1138" 
d="M649 803v-1188h-160v1188h-366v155h366v521h160v-521h367v-155h-367z" />
    <glyph glyph-name="daggerdbl" unicode="&#x2021;" horiz-adv-x="1138" 
d="M649 135v-520h-160v520h-366v156h366v512h-366v155h366v521h160v-521h367v-155h-367v-512h367v-156h-367z" />
    <glyph glyph-name="bullet" unicode="&#x2022;" horiz-adv-x="704" 
d="M102 651q0 106 71 177t179 71q106 0 178 -71t72 -177q0 -110 -72 -184t-178 -74q-109 0 -179.5 73t-70.5 185z" />
    <glyph glyph-name="ellipsis" unicode="&#x2026;" horiz-adv-x="1443" 
d="M123 238h235v-238h-235v238zM604 238h236v-238h-236v238zM1085 238h236v-238h-236v238z" />
    <glyph glyph-name="perthousand" unicode="&#x2030;" horiz-adv-x="2414" 
d="M2228 74q-82 -105 -233 -105q-154 0 -236 105q-82 104 -82 266t82 266q82 105 236 105q151 0 233 -105q84 -107 84 -266t-84 -266zM1878 141q40 -55 117 -55t114 55q39 53 39 199t-39 199q-37 55 -114 55t-117 -55q-37 -55 -37 -199t37 -199zM1491 74q-83 -105 -234 -105
q-153 0 -235 105q-82 104 -82 266t82 266q82 105 235 105q151 0 234 -105q84 -107 84 -266t-84 -266zM1141 141q40 -55 116 -55q78 0 115 55q39 53 39 199t-39 199q-37 55 -115 55q-76 0 -116 -55q-37 -55 -37 -199t37 -199zM653 778q-82 -104 -233 -104q-154 0 -236 104
t-82 266q0 163 82 267t236 104q151 0 233 -104q84 -107 84 -267q0 -159 -84 -266zM303 846q40 -55 117 -55q78 0 115 55q38 52 38 198q0 147 -38 199q-37 55 -115 55q-77 0 -117 -55q-37 -55 -37 -199q0 -143 37 -198zM1436 1386l-1020 -1386h-172l1022 1386h170z" />
    <glyph glyph-name="guilsinglleft" unicode="&#x2039;" horiz-adv-x="651" 
d="M610 969l-291 -457l291 -457h-211l-307 457l307 457h211z" />
    <glyph glyph-name="guilsinglright" unicode="&#x203a;" horiz-adv-x="651" 
d="M252 55h-211l291 457l-291 457h211l307 -457z" />
    <glyph glyph-name="fraction" unicode="&#x2044;" horiz-adv-x="1536" 
d="M1364 1386l-1020 -1386h-172l1022 1386h170z" />
    <glyph glyph-name="Euro" unicode="&#x20ac;" horiz-adv-x="1259" 
d="M0 457v168h109q-5 63 -5 114v21h-104v168h115q36 273 166 426t350 153q230 0 350.5 -102t157.5 -332l-211 -33q-42 151 -107 214t-190 63q-253 0 -299 -389h559l-62 -168h-507v-21q0 -89 2 -114h467l-62 -168h-383q64 -295 285 -295q126 0 192 67t105 230l211 -33
q-37 -234 -160 -344.5t-348 -110.5q-200 0 -327.5 127.5t-172.5 358.5h-131z" />
    <glyph glyph-name="uni20BD" unicode="&#x20bd;" horiz-adv-x="1351" 
d="M0 211v168h143v133h-143v168h143v799h488q275 0 424 -126t149 -354q0 -229 -150.5 -358t-420.5 -129h-273v-133h482v-168h-482v-211h-217v211h-143zM360 1288v-608h283q172 0 252 92q82 94 82 227q0 135 -81 212t-253 77h-283z" />
    <glyph glyph-name="afii61352" unicode="&#x2116;" horiz-adv-x="2211" 
d="M1077 319h8v859q0 166 49 247.5t173 81.5q94 0 170 -55l-31 -154q-40 21 -82 21q-40 0 -64 -44.5t-24 -96.5v-1178h-262l-692 1159h-9v-1159h-190v1479h262zM2046 717q-82 -105 -234 -105t-235 105q-82 104 -82 266t82 266q83 105 235 105t234 -105q84 -107 84 -266
t-84 -266zM1696 784q40 -55 116 -55q78 0 115 55q39 53 39 199t-39 199q-37 55 -115 55q-76 0 -116 -55q-37 -55 -37 -199t37 -199zM2130 514v-117h-635v117h635z" />
    <glyph glyph-name="trademark" unicode="&#x2122;" horiz-adv-x="1949" 
d="M881 664v815h268l215 -557l213 557h270v-815h-172v641h-8l-244 -641h-120l-242 641h-8v-641h-172zM500 1335v-671h-174v671h-275v144h723v-144h-274z" />
    <glyph glyph-name="Omega" unicode="&#x2126;" horiz-adv-x="1583" 
d="M700 418v-418h-581v190h416v95q-192 39 -304 196t-112 396q0 315 182 471q185 159 490 159q307 0 489 -159q182 -156 182 -471q0 -240 -111 -396.5t-302 -193.5v-97h413v-190h-579v418q168 18 250 117q86 100 86 342q0 440 -428 440q-426 0 -426 -440q0 -241 84 -342
q83 -99 251 -117z" />
    <glyph glyph-name="partialdiff" unicode="&#x2202;" horiz-adv-x="1169" 
d="M555 1477q150 0 262 -59.5t170 -164.5q113 -194 113 -456q0 -234 -58 -414q-58 -187 -189.5 -299.5t-317.5 -112.5q-214 0 -345 125q-129 126 -129 344q0 203 132 353q132 153 362 153q86 0 186 -35q102 -35 152 -106q0 233 -82 373q-82 143 -266 143q-139 0 -254 -92
l-68 121q62 52 152 89.5t180 37.5zM545 135q137 0 223 111q88 113 88 274q0 119 -78.5 197t-204.5 78q-133 0 -215 -98t-82 -253q0 -153 73.5 -231t195.5 -78z" />
    <glyph glyph-name="increment" unicode="&#x2206;" horiz-adv-x="1421" 
d="M1329 0h-1237v164l533 1315h172l532 -1315v-164zM1128 190l-417 1049l-418 -1049h835z" />
    <glyph glyph-name="product" unicode="&#x220f;" horiz-adv-x="1417" 
d="M1376 1288h-102v-1288h-217v1288h-697v-1288h-217v1288h-102v191h1335v-191z" />
    <glyph glyph-name="summation" unicode="&#x2211;" horiz-adv-x="1372" 
d="M82 113l518 649l-518 606v111h1128v-191h-804l440 -526l-445 -572h861v-190h-1180v113z" />
    <glyph glyph-name="minus" unicode="&#x2212;" horiz-adv-x="1183" 
d="M1040 754v-156h-893v156h893z" />
    <glyph glyph-name="radical" unicode="&#x221a;" horiz-adv-x="1329" 
d="M698 193l260 1376h293v-115h-200l-299 -1489h-80l-430 883l-109 -53l-37 92l213 106z" />
    <glyph glyph-name="infinity" unicode="&#x221e;" horiz-adv-x="1439" 
d="M788 649v-8q49 -59 117.5 -102t118.5 -43q71 0 119.5 45t48.5 104t-48.5 104.5t-119.5 45.5q-50 0 -118.5 -43.5t-117.5 -102.5zM752 434l-70 72h-8q-60 -66 -92 -94q-38 -36 -106.5 -65.5t-139.5 -29.5q-147 0 -244 97q-94 98 -94 231t94 227q97 97 244 97q78 0 145 -31
q63 -27 100 -58t97 -100q57 60 94 94q40 39 109.5 67t142.5 28q147 0 244 -97q94 -94 94 -227t-94 -231q-97 -97 -244 -97q-122 0 -205 62q-46 35 -67 55zM571 641v8q-49 59 -117 102.5t-118 43.5q-71 0 -119.5 -45.5t-48.5 -104.5t48.5 -104t119.5 -45q50 0 118 43t117 102
z" />
    <glyph glyph-name="integral" unicode="&#x222b;" horiz-adv-x="862" 
d="M188 -211q62 0 103 59t41 234q0 139 -21 432q-20 279 -20 422q0 668 362 668q187 0 187 -154q0 -40 -25 -70t-65 -30q-48 0 -74.5 29t-26.5 75q0 41 35 82q-26 0 -46 -5t-44.5 -23.5t-41 -50t-27.5 -90.5t-11 -140q0 -135 21 -439q20 -287 20 -430q0 -205 -61 -385
q-33 -108 -104 -172.5t-167 -64.5q-91 0 -147 43t-56 112q0 39 26 70t65 31q42 0 71 -31t29 -74q0 -60 -49 -94l12 -2l9 -1.5t5 -0.5z" />
    <glyph glyph-name="approxequal" unicode="&#x2248;" horiz-adv-x="1173" 
d="M369 434q-40 0 -91 -34.5t-92 -94.5l-104 78q83 115 157.5 160t174.5 45q90 0 215 -76q127 -74 180 -74q90 0 178 125l109 -76q-83 -120 -154.5 -163t-177.5 -43q-89 0 -213 75q-128 78 -182 78zM369 844q-40 0 -91 -33.5t-92 -91.5l-104 74q83 115 157.5 159.5
t174.5 44.5q91 0 215 -75q127 -74 180 -74q90 0 178 125l109 -76q-83 -117 -155.5 -160t-176.5 -43q-85 0 -215 74q-125 76 -180 76z" />
    <glyph glyph-name="notequal" unicode="&#x2260;" horiz-adv-x="1183" 
d="M1040 545v-156h-522l-121 -207l-135 84l70 123h-185v156h281l156 258h-437v155h537l125 209l135 -86l-74 -123h170v-155h-266l-160 -258h426z" />
    <glyph glyph-name="lessequal" unicode="&#x2264;" horiz-adv-x="1183" 
d="M1040 508v-174l-893 375v57l893 375v-172l-548 -232zM1040 188v-155h-893v155h893z" />
    <glyph glyph-name="greaterequal" unicode="&#x2265;" horiz-adv-x="1183" 
d="M1040 766v-57l-893 -375v174l549 229l-549 232v172zM1040 188v-155h-893v155h893z" />
    <glyph glyph-name="lozenge" unicode="&#x25ca;" horiz-adv-x="1220" 
d="M571 1479h76l471 -740l-471 -739h-76l-469 739zM283 739l325 -516l330 516l-330 514z" />
    <glyph glyph-name="cyrBreve" unicode="&#xf6d1;" horiz-adv-x="1458" 
d="M369 1845l200 17q0 -162 160 -162t160 162l201 -17q0 -289 -361 -289q-360 0 -360 289z" />
    <glyph glyph-name="cyrbreve" unicode="&#xf6d4;" horiz-adv-x="1140" 
d="M569 1057q-319 0 -319 256l178 16q0 -145 141 -145q144 0 144 145l178 -16q0 -256 -322 -256z" />
    <glyph glyph-name="NULL" horiz-adv-x="0" 
 />
    <glyph glyph-name="CR" horiz-adv-x="681" 
 />
    <glyph glyph-name="AEsmall" horiz-adv-x="1708" 
d="M1032 600h434v-184h-434v-232h594v-184h-811v190h-397l-148 -190h-239l772 991h784v-184h-555v-207zM815 375v330l-256 -330h256z" />
    <glyph glyph-name="Aacutesmall" horiz-adv-x="1179" 
d="M1149 0h-238l-88 190h-512l-88 -190h-192l458 991h201zM737 375l-170 370l-172 -370h342zM829 1456l-286 -326h-115l158 326h243z" />
    <glyph glyph-name="Acircumflexsmall" horiz-adv-x="1179" 
d="M1149 0h-238l-88 190h-512l-88 -190h-192l458 991h201zM737 375l-170 370l-172 -370h342zM590 1317l-184 -187h-115l198 326h203l199 -326h-115z" />
    <glyph glyph-name="Adieresissmall" horiz-adv-x="1179" 
d="M1149 0h-238l-88 190h-512l-88 -190h-192l458 991h201zM737 375l-170 370l-172 -370h342zM686 1372h199v-225h-199v225zM297 1372h199v-225h-199v225z" />
    <glyph glyph-name="Agravesmall" horiz-adv-x="1179" 
d="M1149 0h-238l-88 190h-512l-88 -190h-192l458 991h201zM737 375l-170 370l-172 -370h342zM610 1456l158 -326h-115l-286 326h243z" />
    <glyph glyph-name="Amacronsmall" horiz-adv-x="1179" 
d="M1149 0h-238l-88 190h-512l-88 -190h-192l458 991h201zM737 375l-170 370l-172 -370h342zM885 1362v-172h-590v172h590z" />
    <glyph glyph-name="Aogoneksmall" horiz-adv-x="1179" 
d="M911 0l-88 190h-512l-88 -190h-192l458 991h201l459 -991q-88 -35 -148.5 -89.5t-60.5 -98.5q0 -60 76 -60q50 0 102 27l31 -68q-84 -69 -209 -69q-76 0 -117 42t-41 113q0 55 34.5 111t94.5 92zM737 375l-170 370l-172 -370h342z" />
    <glyph glyph-name="Aringsmall" horiz-adv-x="1179" 
d="M1149 0h-238l-88 190h-512l-88 -190h-192l458 991h201zM737 375l-170 370l-172 -370h342zM590 1378q-33 0 -57.5 -23.5t-24.5 -58.5t24.5 -60.5t57.5 -25.5t57.5 25.5t24.5 60.5t-23.5 58.5t-58.5 23.5zM471 1176q-47 50 -47 121t47 118q47 49 119 49t119 -49
q48 -47 47.5 -118.5t-49.5 -120.5q-47 -50 -117 -50t-119 50z" />
    <glyph glyph-name="Asmall" horiz-adv-x="1179" 
d="M1149 0h-238l-88 190h-512l-88 -190h-192l458 991h201zM737 375l-170 370l-172 -370h342z" />
    <glyph glyph-name="Atildesmall" horiz-adv-x="1179" 
d="M1149 0h-238l-88 190h-512l-88 -190h-192l458 991h201zM737 375l-170 370l-172 -370h342zM485 1397q66 0 123 -45t88 -45q66 0 125 90l84 -56q-48 -107 -92.5 -148.5t-116.5 -41.5q-69 0 -129 45q-59 47 -82 47q-68 0 -127 -92l-84 57q48 107 93 148t118 41z" />
    <glyph glyph-name="Bsmall" horiz-adv-x="1112" 
d="M758 702q0 105 -148 105h-229v-207h229q148 0 148 102zM633 0h-469v991h440q193 0 282 -60t89 -186q0 -190 -195 -225q126 -13 190 -77.5t64 -170.5q0 -127 -109.5 -199.5t-291.5 -72.5zM633 416h-252v-232h252q102 0 143 28.5t41 86.5q0 59 -40 88t-144 29z" />
    <glyph glyph-name="Cacutesmall" horiz-adv-x="1155" 
d="M623 156q89 0 154.5 54t82.5 155l217 -21q-26 -184 -162 -281q-133 -92 -292 -92q-235 0 -385 144q-152 146 -152 379q0 234 152 380q155 146 385 146q161 0 286 -94q131 -96 158 -281l-217 -20q-17 102 -79.5 156.5t-147.5 54.5q-145 0 -229.5 -89.5t-84.5 -252.5
t84.5 -250.5t229.5 -87.5zM864 1456l-286 -326h-115l158 326h243z" />
    <glyph glyph-name="Ccaronsmall" horiz-adv-x="1155" 
d="M623 156q89 0 154.5 54t82.5 155l217 -21q-26 -184 -162 -281q-133 -92 -292 -92q-235 0 -385 144q-152 146 -152 379q0 234 152 380q155 146 385 146q161 0 286 -94q131 -96 158 -281l-217 -20q-17 102 -79.5 156.5t-147.5 54.5q-145 0 -229.5 -89.5t-84.5 -252.5
t84.5 -250.5t229.5 -87.5zM522 1130l-198 326h114l185 -186l186 186h115l-199 -326h-203z" />
    <glyph glyph-name="Ccedillasmall" horiz-adv-x="1155" 
d="M424 -336l25 78q47 -35 104 -35q84 0 84 60q0 67 -160 67l41 146q-194 30 -313 167t-119 347q0 234 152 380q155 146 385 146q161 0 286 -94q131 -96 158 -281l-217 -20q-17 102 -79.5 156.5t-147.5 54.5q-145 0 -229.5 -89.5t-84.5 -252.5t84.5 -250.5t229.5 -87.5
q89 0 154.5 54t82.5 155l217 -21q-27 -177 -153 -272q-124 -95 -281 -101l-22 -73q63 -2 103 -38t40 -98t-49 -103.5t-133 -41.5q-81 0 -158 47z" />
    <glyph glyph-name="Csmall" horiz-adv-x="1155" 
d="M623 156q89 0 154.5 54t82.5 155l217 -21q-26 -184 -162 -281q-133 -92 -292 -92q-235 0 -385 144q-152 146 -152 379q0 234 152 380q155 146 385 146q161 0 286 -94q131 -96 158 -281l-217 -20q-17 102 -79.5 156.5t-147.5 54.5q-145 0 -229.5 -89.5t-84.5 -252.5
t84.5 -250.5t229.5 -87.5z" />
    <glyph glyph-name="Dcaronsmall" horiz-adv-x="1204" 
d="M143 0v991h443q255 0 393 -141q139 -142 139 -354q0 -214 -141 -355t-395 -141h-439zM559 807h-199v-623h191q174 0 261 81.5t87 230.5q0 147 -85.5 229t-254.5 82zM489 1130l-198 326h115l184 -186l186 186h115l-199 -326h-203z" />
    <glyph glyph-name="Dcroatsmall" horiz-adv-x="1224" 
d="M164 600v391h442q255 0 393 -141q140 -143 140 -354q0 -213 -142 -355q-141 -141 -395 -141h-438v416h-123v184h123zM580 807h-199v-207h242v-184h-242v-232h190q174 0 261.5 81.5t87.5 230.5q0 147 -85.5 229t-254.5 82z" />
    <glyph glyph-name="Dsmall" horiz-adv-x="1204" 
d="M143 0v991h443q255 0 393 -141q139 -142 139 -354q0 -214 -141 -355t-395 -141h-439zM559 807h-199v-623h191q174 0 261 81.5t87 230.5q0 147 -85.5 229t-254.5 82z" />
    <glyph glyph-name="Eacutesmall" horiz-adv-x="1036" 
d="M360 600h435v-184h-435v-232h594v-184h-811v991h772v-184h-555v-207zM788 1456l-286 -326h-115l158 326h243z" />
    <glyph glyph-name="Ecaronsmall" horiz-adv-x="1036" 
d="M360 600h435v-184h-435v-232h594v-184h-811v991h772v-184h-555v-207zM428 1130l-199 326h115l184 -186l187 186h114l-198 -326h-203z" />
    <glyph glyph-name="Ecircumflexsmall" horiz-adv-x="1036" 
d="M360 600h435v-184h-435v-232h594v-184h-811v991h772v-184h-555v-207zM528 1317l-184 -187h-115l199 326h203l198 -326h-114z" />
    <glyph glyph-name="Edieresissmall" horiz-adv-x="1036" 
d="M360 600h435v-184h-435v-232h594v-184h-811v991h772v-184h-555v-207zM623 1372h198v-225h-198v225zM233 1372h199v-225h-199v225z" />
    <glyph glyph-name="Edotaccentsmall" horiz-adv-x="1036" 
d="M360 600h435v-184h-435v-232h594v-184h-811v991h772v-184h-555v-207zM430 1393h199v-246h-199v246z" />
    <glyph glyph-name="Egravesmall" horiz-adv-x="1036" 
d="M360 600h435v-184h-435v-232h594v-184h-811v991h772v-184h-555v-207zM590 1456l158 -326h-115l-287 326h244z" />
    <glyph glyph-name="Emacronsmall" horiz-adv-x="1036" 
d="M360 600h435v-184h-435v-232h594v-184h-811v991h772v-184h-555v-207zM829 1362v-172h-589v172h589z" />
    <glyph glyph-name="Eogoneksmall" horiz-adv-x="1036" 
d="M762 0h-619v991h772v-184h-555v-207h435v-184h-435v-232h594v-184q-88 -35 -148.5 -89.5t-60.5 -98.5q0 -60 76 -60q51 0 103 27l30 -68q-84 -69 -209 -69q-76 0 -116.5 42t-40.5 113q0 58 44.5 113t129.5 90z" />
    <glyph glyph-name="Esmall" horiz-adv-x="1036" 
d="M360 600h435v-184h-435v-232h594v-184h-811v991h772v-184h-555v-207z" />
    <glyph glyph-name="Ethsmall" horiz-adv-x="1224" 
d="M164 600v391h442q255 0 393 -141q140 -143 140 -354q0 -213 -142 -355q-141 -141 -395 -141h-438v416h-123v184h123zM580 807h-199v-207h242v-184h-242v-232h190q174 0 261.5 81.5t87.5 230.5q0 147 -85.5 229t-254.5 82z" />
    <glyph glyph-name="Euro.small" horiz-adv-x="1155" 
d="M0 301v115h90q-4 66 -4 78v16h-86v115h100q40 179 183 286q145 109 340 109q161 0 286 -94q131 -96 158 -281l-217 -20q-17 102 -79.5 156.5t-147.5 54.5q-113 0 -190.5 -54.5t-106.5 -156.5h401l-43 -115h-375v-16q0 -40 6 -78h342l-41 -115h-266q77 -145 273 -145
q89 0 154.5 54t82.5 155l217 -21q-26 -184 -162 -281q-133 -92 -292 -92q-179 0 -314 88t-190 242h-119z" />
    <glyph glyph-name="Fsmall" horiz-adv-x="946" 
d="M360 600h435v-184h-435v-416h-217v991h772v-184h-555v-207z" />
    <glyph glyph-name="Gcommaaccentsmall" horiz-adv-x="1255" 
d="M623 154q122 0 235 84v88h-285v190h508v-516h-118l-33 78q-139 -109 -307 -109q-232 0 -385 144q-152 146 -152 381q0 234 152 380q155 146 385 146q155 0 280 -90q127 -89 154 -264l-217 -21q-19 82 -80.5 136.5t-136.5 54.5q-145 0 -229.5 -89.5t-84.5 -252.5
t84.5 -251.5t229.5 -88.5zM492 -109h235q18 -105 18 -237q0 -74 -61.5 -146t-163.5 -124l-51 92q145 68 145 178h-122v237z" />
    <glyph glyph-name="Gsmall" horiz-adv-x="1255" 
d="M623 154q122 0 235 84v88h-285v190h508v-516h-118l-33 78q-139 -109 -307 -109q-232 0 -385 144q-152 146 -152 381q0 234 152 380q155 146 385 146q155 0 280 -90q127 -89 154 -264l-217 -21q-19 82 -80.5 136.5t-136.5 54.5q-145 0 -229.5 -89.5t-84.5 -252.5
t84.5 -251.5t229.5 -88.5z" />
    <glyph glyph-name="Hsmall" horiz-adv-x="1241" 
d="M1098 0h-217v416h-521v-416h-217v991h217v-391h521v391h217v-991z" />
    <glyph glyph-name="Iacutesmall" 
d="M360 991v-991h-217v991h217zM453 1456l-287 -326h-115l158 326h244z" />
    <glyph glyph-name="Icircumflexsmall" 
d="M360 991v-991h-217v991h217zM252 1317l-184 -187h-115l199 326h202l199 -326h-115z" />
    <glyph glyph-name="Idieresissmall" 
d="M360 991v-991h-217v991h217zM348 1372h199v-225h-199v225zM-41 1372h199v-225h-199v225z" />
    <glyph glyph-name="Igravesmall" 
d="M360 991v-991h-217v991h217zM295 1456l158 -326h-115l-287 326h244z" />
    <glyph glyph-name="Imacronsmall" 
d="M360 991v-991h-217v991h217zM504 1362v-172h-504v172h504z" />
    <glyph glyph-name="Iogoneksmall" 
d="M143 0v991h217v-991q-88 -35 -148 -89.5t-60 -98.5q0 -60 75 -60q51 0 103 27l30 -68q-84 -69 -208 -69q-76 0 -117 42t-41 113q0 55 39.5 110.5t109.5 92.5z" />
    <glyph glyph-name="Ismall" 
d="M360 991v-991h-217v991h217z" />
    <glyph glyph-name="Jsmall" horiz-adv-x="874" 
d="M20 352h218q0 -188 145 -188q162 0 162 190v637h217v-637q0 -374 -395 -374q-83 0 -145.5 20.5t-100 54t-61 83t-32 100.5t-8.5 114z" />
    <glyph glyph-name="Kcommaaccentsmall" horiz-adv-x="1144" 
d="M844 991h231l-401 -416l420 -575h-267l-307 416l-160 -164v-252h-217v991h217v-487zM451 -109h235q19 -111 19 -237q0 -73 -62 -145.5t-164 -124.5l-51 92q145 68 145 178h-122v237z" />
    <glyph glyph-name="Ksmall" horiz-adv-x="1144" 
d="M844 991h231l-401 -416l420 -575h-267l-307 416l-160 -164v-252h-217v991h217v-487z" />
    <glyph glyph-name="Lacutesmall" horiz-adv-x="1005" 
d="M385 991v-807h590v-184h-811v991h221zM727 1456l-287 -326h-114l157 326h244z" />
    <glyph glyph-name="Lcaronsmall" horiz-adv-x="1005" 
d="M385 991v-807h590v-184h-811v991h221zM655 991h236q18 -105 18 -237q0 -74 -61.5 -146.5t-163.5 -124.5l-51 92q145 68 145 179h-123v237z" />
    <glyph glyph-name="Lcommaaccentsmall" horiz-adv-x="1005" 
d="M385 991v-807h590v-184h-811v991h221zM430 -109h236q18 -105 18 -237q0 -74 -61.5 -146t-163.5 -124l-51 92q145 68 145 178h-123v237z" />
    <glyph glyph-name="Lslashsmall" horiz-adv-x="1005" 
d="M-31 463l195 74v454h221v-370l315 120l52 -133l-367 -141v-283h590v-184h-811v383l-144 -55z" />
    <glyph glyph-name="Lsmall" horiz-adv-x="974" 
d="M365 991v-807h589v-184h-811v991h222z" />
    <glyph glyph-name="Msmall" horiz-adv-x="1476" 
d="M143 0v991h365l229 -702l232 702h364v-991h-215v801h-12l-279 -801h-198l-258 801h-13v-801h-215z" />
    <glyph glyph-name="Nacutesmall" horiz-adv-x="1241" 
d="M1098 0h-262l-494 713h-8v-713h-191v991h263l493 -712h8v712h191v-991zM891 1456l-287 -326h-115l158 326h244z" />
    <glyph glyph-name="Ncaronsmall" horiz-adv-x="1241" 
d="M1098 0h-262l-494 713h-8v-713h-191v991h263l493 -712h8v712h191v-991zM520 1130l-198 326h114l185 -186l186 186h115l-199 -326h-203z" />
    <glyph glyph-name="Ncommaaccentsmall" horiz-adv-x="1241" 
d="M1098 0h-262l-494 713h-8v-713h-191v991h263l493 -712h8v712h191v-991zM485 -109h236q18 -105 18 -237q0 -74 -61.5 -146t-163.5 -124l-51 92q145 68 145 178h-123v237z" />
    <glyph glyph-name="Nsmall" horiz-adv-x="1241" 
d="M1098 0h-262l-494 713h-8v-713h-191v991h263l493 -712h8v712h191v-991z" />
    <glyph glyph-name="Ntildesmall" horiz-adv-x="1241" 
d="M1098 0h-262l-494 713h-8v-713h-191v991h263l493 -712h8v712h191v-991zM516 1397q66 0 123 -45t88 -45q66 0 125 90l84 -56q-48 -107 -92.5 -148.5t-116.5 -41.5q-69 0 -129 45q-59 47 -82 47q-68 0 -127 -92l-84 57q48 107 93 148t118 41z" />
    <glyph glyph-name="OEsmall" horiz-adv-x="1806" 
d="M1130 600h435v-184h-435v-232h594v-184h-811v53q-131 -82 -305 -82q-247 0 -385 150q-137 149 -137 375q0 225 137 374q138 150 385 150q174 0 305 -84v55h773v-184h-556v-207zM383 250q79 -94 225 -94q147 0 226 94t79 246q0 151 -79 245q-80 95 -226 95
q-145 0 -225 -95t-80 -245q0 -151 80 -246z" />
    <glyph glyph-name="Oacutesmall" horiz-adv-x="1218" 
d="M993 870q140 -152 140 -374q0 -223 -140 -375q-138 -150 -385 -150t-385 150q-137 149 -137 375q0 225 137 374q138 150 385 150t385 -150zM383 741q-80 -95 -80 -245q0 -151 80 -246q79 -94 225 -94q147 0 226 94t79 246q0 151 -79 245q-80 95 -226 95q-145 0 -225 -95z
M870 1456l-286 -326h-115l158 326h243z" />
    <glyph glyph-name="Ocircumflexsmall" horiz-adv-x="1218" 
d="M993 870q140 -152 140 -374q0 -223 -140 -375q-138 -150 -385 -150t-385 150q-137 149 -137 375q0 225 137 374q138 150 385 150t385 -150zM383 741q-80 -95 -80 -245q0 -151 80 -246q79 -94 225 -94q147 0 226 94t79 246q0 151 -79 245q-80 95 -226 95q-145 0 -225 -95z
M608 1317l-184 -187h-115l199 326h203l198 -326h-114z" />
    <glyph glyph-name="Odieresissmall" horiz-adv-x="1218" 
d="M993 870q140 -152 140 -374q0 -223 -140 -375q-138 -150 -385 -150t-385 150q-137 149 -137 375q0 225 137 374q138 150 385 150t385 -150zM383 741q-80 -95 -80 -245q0 -151 80 -246q79 -94 225 -94q147 0 226 94t79 246q0 151 -79 245q-80 95 -226 95q-145 0 -225 -95z
M705 1372h198v-225h-198v225zM315 1372h199v-225h-199v225z" />
    <glyph glyph-name="Ogravesmall" horiz-adv-x="1218" 
d="M993 870q140 -152 140 -374q0 -223 -140 -375q-138 -150 -385 -150t-385 150q-137 149 -137 375q0 225 137 374q138 150 385 150t385 -150zM383 741q-80 -95 -80 -245q0 -151 80 -246q79 -94 225 -94q147 0 226 94t79 246q0 151 -79 245q-80 95 -226 95q-145 0 -225 -95z
M610 1456l158 -326h-115l-286 326h243z" />
    <glyph glyph-name="Ohungarumlautsmall" horiz-adv-x="1218" 
d="M993 870q140 -152 140 -374q0 -223 -140 -375q-138 -150 -385 -150t-385 150q-137 149 -137 375q0 225 137 374q138 150 385 150t385 -150zM383 741q-80 -95 -80 -245q0 -151 80 -246q79 -94 225 -94q147 0 226 94t79 246q0 151 -79 245q-80 95 -226 95q-145 0 -225 -95z
M727 1456l-287 -326h-114l157 326h244zM1090 1456l-287 -326h-115l158 326h244z" />
    <glyph glyph-name="Omacronsmall" horiz-adv-x="1218" 
d="M993 870q140 -152 140 -374q0 -223 -140 -375q-138 -150 -385 -150t-385 150q-137 149 -137 375q0 225 137 374q138 150 385 150t385 -150zM383 741q-80 -95 -80 -245q0 -151 80 -246q79 -94 225 -94q147 0 226 94t79 246q0 151 -79 245q-80 95 -226 95q-145 0 -225 -95z
M883 1362v-172h-590v172h590z" />
    <glyph glyph-name="Oslashsmall" horiz-adv-x="1218" 
d="M1133 496q0 -223 -140 -375q-138 -150 -385 -150q-157 0 -278 68l-33 -39h-195l111 131q-127 145 -127 365q0 225 137 374q138 150 385 150q167 0 295 -78l41 49h172l-110 -135q127 -145 127 -360zM303 496q0 -120 47 -203l424 498q-68 45 -166 45q-144 0 -224.5 -92.5
t-80.5 -247.5zM913 496q0 114 -45 194l-413 -500q64 -34 153 -34q144 0 224.5 92.5t80.5 247.5z" />
    <glyph glyph-name="Osmall" horiz-adv-x="1218" 
d="M993 870q140 -152 140 -374q0 -223 -140 -375q-138 -150 -385 -150t-385 150q-137 149 -137 375q0 225 137 374q138 150 385 150t385 -150zM383 741q-80 -95 -80 -245q0 -151 80 -246q79 -94 225 -94q147 0 226 94t79 246q0 151 -79 245q-80 95 -226 95q-145 0 -225 -95z
" />
    <glyph glyph-name="Otildesmall" horiz-adv-x="1218" 
d="M993 870q140 -152 140 -374q0 -223 -140 -375q-138 -150 -385 -150t-385 150q-137 149 -137 375q0 225 137 374q138 150 385 150t385 -150zM383 741q-80 -95 -80 -245q0 -151 80 -246q79 -94 225 -94q147 0 226 94t79 246q0 151 -79 245q-80 95 -226 95q-145 0 -225 -95z
M504 1397q66 0 123 -45t88 -45q66 0 125 90l84 -56q-48 -107 -92.5 -148.5t-116.5 -41.5q-69 0 -129 45q-59 47 -82 47q-68 0 -127 -92l-84 57q48 107 93 148t118 41z" />
    <glyph glyph-name="Psmall" horiz-adv-x="1073" 
d="M639 807h-279v-281h275q68 0 108.5 37.5t40.5 104.5q0 58 -39.5 98.5t-105.5 40.5zM143 0v991h486q183 0 277.5 -84t94.5 -239q0 -156 -95.5 -242t-276.5 -86h-269v-340h-217z" />
    <glyph glyph-name="Qsmall" horiz-adv-x="1218" 
d="M1133 496q0 -176 -87.5 -309.5t-244.5 -186.5q1 -9 2 -23t1.5 -19t2.5 -14t3 -11.5t5 -7.5t7.5 -6t11.5 -4t15.5 -4t20.5 -3q19 0 62 16l18 -149q-68 -21 -125 -21q-110 0 -158 52.5t-61 164.5q-245 0 -383 150q-137 149 -137 375q0 225 137 374q138 150 385 150
t385 -150q140 -152 140 -374zM303 496q0 -150 77 -243t214 -97v12q-6 127 -74 127q-38 0 -82 -12l-18 149q100 17 145 17q127 0 168 -78q22 -36 31 -71.5t16 -96.5q133 89 133 293q0 155 -80.5 247.5t-224.5 92.5t-224.5 -92.5t-80.5 -247.5z" />
    <glyph glyph-name="R.alt" horiz-adv-x="1343" 
d="M1030 0l-366 582h-304v-582h-217v1479h529q532 0 532 -449q0 -334 -299 -420l387 -610h-262zM674 1288h-314v-516h332q295 0 295 258t-313 258z" />
    <glyph glyph-name="R.altacute" horiz-adv-x="1343" 
d="M1030 0l-366 582h-304v-582h-217v1479h529q532 0 532 -449q0 -334 -299 -420l387 -610h-262zM674 1288h-314v-516h332q295 0 295 258t-313 258zM870 1997l-286 -326h-115l158 326h243z" />
    <glyph glyph-name="R.altcaron" horiz-adv-x="1343" 
d="M1030 0l-366 582h-304v-582h-217v1479h529q532 0 532 -449q0 -334 -299 -420l387 -610h-262zM674 1288h-314v-516h332q295 0 295 258t-313 258zM530 1671l-198 326h114l185 -187l186 187h115l-199 -326h-203z" />
    <glyph glyph-name="R.altcommaaccent" horiz-adv-x="1343" 
d="M1030 0l-366 582h-304v-582h-217v1479h529q532 0 532 -449q0 -334 -299 -420l387 -610h-262zM674 1288h-314v-516h332q295 0 295 258t-313 258zM553 -109h235q19 -111 19 -237q0 -74 -61.5 -146t-163.5 -124l-52 92q146 68 146 178h-123v237z" />
    <glyph glyph-name="Racutesmall" horiz-adv-x="1095" 
d="M143 0v991h465q183 0 278 -84t95 -239q0 -97 -50.5 -160.5t-144.5 -83.5q83 -41 123 -162l49 -156q19 -65 64 -106h-258l-68 223q-23 75 -50 96t-99 21h-187v-340h-217zM618 807h-258v-281h254q68 0 109 37.5t41 104.5q0 58 -39.5 98.5t-106.5 40.5zM768 1456l-287 -326
h-114l157 326h244z" />
    <glyph glyph-name="Rcaronsmall" horiz-adv-x="1095" 
d="M143 0v991h465q183 0 278 -84t95 -239q0 -97 -50.5 -160.5t-144.5 -83.5q83 -41 123 -162l49 -156q19 -65 64 -106h-258l-68 223q-23 75 -50 96t-99 21h-187v-340h-217zM618 807h-258v-281h254q68 0 109 37.5t41 104.5q0 58 -39.5 98.5t-106.5 40.5zM428 1130l-199 326
h115l184 -186l187 186h114l-198 -326h-203z" />
    <glyph glyph-name="Rcommaaccentsmall" horiz-adv-x="1095" 
d="M143 0v991h465q183 0 278 -84t95 -239q0 -97 -50.5 -160.5t-144.5 -83.5q83 -41 123 -162l49 -156q19 -65 64 -106h-258l-68 223q-23 75 -50 96t-99 21h-187v-340h-217zM618 807h-258v-281h254q68 0 109 37.5t41 104.5q0 58 -39.5 98.5t-106.5 40.5zM430 -109h236
q18 -105 18 -237q0 -74 -61.5 -146t-163.5 -124l-51 92q145 68 145 178h-123v237z" />
    <glyph glyph-name="Rsmall" horiz-adv-x="1095" 
d="M143 0v991h465q183 0 278 -84t95 -239q0 -97 -50.5 -160.5t-144.5 -83.5q83 -41 123 -162l49 -156q19 -65 64 -106h-258l-68 223q-23 75 -50 96t-99 21h-187v-340h-217zM618 807h-258v-281h254q68 0 109 37.5t41 104.5q0 58 -39.5 98.5t-106.5 40.5z" />
    <glyph glyph-name="Rsmall.alt" horiz-adv-x="1095" 
d="M791 0l-197 340h-229v-340h-222v991h506q182 0 277.5 -86.5t95.5 -238.5q0 -224 -188 -295l231 -371h-274zM651 807h-286v-281h286q154 0 154 133q0 65 -39.5 106.5t-114.5 41.5z" />
    <glyph glyph-name="Rsmall.altacute" horiz-adv-x="1095" 
d="M791 0l-197 340h-229v-340h-222v991h506q182 0 277.5 -86.5t95.5 -238.5q0 -224 -188 -295l231 -371h-274zM651 807h-286v-281h286q154 0 154 133q0 65 -39.5 106.5t-114.5 41.5zM829 1456l-286 -326h-115l158 326h243z" />
    <glyph glyph-name="Rsmall.altcaron" horiz-adv-x="1095" 
d="M791 0l-197 340h-229v-340h-222v991h506q182 0 277.5 -86.5t95.5 -238.5q0 -224 -188 -295l231 -371h-274zM651 807h-286v-281h286q154 0 154 133q0 65 -39.5 106.5t-114.5 41.5zM469 1130l-199 326h115l184 -186l187 186h114l-198 -326h-203z" />
    <glyph glyph-name="Rsmall.altcommaaccent" horiz-adv-x="1095" 
d="M791 0l-197 340h-229v-340h-222v991h506q182 0 277.5 -86.5t95.5 -238.5q0 -224 -188 -295l231 -371h-274zM651 807h-286v-281h286q154 0 154 133q0 65 -39.5 106.5t-114.5 41.5zM451 -109h235q19 -111 19 -237q0 -73 -62 -145.5t-164 -124.5l-51 92q145 68 145 178h-122
v237z" />
    <glyph glyph-name="Sacutesmall" horiz-adv-x="1036" 
d="M514 848q-109 0 -166 -31t-57 -84q0 -98 241 -143q71 -11 122 -22.5t116.5 -35.5t106.5 -54t70 -80t28 -113q0 -147 -141 -232q-141 -84 -318 -84q-178 0 -309 84q-131 87 -146 271l218 20q21 -199 237 -199q225 0 225 134q0 44 -60 72.5t-169 49.5q-46 8 -80.5 16
t-81 22t-80.5 29.5t-69.5 39.5t-57.5 53t-36 68.5t-13 85.5q0 141 123 223q125 82 297 82q98 0 193 -29q96 -28 162.5 -105.5t76.5 -189.5l-217 -20q-12 85 -68.5 128.5t-146.5 43.5zM782 1456l-286 -326h-115l158 326h243z" />
    <glyph glyph-name="Scaronsmall" horiz-adv-x="1036" 
d="M514 848q-109 0 -166 -31t-57 -84q0 -98 241 -143q71 -11 122 -22.5t116.5 -35.5t106.5 -54t70 -80t28 -113q0 -147 -141 -232q-141 -84 -318 -84q-178 0 -309 84q-131 87 -146 271l218 20q21 -199 237 -199q225 0 225 134q0 44 -60 72.5t-169 49.5q-46 8 -80.5 16
t-81 22t-80.5 29.5t-69.5 39.5t-57.5 53t-36 68.5t-13 85.5q0 141 123 223q125 82 297 82q98 0 193 -29q96 -28 162.5 -105.5t76.5 -189.5l-217 -20q-12 85 -68.5 128.5t-146.5 43.5zM440 1130l-198 326h114l185 -186l186 186h115l-199 -326h-203z" />
    <glyph glyph-name="Ssmall" horiz-adv-x="1036" 
d="M514 848q-109 0 -166 -31t-57 -84q0 -98 241 -143q71 -11 122 -22.5t116.5 -35.5t106.5 -54t70 -80t28 -113q0 -147 -141 -232q-141 -84 -318 -84q-178 0 -309 84q-131 87 -146 271l218 20q21 -199 237 -199q225 0 225 134q0 44 -60 72.5t-169 49.5q-46 8 -80.5 16
t-81 22t-80.5 29.5t-69.5 39.5t-57.5 53t-36 68.5t-13 85.5q0 141 123 223q125 82 297 82q98 0 193 -29q96 -28 162.5 -105.5t76.5 -189.5l-217 -20q-12 85 -68.5 128.5t-146.5 43.5z" />
    <glyph glyph-name="Tcaronsmall" horiz-adv-x="989" 
d="M958 991v-184h-354v-807h-217v807h-356v184h927zM393 1130l-198 326h114l185 -186l186 186h115l-199 -326h-203z" />
    <glyph glyph-name="Thornsmall" horiz-adv-x="1073" 
d="M143 0v1016h217v-148h269q183 0 277.5 -84t94.5 -239q0 -156 -95.5 -242t-276.5 -86h-269v-217h-217zM639 684h-279v-281h275q68 0 108.5 37.5t40.5 104.5q0 58 -39.5 98.5t-105.5 40.5z" />
    <glyph glyph-name="Tsmall" horiz-adv-x="989" 
d="M958 991v-184h-354v-807h-217v807h-356v184h927z" />
    <glyph glyph-name="Uacutesmall" horiz-adv-x="1177" 
d="M881 365v626h184v-647q0 -158 -129 -266q-130 -109 -348 -109q-220 0 -348 107q-127 109 -127 268v647h217v-626q0 -209 276 -209q275 0 275 209zM870 1456l-286 -326h-115l158 326h243z" />
    <glyph glyph-name="Ucircumflexsmall" horiz-adv-x="1177" 
d="M881 365v626h184v-647q0 -158 -129 -266q-130 -109 -348 -109q-220 0 -348 107q-127 109 -127 268v647h217v-626q0 -209 276 -209q275 0 275 209zM588 1317l-185 -187h-114l198 326h203l199 -326h-115z" />
    <glyph glyph-name="Udieresissmall" horiz-adv-x="1177" 
d="M881 365v626h184v-647q0 -158 -129 -266q-130 -109 -348 -109q-220 0 -348 107q-127 109 -127 268v647h217v-626q0 -209 276 -209q275 0 275 209zM684 1372h199v-225h-199v225zM295 1372h199v-225h-199v225z" />
    <glyph glyph-name="Ugravesmall" horiz-adv-x="1177" 
d="M881 365v626h184v-647q0 -158 -129 -266q-130 -109 -348 -109q-220 0 -348 107q-127 109 -127 268v647h217v-626q0 -209 276 -209q275 0 275 209zM631 1456l157 -326h-114l-287 326h244z" />
    <glyph glyph-name="Uhungarumlautsmall" horiz-adv-x="1177" 
d="M881 365v626h184v-647q0 -158 -129 -266q-130 -109 -348 -109q-220 0 -348 107q-127 109 -127 268v647h217v-626q0 -209 276 -209q275 0 275 209zM666 1456l-287 -326h-115l158 326h244zM1028 1456l-287 -326h-114l157 326h244z" />
    <glyph glyph-name="Umacronsmall" horiz-adv-x="1177" 
d="M881 365v626h184v-647q0 -158 -129 -266q-130 -109 -348 -109q-220 0 -348 107q-127 109 -127 268v647h217v-626q0 -209 276 -209q275 0 275 209zM883 1362v-172h-590v172h590z" />
    <glyph glyph-name="Uogoneksmall" horiz-adv-x="1177" 
d="M881 365v626h184v-647q0 -119 -76.5 -213t-210.5 -135q-85 -35 -140.5 -87.5t-55.5 -96.5q0 -60 75 -60q51 0 103 27l31 -68q-84 -69 -209 -69q-76 0 -117 42t-41 113q0 103 115 174q-200 12 -314 117q-112 106 -112 256v647h217v-626q0 -209 276 -209q275 0 275 209z
" />
    <glyph glyph-name="Uringsmall" horiz-adv-x="1177" 
d="M881 365v626h184v-647q0 -158 -129 -266q-130 -109 -348 -109q-220 0 -348 107q-127 109 -127 268v647h217v-626q0 -209 276 -209q275 0 275 209zM588 1378q-33 0 -57.5 -23.5t-24.5 -58.5t24.5 -60.5t57.5 -25.5t57.5 25.5t24.5 60.5t-23.5 58.5t-58.5 23.5zM469 1176
q-47 50 -47 121t47 118q47 49 119 49t119 -49q48 -47 47.5 -118.5t-49.5 -120.5q-47 -50 -117 -50t-119 50z" />
    <glyph glyph-name="Usmall" horiz-adv-x="1177" 
d="M881 365v626h184v-647q0 -158 -129 -266q-130 -109 -348 -109q-220 0 -348 107q-127 109 -127 268v647h217v-626q0 -209 276 -209q275 0 275 209z" />
    <glyph glyph-name="Vsmall" horiz-adv-x="1179" 
d="M31 991h237l344 -747l344 747h193l-459 -991h-201z" />
    <glyph glyph-name="Wsmall" horiz-adv-x="1695" 
d="M31 991h237l244 -706l240 706h237l244 -706l240 706h192l-356 -991h-201l-260 743l-260 -743h-201z" />
    <glyph glyph-name="Xsmall" horiz-adv-x="1218" 
d="M295 0h-244l426 502l-399 489h280l263 -323l274 323h246l-402 -469l428 -522h-278l-291 354z" />
    <glyph glyph-name="Yacutesmall" horiz-adv-x="1093" 
d="M666 354v-354h-217v354l-418 637h260l287 -465l274 465h211zM829 1456l-286 -326h-115l158 326h243z" />
    <glyph glyph-name="Ydieresissmall" horiz-adv-x="1093" 
d="M666 354v-354h-217v354l-418 637h260l287 -465l274 465h211zM643 1372h199v-225h-199v225zM254 1372h199v-225h-199v225z" />
    <glyph glyph-name="Ysmall" horiz-adv-x="1093" 
d="M666 354v-354h-217v354l-418 637h260l287 -465l274 465h211z" />
    <glyph glyph-name="Zacutesmall" horiz-adv-x="1005" 
d="M354 184h590v-184h-883v129l582 678h-563v184h858v-129zM788 1456l-286 -326h-115l158 326h243z" />
    <glyph glyph-name="Zcaronsmall" horiz-adv-x="1005" 
d="M354 184h590v-184h-883v129l582 678h-563v184h858v-129zM401 1130l-198 326h114l185 -186l186 186h115l-199 -326h-203z" />
    <glyph glyph-name="Zdotaccentsmall" horiz-adv-x="1005" 
d="M354 184h590v-184h-883v129l582 678h-563v184h858v-129zM403 1393h199v-246h-199v246z" />
    <glyph glyph-name="Zsmall" horiz-adv-x="1005" 
d="M354 184h590v-184h-883v129l582 678h-563v184h858v-129z" />
    <glyph glyph-name="afii10017small" horiz-adv-x="1179" 
d="M1149 0h-217l-88 190h-531l-90 -190h-192l458 991h201zM758 375l-178 383l-181 -383h359z" />
    <glyph glyph-name="afii10018small" horiz-adv-x="1083" 
d="M360 465v-281h240q91 0 142 39t51 101q0 141 -193 141h-240zM915 991v-184h-555v-158h242q187 0 297.5 -87t110.5 -240q0 -148 -111 -235t-297 -87h-459v991h772z" />
    <glyph glyph-name="afii10019small" horiz-adv-x="1112" 
d="M758 702q0 105 -148 105h-229v-207h229q148 0 148 102zM633 0h-469v991h440q193 0 282 -60t89 -186q0 -190 -195 -225q126 -13 190 -77.5t64 -170.5q0 -127 -109.5 -199.5t-291.5 -72.5zM633 416h-252v-232h252q102 0 143 28.5t41 86.5q0 59 -40 88t-144 29z" />
    <glyph glyph-name="afii10020small" horiz-adv-x="946" 
d="M360 807v-807h-217v991h772v-184h-555z" />
    <glyph glyph-name="afii10021small" horiz-adv-x="1222" 
d="M1049 991v-827h143v-463h-201v299h-760v-299h-200v463h116q74 106 108 256t34 387v184h760zM831 164v643h-346q0 -441 -114 -643h460z" />
    <glyph glyph-name="afii10022small" horiz-adv-x="1036" 
d="M360 600h435v-184h-435v-232h594v-184h-811v991h772v-184h-555v-207z" />
    <glyph glyph-name="afii10023small" horiz-adv-x="1036" 
d="M360 600h435v-184h-435v-232h594v-184h-811v991h772v-184h-555v-207zM643 1372h199v-225h-199v225zM254 1372h199v-225h-199v225z" />
    <glyph glyph-name="afii10024.ss01" horiz-adv-x="2043" 
d="M723 854h190v625h217v-625h191l422 625h260l-490 -725l480 -754h-254l-422 664h-187v-664h-217v664h-186l-422 -664h-254l479 754l-489 725h260z" />
    <glyph glyph-name="afii10024small" horiz-adv-x="1634" 
d="M1427 283q19 -89 39 -125q18 -27 58 -27q26 0 53 12l27 -135q-64 -37 -146 -37q-96 0 -145.5 54t-81.5 194l-14 53q-2 14 -12 43.5t-17 36.5q-1 1 -7.5 8t-11.5 11.5t-12.5 11t-15 10.5t-15.5 6q-53 17 -114 17h-86v-416h-217v416h-86q-118 0 -152 -39q-4 -4 -12 -11.5
t-9.5 -9.5t-6.5 -9t-8 -14.5t-7 -19.5l-25 -94q-32 -140 -81.5 -194t-145.5 -54q-81 0 -145 37l26 135q27 -12 54 -12q40 0 55 27q21 32 41 125q46 195 168 239q-60 25 -90 73t-49 132q-17 78 -36 105.5t-55 27.5q-24 0 -51 -12l-26 135q64 37 153 37q94 0 140 -54t71 -169
q15 -68 22.5 -91.5t26.5 -54.5q19 -30 51.5 -40.5t90.5 -10.5h86v391h217v-391h86q58 0 89.5 10.5t51.5 40.5q19 31 26.5 54.5t22.5 91.5q25 115 71 169t140 54q90 0 154 -37l-27 -135q-27 12 -51 12q-36 0 -54.5 -27t-35.5 -106q-19 -84 -49 -132t-90 -73q121 -44 167 -239
z" />
    <glyph glyph-name="afii10024small.ss01" horiz-adv-x="1675" 
d="M580 600h149v391h217v-391h150l258 391h280l-346 -485l336 -506h-274l-258 416h-146v-416h-217v416h-145l-258 -416h-275l336 506l-346 485h281z" />
    <glyph glyph-name="afii10025small" horiz-adv-x="1056" 
d="M532 836q-100 0 -155.5 -36.5t-71.5 -133.5l-217 20q27 180 152 258q122 76 292 76q187 0 289.5 -77.5t102.5 -209.5q0 -179 -199 -213q125 -13 189.5 -79.5t64.5 -172.5q0 -134 -122 -215.5t-325 -81.5q-162 0 -296 84q-131 84 -158 269l217 20q30 -188 237 -188
q104 0 167 41t63 98q0 60 -41.5 90.5t-142.5 30.5h-199v184h176q77 0 114.5 37.5t37.5 93.5q0 46 -46 75.5t-129 29.5z" />
    <glyph glyph-name="afii10026small" horiz-adv-x="1269" 
d="M143 0v991h217v-725l508 725h258v-991h-217v733l-508 -733h-258z" />
    <glyph glyph-name="afii10027small" horiz-adv-x="1269" 
d="M143 0v991h217v-725l508 725h258v-991h-217v733l-508 -733h-258zM633 1047q-320 0 -320 256l179 16q0 -145 141 -145q143 0 143 145l178 -16q0 -256 -321 -256z" />
    <glyph glyph-name="afii10028.ss01" horiz-adv-x="1314" 
d="M143 1479h217v-625h232l422 625h260l-490 -725l480 -754h-254l-422 664h-228v-664h-217v1479z" />
    <glyph glyph-name="afii10028small" horiz-adv-x="1150" 
d="M924 283q19 -89 39 -125q18 -27 57 -27q26 0 53 12l27 -135q-64 -37 -146 -37q-96 0 -145.5 54t-81.5 194l-14 53q-2 14 -12 43.5t-17 36.5l-10 10q-9 10 -14.5 15.5t-16.5 12.5t-20 9q-53 17 -115 17h-148v-416h-217v991h217v-391h148q58 0 89.5 10.5t51.5 40.5
q19 31 26.5 54.5t22.5 91.5q25 115 71 169t140 54q90 0 154 -37l-27 -135q-27 12 -51 12q-36 0 -54.5 -27t-35.5 -106q-19 -84 -49 -132t-90 -73q122 -44 168 -239z" />
    <glyph glyph-name="afii10028small.ss01" horiz-adv-x="1150" 
d="M143 991h217v-391h170l299 391h281l-387 -485l377 -506h-275l-299 416h-166v-416h-217v991z" />
    <glyph glyph-name="afii10029small" horiz-adv-x="1179" 
d="M264 991h772v-991h-217v807h-350q0 -483 -61 -657q-59 -177 -234 -177q-92 0 -143 39l35 166q34 -24 75 -24q24 0 40 9.5t33 46.5t27 105t16.5 191.5t6.5 300.5v184z" />
    <glyph glyph-name="afii10030small" horiz-adv-x="1476" 
d="M143 0v991h365l229 -702l232 702h364v-991h-215v801h-12l-279 -801h-198l-258 801h-13v-801h-215z" />
    <glyph glyph-name="afii10031small" horiz-adv-x="1241" 
d="M1098 0h-217v416h-521v-416h-217v991h217v-391h521v391h217v-991z" />
    <glyph glyph-name="afii10032small" horiz-adv-x="1218" 
d="M993 870q140 -152 140 -374q0 -223 -140 -375q-138 -150 -385 -150t-385 150q-137 149 -137 375q0 225 137 374q138 150 385 150t385 -150zM383 741q-80 -95 -80 -245q0 -151 80 -246q79 -94 225 -94q147 0 226 94t79 246q0 151 -79 245q-80 95 -226 95q-145 0 -225 -95z
" />
    <glyph glyph-name="afii10033small" horiz-adv-x="1241" 
d="M1098 0h-217v807h-521v-807h-217v991h955v-991z" />
    <glyph glyph-name="afii10034small" horiz-adv-x="1073" 
d="M639 807h-279v-281h275q68 0 108.5 37.5t40.5 104.5q0 58 -39.5 98.5t-105.5 40.5zM143 0v991h486q183 0 277.5 -84t94.5 -239q0 -156 -95.5 -242t-276.5 -86h-269v-340h-217z" />
    <glyph glyph-name="afii10035small" horiz-adv-x="1155" 
d="M623 156q89 0 154.5 54t82.5 155l217 -21q-26 -184 -162 -281q-133 -92 -292 -92q-235 0 -385 144q-152 146 -152 379q0 234 152 380q155 146 385 146q161 0 286 -94q131 -96 158 -281l-217 -20q-17 102 -79.5 156.5t-147.5 54.5q-145 0 -229.5 -89.5t-84.5 -252.5
t84.5 -250.5t229.5 -87.5z" />
    <glyph glyph-name="afii10036small" horiz-adv-x="989" 
d="M958 991v-184h-354v-807h-217v807h-356v184h927z" />
    <glyph glyph-name="afii10037small" horiz-adv-x="1048" 
d="M811 991h207l-303 -721q-68 -164 -137 -233q-71 -68 -189 -68q-256 0 -256 189q0 52 31 100h178q-18 -52 -18 -84q0 -51 63 -51q54 0 94 67l-450 801h241l312 -600z" />
    <glyph glyph-name="afii10038small" horiz-adv-x="1441" 
d="M831 145v-145h-221v145q-277 0 -402.5 85.5t-125.5 299.5q0 203 129 291t399 88v129h221v-129q271 0 400 -88t129 -291q0 -214 -126 -299.5t-403 -85.5zM831 743v-430q138 0 220 35q96 47 96 182q0 138 -96 179q-79 34 -220 34zM610 313v430q-140 0 -219 -34
q-96 -41 -96 -179q0 -135 96 -182q82 -35 219 -35z" />
    <glyph glyph-name="afii10039small" horiz-adv-x="1218" 
d="M295 0h-244l426 502l-399 489h280l263 -323l274 323h246l-402 -469l428 -522h-278l-291 354z" />
    <glyph glyph-name="afii10040small" horiz-adv-x="1271" 
d="M360 184h521v807h217v-807h143v-483h-201v299h-897v991h217v-807z" />
    <glyph glyph-name="afii10041small" horiz-adv-x="1103" 
d="M82 991h217v-327q0 -107 49 -134q48 -26 174 -26q46 0 109 14l112 31v442h218v-991h-218v360q-143 -51 -319 -51q-182 0 -262 90t-80 265v327z" />
    <glyph glyph-name="afii10042small" horiz-adv-x="1716" 
d="M1356 991h217v-991h-1430v991h217v-807h390v807h217v-807h389v807z" />
    <glyph glyph-name="afii10043small" horiz-adv-x="1746" 
d="M1356 991h217v-827h143v-463h-200v299h-1373v991h217v-807h390v807h217v-807h389v807z" />
    <glyph glyph-name="afii10044small" horiz-adv-x="1267" 
d="M31 991h534v-340h269q181 0 276.5 -85.5t95.5 -241.5q0 -155 -94.5 -239.5t-277.5 -84.5h-486v807h-317v184zM840 465h-275v-281h279q66 0 105.5 41t39.5 99q0 67 -40.5 104t-108.5 37z" />
    <glyph glyph-name="afii10045small" horiz-adv-x="1484" 
d="M1341 991v-991h-217v991h217zM635 465h-275v-281h279q66 0 105.5 41t39.5 99q0 67 -40.5 104t-108.5 37zM629 0h-486v991h217v-340h269q181 0 276.5 -85.5t95.5 -241.5q0 -155 -94.5 -239.5t-277.5 -84.5z" />
    <glyph glyph-name="afii10046small" horiz-adv-x="1062" 
d="M635 465h-275v-281h279q66 0 105.5 41t39.5 99q0 67 -40.5 104t-108.5 37zM629 0h-486v991h217v-340h269q181 0 276.5 -85.5t95.5 -241.5q0 -155 -94.5 -239.5t-277.5 -84.5z" />
    <glyph glyph-name="afii10047small" horiz-adv-x="1155" 
d="M840 416h-406v184h400q-52 236 -281 236q-91 0 -161 -55.5t-87 -155.5l-217 20q27 183 164 279q140 96 301 96q227 0 373 -146q143 -143 143 -380q0 -236 -143 -379q-144 -144 -373 -144q-165 0 -307 95q-141 97 -168 278l217 21q15 -105 92 -158q74 -51 166 -51
q247 0 287 260z" />
    <glyph glyph-name="afii10048small" horiz-adv-x="1669" 
d="M1059 -29q-224 0 -359 123q-135 126 -159 322h-181v-416h-217v991h217v-391h185q31 190 167 305t347 115q247 0 385 -150q139 -151 139 -374q0 -224 -139 -375q-138 -150 -385 -150zM834 741q-80 -95 -80 -245q0 -151 80 -246q79 -94 225 -94t225 94q80 95 80 246
q0 150 -80 245t-225 95t-225 -95z" />
    <glyph glyph-name="afii10049.alt" horiz-adv-x="1384" 
d="M1024 0v582h-297l-422 -582h-254l428 610q-299 86 -299 420q0 449 533 449h528v-1479h-217zM692 772h332v516h-313q-314 0 -314 -258t295 -258z" />
    <glyph glyph-name="afii10049small" horiz-adv-x="1157" 
d="M135 678q0 146 95.5 229.5t277.5 83.5h506v-991h-221v340h-199q-66 0 -96 -35q-33 -42 -64 -139q-34 -104 -86 -150q-51 -45 -174 -45q-80 0 -129 37l39 146q30 -15 78 -15q25 0 41 23.5t33 85.5q18 66 44.5 101t81.5 54q-227 46 -227 275zM793 526v281h-287
q-77 0 -115.5 -36.5t-38.5 -98.5q0 -65 39.5 -105.5t114.5 -40.5h287z" />
    <glyph glyph-name="afii10049small.alt" horiz-adv-x="1157" 
d="M793 0v340h-230l-217 -340h-274l252 371q-189 71 -189 295q0 152 95.5 238.5t277.5 86.5h506v-991h-221zM793 526v281h-287q-75 0 -114.5 -41.5t-39.5 -106.5q0 -133 154 -133h287z" />
    <glyph glyph-name="afii10050small" horiz-adv-x="946" 
d="M360 807v-807h-217v991h596v248h176v-432h-555z" />
    <glyph glyph-name="afii10051small" horiz-adv-x="1308" 
d="M1010 307q0 98 -46.5 139t-156.5 41q-75 0 -203 -45v-442h-217v807h-356v184h927v-184h-354v-176q143 51 301 51q169 0 246 -109q76 -107 76 -266q0 -150 -97 -241q-95 -89 -239 -89q-234 0 -234 191q0 36 15 98h166q-15 -30 -15 -57q0 -72 84 -72q49 0 76 47t27 123z
" />
    <glyph glyph-name="afii10052small" horiz-adv-x="946" 
d="M360 807v-807h-217v991h772v-184h-555zM809 1456l-287 -326h-114l157 326h244z" />
    <glyph glyph-name="afii10053small" horiz-adv-x="1155" 
d="M322 600h399v-184h-406q40 -260 287 -260q90 0 164 51q79 54 94 158l217 -21q-27 -182 -170 -278q-139 -95 -305 -95q-229 0 -373 144q-143 143 -143 379q0 237 143 380q146 146 373 146q162 0 299 -96q139 -95 166 -279l-217 -20q-17 100 -87 155.5t-161 55.5
q-228 0 -280 -236z" />
    <glyph glyph-name="afii10054small" horiz-adv-x="1036" 
d="M514 848q-101 0 -162 -32.5t-61 -82.5q0 -98 241 -143q71 -11 122 -22.5t116.5 -35.5t106.5 -54t70 -80t28 -113q0 -147 -141 -232q-141 -84 -318 -84q-178 0 -309 84q-131 87 -146 271l218 20q21 -199 237 -199q225 0 225 134q0 44 -60 72.5t-169 49.5q-46 8 -80.5 16
t-81 22t-80.5 29.5t-69.5 39.5t-57.5 53t-36 68.5t-13 85.5q0 141 123 223q125 82 297 82q98 0 193 -29q96 -28 162.5 -105.5t76.5 -189.5l-217 -20q-12 85 -68.5 128.5t-146.5 43.5z" />
    <glyph glyph-name="afii10055small" 
d="M360 991v-991h-217v991h217z" />
    <glyph glyph-name="afii10056small" 
d="M360 991v-991h-217v991h217zM348 1372h199v-225h-199v225zM-41 1372h199v-225h-199v225z" />
    <glyph glyph-name="afii10057small" horiz-adv-x="874" 
d="M20 352h218q0 -188 145 -188q162 0 162 190v637h217v-637q0 -374 -395 -374q-83 0 -145.5 20.5t-100 54t-61 83t-32 100.5t-8.5 114z" />
    <glyph glyph-name="afii10058small" horiz-adv-x="1726" 
d="M1305 0h-486v807h-350q0 -483 -61 -657q-59 -177 -234 -177q-92 0 -143 39l35 166q34 -24 75 -24q24 0 40 9.5t33 46.5t27 105t16.5 191.5t6.5 300.5v184h772v-340h269q181 0 276.5 -85.5t95.5 -241.5q0 -155 -94.5 -239.5t-277.5 -84.5zM1311 465h-275v-281h279
q66 0 105.5 41t39.5 99q0 67 -40.5 104t-108.5 37z" />
    <glyph glyph-name="afii10059small" horiz-adv-x="1857" 
d="M1366 0h-485v467h-521v-467h-217v991h217v-340h521v340h217v-340h268q181 0 277 -86t96 -241t-95 -239.5t-278 -84.5zM1372 465h-274v-281h278q66 0 106 41t40 99q0 67 -40.5 104t-109.5 37z" />
    <glyph glyph-name="afii10060small" horiz-adv-x="1308" 
d="M1227 0h-217v328q0 106 -41 133q-39 26 -162 26q-75 0 -203 -45v-442h-217v807h-356v184h927v-184h-354v-176q143 51 301 51q186 0 254 -92q68 -89 68 -262v-328z" />
    <glyph glyph-name="afii10061.ss01" horiz-adv-x="1314" 
d="M143 1479h217v-625h232l422 625h260l-490 -725l480 -754h-254l-422 664h-228v-664h-217v1479zM932 1997l-287 -326h-115l158 326h244z" />
    <glyph glyph-name="afii10061small" horiz-adv-x="1150" 
d="M924 283q19 -89 39 -125q18 -27 57 -27q26 0 53 12l27 -135q-64 -37 -146 -37q-96 0 -145.5 54t-81.5 194l-14 53q-2 14 -12 43.5t-17 36.5l-10 10q-9 10 -14.5 15.5t-16.5 12.5t-20 9q-53 17 -115 17h-148v-416h-217v991h217v-391h148q58 0 89.5 10.5t51.5 40.5
q19 31 26.5 54.5t22.5 91.5q25 115 71 169t140 54q90 0 154 -37l-27 -135q-27 12 -51 12q-36 0 -54.5 -27t-35.5 -106q-19 -84 -49 -132t-90 -73q122 -44 168 -239zM870 1456l-286 -326h-115l158 326h243z" />
    <glyph glyph-name="afii10061small.ss01" horiz-adv-x="1150" 
d="M143 991h217v-391h170l299 391h281l-387 -485l377 -506h-275l-299 416h-166v-416h-217v991zM911 1456l-286 -326h-115l158 326h243z" />
    <glyph glyph-name="afii10062small" horiz-adv-x="1048" 
d="M563 1047q-319 0 -319 256l178 16q0 -145 141 -145q144 0 144 145l178 -16q0 -256 -322 -256zM811 991h207l-303 -721q-68 -164 -137 -233q-71 -68 -189 -68q-256 0 -256 189q0 52 31 100h178q-18 -52 -18 -84q0 -51 63 -51q54 0 94 67l-450 801h241l312 -600z" />
    <glyph glyph-name="afii10072.ss01" horiz-adv-x="1521" 
d="M537 561h125v377h198v-377h125l240 377h245l-315 -446l326 -492h-244l-246 397h-131v-397h-198v397h-132l-245 -397h-244l326 492l-316 446h246z" />
    <glyph glyph-name="afii10076.ss01" horiz-adv-x="1024" 
d="M123 938h199v-377h145l260 377h246l-336 -446l346 -492h-244l-266 397h-151v-397h-199v938z" />
    <glyph glyph-name="afii10097.alt" horiz-adv-x="1073" 
d="M752 0v367h-140l-245 -367h-244l268 375q-244 41 -244 278q0 143 89 214t253 71h461v-938h-198zM498 510h254v274h-236q-168 0 -168 -137t150 -137z" />
    <glyph glyph-name="afii10109.ss01" horiz-adv-x="1024" 
d="M123 938h199v-377h145l260 377h246l-336 -446l346 -492h-244l-266 397h-151v-397h-199v938zM768 1456l-287 -326h-114l157 326h244z" />
    <glyph glyph-name="afii10145small" horiz-adv-x="1241" 
d="M360 184h521v807h217v-991h-377v-299h-201v299h-377v991h217v-807z" />
    <glyph glyph-name="afii61352.small" horiz-adv-x="1878" 
d="M838 367h8v360q0 283 215 283q107 0 182 -37l-43 -156q-41 14 -82 14q-39 0 -63.5 -37t-24.5 -77v-717h-196l-498 717h-8v-717h-185v991h263zM1659 479q-60 -69 -174 -69t-174 69q-62 71 -62 178q0 108 62 179t174 71t174 -71q61 -70 61 -179q0 -108 -61 -178zM1485 528
q94 0 94 129q0 71 -21.5 99t-72.5 28q-50 0 -73 -29.5t-23 -97.5q0 -129 96 -129zM1720 346v-110h-471v110h471z" />
    <glyph glyph-name="ampersand.small" horiz-adv-x="1206" 
d="M1110 180l55 -98q-56 -62 -103 -86.5t-114 -24.5q-112 0 -194 76q-134 -76 -277 -76q-174 0 -274.5 72t-100.5 209q0 157 224 270q-83 111 -82 231.5t90 192.5q91 76 239 76q144 0 230 -73.5t86 -182.5q0 -94 -64.5 -155.5t-197.5 -116.5l174 -191q51 68 86 172l170 -14
q-46 -159 -142 -277q56 -47 93 -47q47 0 102 43zM477 156q99 0 158 20l-209 234q-107 -58 -107 -138q0 -51 43.5 -83.5t114.5 -32.5zM459 754q0 -66 61 -142q79 39 116.5 74t37.5 76q0 76 -101 76q-114 0 -114 -84z" />
    <glyph glyph-name="commaaccent" horiz-adv-x="563" 
d="M123 -109h235q19 -111 19 -237q0 -74 -61.5 -146t-163.5 -124l-52 92q146 68 146 178h-123v237z" />
    <glyph glyph-name="dollar.small" horiz-adv-x="1079" 
d="M440 1014v141h158v-139q151 -18 247 -98.5t107 -221.5l-217 -20q-15 127 -137 162v-258q93 -20 145.5 -36.5t110.5 -47.5q127 -65 127 -211q0 -129 -113 -211q-115 -83 -270 -101v-161h-158v161q-161 18 -260 105.5t-112 245.5l217 20q15 -155 155 -190v262
q-170 40 -255 107t-85 192q0 120 94.5 200t245.5 99zM748 279q0 36 -35 58t-115 44v-231q150 21 150 129zM297 733q0 -79 143 -119v228q-143 -21 -143 -109z" />
    <glyph glyph-name="eight.onum" horiz-adv-x="1228" 
d="M823 922q68 65 68 165q0 99 -68 164q-69 66 -192 66q-124 0 -193 -66q-65 -65 -65 -164q0 -100 65 -165q67 -64 193 -64q125 0 192 64zM864 233q74 71 74 183q0 111 -74 182q-72 72 -235 72q-164 0 -236 -72q-71 -71 -71 -182q0 -112 71 -183t236 -71q164 0 235 71z
M104 397q0 130 75 230t204 141q-227 99 -227 350q0 174 137 281q138 108 336 108t336 -108q139 -109 139 -281q0 -251 -227 -350q129 -41 203.5 -140.5t74.5 -230.5q0 -175 -129 -301q-125 -125 -397 -125q-273 0 -398 125q-127 127 -127 301z" />
    <glyph glyph-name="eight.small" horiz-adv-x="1058" 
d="M729 723q0 113 -199 113q-196 0 -196 -113q0 -123 196 -123q199 0 199 123zM528 422q-225 0 -225 -133t225 -133q228 0 228 133t-228 133zM86 254q0 96 55.5 165t161.5 95q-96 33 -141 87.5t-45 143.5q0 123 111.5 199t299.5 76q189 0 301.5 -76t112.5 -199
q0 -89 -45 -143.5t-141 -87.5q106 -26 161.5 -95t55.5 -165q0 -118 -103 -201q-101 -82 -342 -82q-239 0 -342 80q-100 81 -100 203z" />
    <glyph glyph-name="five.onum" horiz-adv-x="1261" 
d="M1063 748h-621l-49 -293q106 47 230 47q257 0 394.5 -113.5t137.5 -329.5q0 -189 -145 -331t-377 -142q-74 0 -146.5 14t-142.5 45.5t-122.5 78t-85 118t-32.5 158.5l218 27q10 -115 97 -182.5t214 -67.5q153 0 229 76.5t76 205.5q0 123 -81 188.5t-243 65.5
q-179 0 -305 -129l-125 109l105 645h774v-190z" />
    <glyph glyph-name="five.small" horiz-adv-x="1054" 
d="M958 807h-552l-27 -152q106 47 201 47q158 0 274 -94q119 -91 119 -256q0 -198 -123 -289q-121 -92 -297 -92q-471 0 -471 332l217 27q10 -102 70.5 -138t183.5 -36q203 0 203 196q0 75 -53 118.5t-144 43.5q-107 0 -160 -18q-51 -17 -92 -86l-157 63l96 518h712v-184z
" />
    <glyph glyph-name="four.onum" horiz-adv-x="1259" 
d="M567 967h217q-74 -341 -217 -518q-73 -92 -129 -142q-58 -53 -147 -117h436v248l217 62v-310h238v-190h-238v-242l-129 -143h-88v385h-661v190q132 97 221 189q190 204 280 588z" />
    <glyph glyph-name="four.small" horiz-adv-x="1064" 
d="M457 1020h217q-76 -273 -168 -408q-93 -134 -244 -211h354v254l218 62v-316h196v-184h-196v-217h-218v217h-559v184q124 102 195 179q55 63 108 170q49 99 97 270z" />
    <glyph glyph-name="nine.onum" horiz-adv-x="1259" 
d="M104 496q0 189 146 329q145 142 358 142q316 0 439 -189q58 -90 83 -199.5t25 -256.5q0 -373 -128 -556.5t-417 -183.5q-260 0 -366 119q-97 108 -111 268l217 21q13 -118 76.5 -167.5t183.5 -49.5q328 0 328 381q-156 -93 -387 -93q-225 0 -336 123t-111 312zM608 774
q-134 0 -210 -77t-76 -201q0 -130 66.5 -189t217.5 -59q216 0 332 104q4 50 4 78q0 183 -84 263.5t-250 80.5z" />
    <glyph glyph-name="nine.small" horiz-adv-x="1087" 
d="M104 659q0 150 115 256q116 107 299 107q274 0 369 -145q46 -67 65 -147.5t19 -190.5q0 -249 -90 -398q-98 -170 -361 -170q-221 0 -307 92q-70 81 -84 195l215 14q12 -67 49 -91.5t127 -24.5q160 0 199 73q22 39 28.5 76t6.5 105q-73 -37 -131 -52q-55 -12 -154 -12
q-182 0 -273.5 86t-91.5 227zM518 838q-196 0 -196 -154q0 -83 43.5 -120.5t152.5 -37.5q131 0 236 60q4 28 4 59q0 95 -65 144t-175 49z" />
    <glyph glyph-name="numbersign.small" horiz-adv-x="1261" 
d="M809 276l-102 -276h-168l102 276h-190l-103 -276h-166l103 276h-191v142h242l57 147h-272v142h325l113 284h162l-113 -284h197l113 284h159l-110 -284h178v-142h-230l-57 -147h260v-142h-309zM750 565h-195l-55 -147h196z" />
    <glyph glyph-name="one.onum" horiz-adv-x="1126" 
d="M616 967h134v-777h307v-190h-854v190h329v457h-309v141q144 0 234 23q83 24 108 55q28 35 51 101z" />
    <glyph glyph-name="one.small" horiz-adv-x="1126" 
d="M578 1010h133v-820h286v-190h-813v190h310v500h-310v141q144 0 234 23q83 24 108 55q29 38 52 101z" />
    <glyph glyph-name="seven.onum" horiz-adv-x="1259" 
d="M1149 938v-139q-241 -331 -348 -592q-104 -252 -125 -592h-242q15 329 150 594q63 129 145 256q67 103 197 283h-785v190h1008z" />
    <glyph glyph-name="seven.small" horiz-adv-x="1077" 
d="M1006 991v-139q-239 -298 -301 -442q-62 -145 -68 -410h-242q9 177 54 315q48 135 116 234q63 91 217 258h-620v184h844z" />
    <glyph glyph-name="six.onum" horiz-adv-x="1259" 
d="M1155 483q0 -216 -145 -364t-359 -148q-314 0 -438 189q-59 95 -84 218t-25 300q0 358 115 582q128 247 430 247q437 0 477 -407l-217 -21q-27 238 -260 238q-118 0 -196 -72q-131 -126 -131 -379q154 92 387 92q93 0 168.5 -27.5t126.5 -73t85.5 -107.5t50 -129
t15.5 -138zM651 164q138 0 212.5 84.5t74.5 234.5q0 289 -285 289q-215 0 -331 -104q-5 -62 -5 -99q0 -405 334 -405z" />
    <glyph glyph-name="six.small" horiz-adv-x="1087" 
d="M971 334q0 -150 -117 -258q-114 -105 -297 -105q-272 0 -369 129q-46 66 -65 148t-19 207q0 243 89 397q103 170 362 170q225 0 305 -92q40 -43 59 -88t27 -107l-215 -14q-21 117 -176 117q-233 0 -233 -254q72 37 129 49q55 14 155 14q182 0 273.5 -86t91.5 -227z
M557 156q91 0 144 41.5t53 111.5q0 82 -44 120t-153 38q-132 0 -235 -59q-5 -35 -5 -60q0 -104 60.5 -148t179.5 -44z" />
    <glyph glyph-name="three.onum" horiz-adv-x="1261" 
d="M467 238l-115 124l430 386h-647v190h950v-139l-383 -334h11q198 0 321 -123t123 -299q0 -191 -143 -322q-144 -135 -377 -135q-74 0 -147 14t-143.5 45.5t-123.5 78t-86 118t-33 158.5l218 27q10 -118 94 -184t221 -66q144 0 223.5 73t79.5 193q0 119 -79 178.5
t-218 59.5q-91 0 -176 -43z" />
    <glyph glyph-name="three.small" horiz-adv-x="1054" 
d="M403 412l-98 129l281 266h-473v184h788v-139l-246 -221q152 -19 235 -99t83 -217q0 -167 -127 -256q-125 -88 -293 -88q-471 0 -471 332l217 27q10 -105 66.5 -139.5t187.5 -34.5q106 0 154.5 43.5t48.5 115.5q0 65 -50 102.5t-147 37.5q-92 0 -156 -43z" />
    <glyph glyph-name="two.onum" horiz-adv-x="1259" 
d="M553 190h577v-190h-987v139q411 162 564 273q157 115 157 227q0 145 -239 145q-140 0 -200.5 -56.5t-78.5 -192.5l-215 34q35 398 494 398q226 0 341 -82t115 -238q0 -65 -37 -153q-60 -100 -161 -160q-75 -45 -138 -72l-67 -26l-68 -25z" />
    <glyph glyph-name="two.small" horiz-adv-x="1087" 
d="M518 190h475v-190h-884v139q212 108 339.5 187t188.5 143q64 64 87.5 112.5t23.5 110.5q0 146 -207 146q-113 0 -162.5 -56.5t-67.5 -193.5l-215 35q17 208 122 302.5t323 94.5q424 0 424 -320q0 -177 -138 -303q-65 -60 -133 -104.5t-176 -102.5z" />
    <glyph glyph-name="uni20BD.small" horiz-adv-x="1073" 
d="M0 131v115h143v94h-143v115h143v536h486q183 0 277.5 -84t94.5 -239q0 -156 -95.5 -242t-276.5 -86h-269v-94h297v-115h-297v-131h-217v131h-143zM639 807h-279v-352h279q145 0 145 178q0 72 -39.5 123t-105.5 51z" />
    <glyph glyph-name="yen.small" horiz-adv-x="1093" 
d="M174 131v115h275v94h-275v115h209l-352 536h260l287 -465l274 465h211l-336 -536h213v-115h-274v-94h274v-115h-274v-131h-217v131h-275z" />
    <glyph glyph-name="zero.onum" horiz-adv-x="1259" 
d="M864 231q76 91 76 238q0 148 -76 236q-78 90 -233 90q-156 0 -234 -90q-75 -87 -75 -236q0 -148 75 -238q78 -90 234 -90q155 0 233 90zM1024 827q131 -137 131 -358q0 -223 -131 -360q-129 -138 -393 -138q-263 0 -395 138t-132 360q0 220 132 358q134 140 395 140
q262 0 393 -140z" />
    <glyph glyph-name="zero.small" horiz-adv-x="1075" 
d="M539 836q-234 0 -234 -342t234 -342q231 0 231 342t-231 342zM539 1020q221 0 335 -150q115 -148 115 -374t-115 -377q-114 -150 -335 -150t-338 150q-115 151 -115 377t115 374q114 150 338 150z" />
    </font>
</defs>
</svg>
